<?xml version="1.0" encoding="UTF-8" standalone="no"?>
<!-- Created with Inkscape (http://www.inkscape.org/) -->

<svg
   xmlns:osb="http://www.openswatchbook.org/uri/2009/osb"
   xmlns:dc="http://purl.org/dc/elements/1.1/"
   xmlns:cc="http://creativecommons.org/ns#"
   xmlns:rdf="http://www.w3.org/1999/02/22-rdf-syntax-ns#"
   xmlns:svg="http://www.w3.org/2000/svg"
   xmlns="http://www.w3.org/2000/svg"
   xmlns:xlink="http://www.w3.org/1999/xlink"
   xmlns:sodipodi="http://sodipodi.sourceforge.net/DTD/sodipodi-0.dtd"
   xmlns:inkscape="http://www.inkscape.org/namespaces/inkscape"
   width="48"
   height="48"
   id="svg2"
   sodipodi:version="0.32"
   inkscape:version="0.48.0 r9654"
   sodipodi:docname="head.svg"
   inkscape:output_extension="org.inkscape.output.svg.inkscape"
   version="1.1"
   inkscape:export-filename="W:\home\pictures\cliparts\lazarus-logo\head.png"
   inkscape:export-xdpi="391.15384"
   inkscape:export-ydpi="391.15384">
  <title
     id="title3059">Cheetah Head</title>
  <defs
     id="defs4">
    <linearGradient
       id="linearGradient5584">
      <stop
         style="stop-color:#930a0a;stop-opacity:0.54867256;"
         offset="0"
         id="stop5586" />
      <stop
         id="stop5588"
         offset="0.4876779"
         style="stop-color:#920000;stop-opacity:0.16814159;" />
      <stop
         style="stop-color:#ffffff;stop-opacity:0;"
         offset="1"
         id="stop5590" />
    </linearGradient>
    <inkscape:path-effect
       effect="vonkoch"
       id="path-effect4429"
       is_visible="true"
       ref_path="m 17,1045.2164 15.125,0"
       generator="m 17,1048.737 5.041667,0 m 5.041666,0 5.041667,0"
       similar_only="false"
       nbgenerations="4"
       drawall="true"
       maxComplexity="1000" />
    <inkscape:path-effect
       effect="spiro"
       id="path-effect4427"
       is_visible="true" />
    <inkscape:path-effect
       effect="spiro"
       id="path-effect4425"
       is_visible="true" />
    <inkscape:path-effect
       effect="spiro"
       id="path-effect4423"
       is_visible="true" />
    <inkscape:path-effect
       effect="skeletal"
       id="path-effect4421"
       is_visible="true"
       pattern="M 0,0 1,0"
       copytype="single_stretched"
       prop_scale="1"
       scale_y_rel="false"
       spacing="0"
       normal_offset="0"
       tang_offset="0"
       prop_units="false"
       vertical_pattern="false"
       fuse_tolerance="0" />
    <inkscape:path-effect
       effect="knot"
       id="path-effect4419"
       is_visible="true"
       interruption_width="3"
       prop_to_stroke_width="true"
       add_stroke_width="true"
       add_other_stroke_width="true"
       switcher_size="15"
       crossing_points_vector="" />
    <inkscape:path-effect
       effect="interpolate"
       id="path-effect4415"
       is_visible="true"
       trajectory="M 0,0 0,0"
       equidistant_spacing="true"
       steps="5" />
    <inkscape:path-effect
       effect="gears"
       id="path-effect4413"
       is_visible="true"
       teeth="10"
       phi="5" />
    <inkscape:path-effect
       effect="envelope"
       id="path-effect4411"
       is_visible="true"
       yy="true"
       xx="true"
       bendpath1="m 5.625,33.4375 6.25,0"
       bendpath2="m 11.875,33.4375 0,6.5"
       bendpath3="m 5.625,39.9375 6.25,0"
       bendpath4="m 5.625,33.4375 0,6.5" />
    <inkscape:path-effect
       effect="construct_grid"
       id="path-effect4409"
       is_visible="true"
       nr_x="5"
       nr_y="5" />
    <inkscape:path-effect
       effect="bend_path"
       id="path-effect4407"
       is_visible="true"
       bendpath="m 5.625,36.6875 6.25,0"
       prop_scale="1"
       scale_y_rel="false"
       vertical="false" />
    <inkscape:path-effect
       effect="rough_hatches"
       id="path-effect4405"
       is_visible="true"
       direction="8.75,31.6875 , 1.5625,0"
       dist_rdm="75;1"
       growth="0"
       do_bend="true"
       bender="8.75,36.6875 , 5,0"
       bottom_edge_variation="0.65;1"
       top_edge_variation="0.65;1"
       bottom_tgt_variation="0;1"
       top_tgt_variation="0;1"
       scale_bf="1"
       scale_bb="1"
       scale_tf="1"
       scale_tb="1"
       top_smth_variation="0;1"
       bottom_smth_variation="0;1"
       fat_output="true"
       stroke_width_top="1"
       stroke_width_bottom="1"
       front_thickness="1"
       back_thickness="0.25" />
    <inkscape:path-effect
       effect="rough_hatches"
       id="path-effect4399"
       is_visible="true"
       direction="10.625,1035.7453 , 2.625,0"
       dist_rdm="75;1"
       growth="0"
       do_bend="true"
       bender="6.875,1042.9328 , 4.75,-2.25"
       bottom_edge_variation="0.67665644;1"
       top_edge_variation="0.67665644;1"
       bottom_tgt_variation="0;1"
       top_tgt_variation="0;1"
       scale_bf="1"
       scale_bb="1"
       scale_tf="1"
       scale_tb="1"
       top_smth_variation="0;1"
       bottom_smth_variation="0;1"
       fat_output="true"
       stroke_width_top="1"
       stroke_width_bottom="1"
       front_thickness="1"
       back_thickness="0.25" />
    <linearGradient
       id="linearGradient4047">
      <stop
         style="stop-color:#930a0a;stop-opacity:0;"
         offset="0"
         id="stop4049" />
      <stop
         id="stop4061"
         offset="0.26848221"
         style="stop-color:#920707;stop-opacity:0.09734514;" />
      <stop
         id="stop4059"
         offset="0.53098601"
         style="stop-color:#920505;stop-opacity:0.20353982;" />
      <stop
         id="stop4051"
         offset="0.76153719"
         style="stop-color:#920000;stop-opacity:0.05309734;" />
      <stop
         style="stop-color:#ffffff;stop-opacity:0;"
         offset="1"
         id="stop4053" />
    </linearGradient>
    <linearGradient
       id="linearGradient3998"
       osb:paint="gradient">
      <stop
         style="stop-color:#ffcc00;stop-opacity:1"
         offset="0"
         id="stop4000" />
      <stop
         id="stop4002"
         offset="0.53951544"
         style="stop-color:#ffe57f;stop-opacity:1" />
      <stop
         id="stop4004"
         offset="1"
         style="stop-color:#ffffff;stop-opacity:1;" />
    </linearGradient>
    <linearGradient
       osb:paint="gradient"
       id="linearGradient3966">
      <stop
         id="stop3968"
         offset="0"
         style="stop-color:#ffffff;stop-opacity:0.62831861;" />
      <stop
         style="stop-color:#ffffff;stop-opacity:0.49557522;"
         offset="0.67996919"
         id="stop3970" />
      <stop
         id="stop3972"
         offset="1"
         style="stop-color:#ffffff;stop-opacity:0;" />
    </linearGradient>
    <linearGradient
       id="linearGradient4038">
      <stop
         style="stop-color:#930a0a;stop-opacity:0.54867256;"
         offset="0"
         id="stop4040" />
      <stop
         id="stop4042"
         offset="0.80422217"
         style="stop-color:#920000;stop-opacity:0.16814159;" />
      <stop
         style="stop-color:#ffffff;stop-opacity:0;"
         offset="1"
         id="stop4044" />
    </linearGradient>
    <linearGradient
       id="linearGradient3985">
      <stop
         style="stop-color:#ffffff;stop-opacity:0.76106197;"
         offset="0"
         id="stop3987" />
      <stop
         id="stop3993"
         offset="0.60575384"
         style="stop-color:#ffffff;stop-opacity:0.19215686;" />
      <stop
         style="stop-color:#ffffff;stop-opacity:0;"
         offset="1"
         id="stop3989" />
    </linearGradient>
    <linearGradient
       id="linearGradient3936">
      <stop
         id="stop3938"
         offset="0"
         style="stop-color:#ffffff;stop-opacity:1;" />
      <stop
         style="stop-color:#ffffff;stop-opacity:0.49803922;"
         offset="0.53149527"
         id="stop3940" />
      <stop
         id="stop3942"
         offset="1"
         style="stop-color:#ffffff;stop-opacity:0;" />
    </linearGradient>
    <linearGradient
       id="linearGradient3890">
      <stop
         id="stop3892"
         offset="0"
         style="stop-color:#930a0a;stop-opacity:0.54867256;" />
      <stop
         style="stop-color:#920000;stop-opacity:0.16814159;"
         offset="0.54232275"
         id="stop3946" />
      <stop
         id="stop3894"
         offset="1"
         style="stop-color:#ffffff;stop-opacity:0;" />
    </linearGradient>
    <linearGradient
       id="linearGradient3892">
      <stop
         id="stop3900"
         offset="0"
         style="stop-color:#ffcc00;stop-opacity:1" />
      <stop
         style="stop-color:#ffe57f;stop-opacity:1;"
         offset="0.74942917"
         id="stop3999" />
      <stop
         style="stop-color:#ffffff;stop-opacity:1;"
         offset="1"
         id="stop3896" />
    </linearGradient>
    <linearGradient
       id="linearGradient3866"
       osb:paint="gradient">
      <stop
         style="stop-color:#ffffff;stop-opacity:0.62831861;"
         offset="0"
         id="stop3868" />
      <stop
         id="stop3897"
         offset="0.45584768"
         style="stop-color:#ffffff;stop-opacity:0.49557522;" />
      <stop
         style="stop-color:#ffffff;stop-opacity:0;"
         offset="1"
         id="stop3870" />
    </linearGradient>
    <inkscape:perspective
       sodipodi:type="inkscape:persp3d"
       inkscape:vp_x="0 : 526.18109 : 1"
       inkscape:vp_y="0 : 1000 : 0"
       inkscape:vp_z="744.09448 : 526.18109 : 1"
       inkscape:persp3d-origin="372.04724 : 350.78739 : 1"
       id="perspective10" />
    <inkscape:perspective
       id="perspective2390"
       inkscape:persp3d-origin="372.04724 : 350.78739 : 1"
       inkscape:vp_z="744.09448 : 526.18109 : 1"
       inkscape:vp_y="0 : 1000 : 0"
       inkscape:vp_x="0 : 526.18109 : 1"
       sodipodi:type="inkscape:persp3d" />
    <linearGradient
       inkscape:collect="always"
       xlink:href="#linearGradient3892"
       id="linearGradient3898"
       x1="24.59668"
       y1="1022.9152"
       x2="30.003494"
       y2="1015.5527"
       gradientUnits="userSpaceOnUse"
       gradientTransform="translate(-0.375,-1.6252)" />
    <radialGradient
       inkscape:collect="always"
       xlink:href="#linearGradient3866-7"
       id="radialGradient3882-1"
       cx="7.6006031"
       cy="1037.6024"
       fx="7.6006031"
       fy="1037.6024"
       r="8.1881008"
       gradientTransform="matrix(2.0891214,-0.42144952,0.07819655,0.38761959,-86.85943,633.49899)"
       gradientUnits="userSpaceOnUse" />
    <linearGradient
       inkscape:collect="always"
       id="linearGradient3866-7">
      <stop
         style="stop-color:#ffffff;stop-opacity:1;"
         offset="0"
         id="stop3868-4" />
      <stop
         style="stop-color:#ffffff;stop-opacity:0;"
         offset="1"
         id="stop3870-0" />
    </linearGradient>
    <linearGradient
       inkscape:collect="always"
       xlink:href="#linearGradient3890"
       id="linearGradient3882"
       x1="19.17877"
       y1="1014.2476"
       x2="19.262575"
       y2="1018.1637"
       gradientUnits="userSpaceOnUse"
       gradientTransform="translate(-0.375,-1.6252)" />
    <radialGradient
       inkscape:collect="always"
       xlink:href="#linearGradient3866-77"
       id="radialGradient3882-2"
       cx="9.8773947"
       cy="1038.7457"
       fx="9.8773947"
       fy="1038.7457"
       r="8.1881008"
       gradientTransform="matrix(1.014447,-0.28787399,0.07220969,0.25446173,-69.123168,770.20124)"
       gradientUnits="userSpaceOnUse" />
    <linearGradient
       id="linearGradient3866-77">
      <stop
         style="stop-color:#ffffff;stop-opacity:1;"
         offset="0"
         id="stop3868-1" />
      <stop
         id="stop3897-2"
         offset="0.67666399"
         style="stop-color:#ffffff;stop-opacity:0.49803922;" />
      <stop
         style="stop-color:#ffffff;stop-opacity:0;"
         offset="1"
         id="stop3870-6" />
    </linearGradient>
    <radialGradient
       inkscape:collect="always"
       xlink:href="#linearGradient3866-9"
       id="radialGradient3882-4"
       cx="9.8773947"
       cy="1038.7457"
       fx="9.8773947"
       fy="1038.7457"
       r="8.1881008"
       gradientTransform="matrix(1.2960572,-0.42335178,0.08024686,0.24566933,-80.25333,780.67247)"
       gradientUnits="userSpaceOnUse" />
    <linearGradient
       id="linearGradient3866-9">
      <stop
         style="stop-color:#ffffff;stop-opacity:0.07964602;"
         offset="0"
         id="stop3868-46" />
      <stop
         id="stop3897-0"
         offset="0.36873978"
         style="stop-color:#ffffff;stop-opacity:0.49557522;" />
      <stop
         style="stop-color:#ffffff;stop-opacity:0;"
         offset="1"
         id="stop3870-3" />
    </linearGradient>
    <linearGradient
       inkscape:collect="always"
       xlink:href="#linearGradient3985"
       id="linearGradient3991"
       x1="20.805763"
       y1="1039.2732"
       x2="27.696302"
       y2="1033.6414"
       gradientUnits="userSpaceOnUse"
       gradientTransform="translate(-0.375,-1.6252)" />
    <linearGradient
       inkscape:collect="always"
       xlink:href="#linearGradient3866"
       id="linearGradient3995"
       x1="13.48166"
       y1="1031.3344"
       x2="13.371014"
       y2="1030.3925"
       gradientUnits="userSpaceOnUse"
       gradientTransform="translate(-0.375,-1.6252)" />
    <linearGradient
       inkscape:collect="always"
       xlink:href="#linearGradient3890-4"
       id="linearGradient3882-2"
       x1="19.17877"
       y1="1014.2476"
       x2="19.262575"
       y2="1018.1637"
       gradientUnits="userSpaceOnUse" />
    <linearGradient
       id="linearGradient3890-4">
      <stop
         id="stop3892-5"
         offset="0"
         style="stop-color:#930a0a;stop-opacity:0.54867256;" />
      <stop
         style="stop-color:#920000;stop-opacity:0.16814159;"
         offset="0.54232275"
         id="stop3946-8" />
      <stop
         id="stop3894-8"
         offset="1"
         style="stop-color:#ffffff;stop-opacity:0;" />
    </linearGradient>
    <linearGradient
       gradientTransform="matrix(1.084741,1.4752314,-1.7063526,0.93781557,1749.7509,46.545945)"
       y2="1018.1637"
       x2="19.262575"
       y1="1014.1828"
       x1="19.500187"
       gradientUnits="userSpaceOnUse"
       id="linearGradient4017"
       xlink:href="#linearGradient4038"
       inkscape:collect="always" />
    <linearGradient
       inkscape:collect="always"
       xlink:href="#linearGradient3866-0"
       id="linearGradient3995-4"
       x1="13.48166"
       y1="1031.3344"
       x2="13.371014"
       y2="1030.3925"
       gradientUnits="userSpaceOnUse"
       gradientTransform="translate(-0.375,-1.6252)" />
    <linearGradient
       id="linearGradient3866-0"
       osb:paint="gradient">
      <stop
         style="stop-color:#ffffff;stop-opacity:0.62831861;"
         offset="0"
         id="stop3868-9" />
      <stop
         id="stop3897-4"
         offset="0.45584768"
         style="stop-color:#ffffff;stop-opacity:0.49557522;" />
      <stop
         style="stop-color:#ffffff;stop-opacity:0;"
         offset="1"
         id="stop3870-8" />
    </linearGradient>
    <radialGradient
       inkscape:collect="always"
       xlink:href="#linearGradient3966"
       id="radialGradient4008"
       cx="13.422751"
       cy="1019.5865"
       fx="13.422751"
       fy="1019.5865"
       r="2.0705816"
       gradientTransform="matrix(0.63023672,-0.91012779,0.79466441,0.55028174,-805.40353,470.9496)"
       gradientUnits="userSpaceOnUse" />
    <linearGradient
       inkscape:collect="always"
       xlink:href="#linearGradient3890-2"
       id="linearGradient3882-1"
       x1="19.17877"
       y1="1014.2476"
       x2="19.262575"
       y2="1018.1637"
       gradientUnits="userSpaceOnUse"
       gradientTransform="translate(-0.375,-1.6252)" />
    <linearGradient
       id="linearGradient3890-2">
      <stop
         id="stop3892-6"
         offset="0"
         style="stop-color:#930a0a;stop-opacity:0.54867256;" />
      <stop
         style="stop-color:#920000;stop-opacity:0.16814159;"
         offset="0.54232275"
         id="stop3946-0" />
      <stop
         id="stop3894-4"
         offset="1"
         style="stop-color:#ffffff;stop-opacity:0;" />
    </linearGradient>
    <linearGradient
       inkscape:collect="always"
       xlink:href="#linearGradient4047"
       id="linearGradient4057"
       x1="34.314472"
       y1="1014.7882"
       x2="27.444017"
       y2="1020.5876"
       gradientUnits="userSpaceOnUse"
       gradientTransform="matrix(0.98494012,-0.17289578,0.17289578,0.98494012,-199.16933,25.925998)" />
    <linearGradient
       inkscape:collect="always"
       xlink:href="#linearGradient3890-0"
       id="linearGradient3882-9"
       x1="19.17877"
       y1="1014.2476"
       x2="19.262575"
       y2="1018.1637"
       gradientUnits="userSpaceOnUse"
       gradientTransform="translate(-0.375,-1.6252)" />
    <linearGradient
       id="linearGradient3890-0">
      <stop
         id="stop3892-4"
         offset="0"
         style="stop-color:#930a0a;stop-opacity:0.54867256;" />
      <stop
         style="stop-color:#920000;stop-opacity:0.16814159;"
         offset="0.54232275"
         id="stop3946-87" />
      <stop
         id="stop3894-40"
         offset="1"
         style="stop-color:#ffffff;stop-opacity:0;" />
    </linearGradient>
    <radialGradient
       inkscape:collect="always"
       xlink:href="#linearGradient5584"
       id="radialGradient5582"
       cx="40.872669"
       cy="1017.4983"
       fx="40.872669"
       fy="1017.4983"
       r="5.3874297"
       gradientTransform="matrix(1.278055,0.33600936,-0.24794763,0.94310089,223.60382,53.586071)"
       gradientUnits="userSpaceOnUse" />
  </defs>
  <sodipodi:namedview
     id="base"
     pagecolor="#ffffff"
     bordercolor="#666666"
     borderopacity="1.0"
     gridtolerance="10000"
     guidetolerance="10"
     objecttolerance="10"
     inkscape:pageopacity="0.0"
     inkscape:pageshadow="2"
     inkscape:zoom="16"
     inkscape:cx="23.936524"
     inkscape:cy="26.299191"
     inkscape:document-units="px"
     inkscape:current-layer="layer1"
     showgrid="true"
     inkscape:window-width="1440"
     inkscape:window-height="844"
     inkscape:window-x="-4"
     inkscape:window-y="-4"
     inkscape:window-maximized="1"
     showguides="false"
     inkscape:snap-global="false">
    <inkscape:grid
       type="xygrid"
       id="grid3876"
       empspacing="5"
       visible="true"
       enabled="true"
       snapvisiblegridlinesonly="true" />
  </sodipodi:namedview>
  <metadata
     id="metadata7">
    <rdf:RDF>
      <cc:Work
         rdf:about="">
        <dc:format>image/svg+xml</dc:format>
        <dc:type
           rdf:resource="http://purl.org/dc/dcmitype/StillImage" />
        <dc:title>Cheetah Head</dc:title>
        <cc:license
           rdf:resource="http://creativecommons.org/licenses/by-nd/3.0/" />
        <dc:creator>
          <cc:Agent>
            <dc:title>Zaher Dirkey</dc:title>
          </cc:Agent>
        </dc:creator>
        <dc:subject>
          <rdf:Bag />
        </dc:subject>
        <dc:description>guid line based on
http://nature.ca/notebooks/english/cheetah_p1.htm</dc:description>
      </cc:Work>
      <cc:License
         rdf:about="http://creativecommons.org/licenses/by-nd/3.0/">
        <cc:permits
           rdf:resource="http://creativecommons.org/ns#Reproduction" />
        <cc:permits
           rdf:resource="http://creativecommons.org/ns#Distribution" />
        <cc:requires
           rdf:resource="http://creativecommons.org/ns#Notice" />
        <cc:requires
           rdf:resource="http://creativecommons.org/ns#Attribution" />
      </cc:License>
    </rdf:RDF>
  </metadata>
  <g
     inkscape:label="Layer 1"
     inkscape:groupmode="layer"
     id="layer1"
     style="display:inline"
     transform="translate(0,-1004.362)">
    <path
       style="fill:#ffcc00;display:inline"
       d="m 44.903338,1042.3269 c -1.268664,-1.6169 -3.799727,-6.3363 -4.713594,-8.0895 -3.025003,-5.76 -6.356291,-11.0534 -9.901016,-16.3467 -0.873211,-1.0393 -0.612049,-1.8857 -2.890564,-3.3557 -2.006402,-1.2943 -4.952245,-1.2325 -7.876543,-1.2662 l -0.357252,-0.016 c -4.810456,0.171 -7.378845,1.4246 -10.9067415,4.3864 -0.250487,0.1972 -0.3746724,0.5573 -0.3507314,0.9828 0.02363,0.4201 3.333e-4,0.5826 0.1336473,0.8631 -0.252664,0.3134 -2.7802566,3.2136 -3.7204386,4.5348 -0.732089,1.0287 -0.9427714,1.7925 -0.7981454,2.1604 0.162475,0.6161 1.0401096,2.0627 1.6155226,2.675 0.04895,0.051 0.3058006,0.3837 0.4769156,0.4974 -0.105926,0.1 1.2899449,1.2448 1.7129099,1.3872 0.460424,0.1551 0.9276715,0.5156 1.8635865,0.4969 2.348813,-0.1064 5.115807,-2.5797 7.14335,-2.026 4.448964,1.4103 4.039277,9.5997 4.104857,13.1162 L 45,1042.362 z"
       id="path3127-0"
       inkscape:connector-curvature="0"
       sodipodi:nodetypes="cccccccccsccccccccc" />
    <path
       style="fill:url(#radialGradient5582);fill-opacity:1;stroke:none;display:inline"
       d="m 24.314968,1024.1713 c 0.953116,1.5184 1.314022,1.6463 0.897396,3.31 -0.711454,2.8411 -4.514423,2.0017 -4.526899,2.8812 -0.03705,2.6117 7.399095,0.894 8.163443,-1.7845 0.578335,-2.0266 -4.668505,-10.8937 -4.53394,-4.4067 z"
       id="path3646-1-9-2"
       inkscape:connector-curvature="0"
       sodipodi:nodetypes="cssac" />
    <path
       style="fill:url(#linearGradient4057);fill-opacity:1;stroke:none;display:inline"
       d="m 3.8177434,1025.748 c 0.708664,-1.7099 4.2020159,-4.9742 5.6265443,-6.9323 0.6808893,-0.083 1.7197013,-0.048 1.4968363,0.3013 -0.54641,0.8574 -3.4505565,5.4186 -4.4333319,6.8335 -0.7802902,0.3315 -2.6636308,0.5771 -2.6900487,-0.2025 z"
       id="path3646-1-9-9"
       inkscape:connector-curvature="0"
       sodipodi:nodetypes="ccscc" />
    <path
       style="fill:url(#linearGradient3991);fill-opacity:1;stroke:none;display:inline"
       d="m 21,1042.362 c 0,0 -0.292745,-0.7027 -0.438888,-3.657 -0.160546,-3.2456 -1.556604,-7.0753 -1.568072,-7.6778 0.0044,-0.5806 1.48547,-1.1931 2.758074,-1.4496 5.485625,-1.2242 12.485,13.1622 9.248886,12.7844 z"
       id="path3646-1-6"
       inkscape:connector-curvature="0"
       sodipodi:nodetypes="cscccc" />
    <path
       style="fill:url(#linearGradient4017);fill-opacity:1;stroke:none;display:inline"
       d="m 29.725389,1019.74 c 6.066244,2.3418 11.844773,19.0477 15.274611,22.622 -4.324137,-6e-4 -9,0 -12.968435,0.014 -1.031565,-0.014 -0.252302,-1.169 0.085,-1.7417 1.758517,-2.9857 4.291994,-11.3362 -2.360859,-15.1395 -1.253963,-0.7169 -2.643575,-1.6496 -2.503615,-2.3126 0.241919,-1.1461 1.487812,-1.8957 2.473295,-3.4417 z"
       id="path3646-1-9-1"
       inkscape:connector-curvature="0"
       sodipodi:nodetypes="cccssscc" />
    <path
       style="opacity:0.88516750000000000;fill:url(#radialGradient4008);fill-opacity:1;stroke:none;display:inline"
       d="m 12.156025,1019.8913 c 2.337682,1.0774 0.821582,-1.8608 3.337308,-2.6963 -0.343969,2.4007 -0.383132,3.606 -1.167908,4.2637 -0.877043,0.735 -2.083068,0.024 -3.136197,0.093 -0.317304,0.021 0.04717,-0.8535 0.966797,-1.6611 z"
       id="path3646-1-8"
       inkscape:connector-curvature="0"
       sodipodi:nodetypes="ccsscc" />
    <path
       style="fill:url(#linearGradient3882);fill-opacity:1;stroke:none;display:inline"
       d="m 10.294894,1016.1315 c 1.451863,-1.2546 3.439378,-1.982 6.335645,-2.5845 7.079072,-0.9736 15.443641,0.9526 9.183436,5.0285 -1.070695,1.9026 0.533128,4.0241 -0.287872,2.6342 -0.974798,-1.6503 -5.886327,-5.8092 -9.663437,-4.5173 -3.380731,1.1563 -5.224912,0.9943 -5.567772,-0.5609 z"
       id="path3646-1-9"
       inkscape:connector-curvature="0"
       sodipodi:nodetypes="cccssc" />
    <path
       style="fill:#000000"
       d="m 40.17904,1038.912 c 0.214298,-0.8232 1.582085,0.8313 1.601656,1.0345 0.009,0.062 -0.04821,0.2574 -0.230545,0.1594 -0.301366,-0.1619 -0.836224,-0.6652 -1.180743,-0.506 -0.501494,0.3006 -0.195845,-0.6121 -0.190368,-0.6879 z"
       id="path3750"
       inkscape:connector-curvature="0"
       sodipodi:nodetypes="ccscc" />
    <path
       style="fill:#000000"
       d="m 23.40913,1040.3366 c 0.45872,-0.6762 0.681787,-0.8121 0.348072,-0.2374 -0.0757,0.1304 -0.142416,0.323 -0.250069,0.5457 -0.223418,0.5865 -0.55292,1.3971 -0.824714,1.3611 -0.474327,-0.063 -0.2793,-0.4061 0.726711,-1.6694 z"
       id="path3748"
       inkscape:connector-curvature="0"
       sodipodi:nodetypes="cscsc" />
    <path
       style="fill:#000000"
       d="m 34.795259,1036.9085 c -1.056418,0.1669 -1.456769,-0.921 -0.619327,-1.6829 0.162996,-0.1482 0.451459,0.041 0.31395,0.2795 -0.165633,0.2879 0.02121,0.4848 0.19798,0.3198 0.526491,-0.4916 1.236121,0.517 0.638086,0.8973 -0.199325,0.1232 -0.387316,0.1637 -0.530689,0.1863 z m 2.907441,2.2701 c 0.198116,0.25 1.201766,1.9086 1.029766,2.0355 -0.210043,0.1547 -1.00352,-0.481 -1.702943,-1.79 -0.152322,-0.5606 0.390431,-0.6342 0.673177,-0.2455 z m -1.749518,-1.794 c 0.677382,0.036 1.462017,0.9793 1.076262,1.3068 -0.155152,0.1317 -1.395361,0.1418 -0.889782,-0.142 0.781745,-0.2509 -0.833443,-1.0515 -0.18648,-1.1648 z m 0.549755,2.5187 c 0.331087,0.4084 -0.09994,0.2779 -0.409672,0.092 -0.737572,-0.145 0.0914,0.8697 -0.68984,0.1738 -0.830484,-0.7515 -0.8922,-1.2162 -0.161539,-1.2162 0.705715,0.14 0.946313,0.5658 1.261051,0.9504 z"
       id="path3744"
       inkscape:connector-curvature="0"
       sodipodi:nodetypes="cssscccscccsccccccc" />
    <path
       style="fill:#000000"
       d="m 38.853828,1037.9194 c -0.06532,-0.1131 -0.423497,-0.2976 -0.499712,-0.2214 -0.09108,0.091 -0.0683,0.4137 0.06343,0.5364 0.509037,0.4743 0.622844,0.01 0.436282,-0.315 z"
       id="path3742"
       inkscape:connector-curvature="0"
       sodipodi:nodetypes="scss" />
    <path
       style="fill:#000000"
       d="m 24.313936,1040.1017 c 0,-0.6284 0.167602,-0.9453 0.674536,-0.8688 2.291097,0.3989 -0.652715,2.7319 -0.674536,0.8688 z"
       id="path3740"
       inkscape:connector-curvature="0"
       sodipodi:nodetypes="ccc" />
    <path
       style="fill:#000000"
       d="m 24.871425,1039.6746 c -0.115479,-0.1155 -0.197616,0.09 -0.182527,0.4561 0.09365,0.8381 0.427019,-0.1883 0.182527,-0.4561 z"
       id="path3738"
       inkscape:connector-curvature="0" />
    <path
       style="fill:#000000"
       d="m 31.664879,1039.3937 c 0.225828,0 0.313943,-0.1565 0.195811,-0.3475 -0.32739,-0.5298 0.05712,-0.4146 0.67342,0.2018 0.687061,0.7807 0.458766,0.9574 0.03115,0.8896 -0.365187,-0.1358 -1.922804,-0.5811 -0.900381,-0.7439 z"
       id="path3736"
       inkscape:connector-curvature="0"
       sodipodi:nodetypes="csccc" />
    <path
       style="fill:#000000"
       d="m 22.242121,1038.7866 c 0.09191,-0.8124 0.171045,-1.7542 0.175851,-2.0927 0.06157,-1.303 0.684654,-0.7209 0.732304,-0.5274 0.05049,0.205 -0.07055,0.7062 -0.07055,1.1841 0,0.5941 0.137324,0.7913 0.434405,0.6234 0.347519,-0.1961 0.347519,-0.1515 0,0.2229 -0.238926,0.2574 -0.428531,0.6322 -0.421354,0.8329 0.0073,0.2008 0.552198,-0.2605 1.211159,-1.0252 0.658963,-0.7645 1.200432,-1.1946 1.20328,-0.9556 0.0057,0.5018 -2.613059,3.2146 -3.103596,3.2146 -0.181094,0 -0.253571,-0.663 -0.161466,-1.477 z"
       id="path3734"
       inkscape:connector-curvature="0"
       sodipodi:nodetypes="ccsssssscssc" />
    <path
       style="fill:#000000"
       d="m 29.375364,1038.2921 c -0.188593,-0.4952 -0.148673,-0.5351 0.194549,-0.1945 0.237502,0.2358 0.344284,0.5162 0.237276,0.6231 -0.106999,0.107 -0.301313,-0.086 -0.431825,-0.4286 z"
       id="path3732"
       inkscape:connector-curvature="0" />
    <path
       style="fill:#000000"
       d="m 32.647138,1038.3731 c -0.319444,-0.1975 -0.299837,-0.5142 -0.02976,-0.6812 0.211548,-0.1307 0.387027,-0.033 0.389947,0.2172 0.004,0.3307 0.09741,0.3124 0.342204,-0.065 0.20242,-0.3131 0.339008,-0.3561 0.342203,-0.1074 -0.133342,0.8737 -0.530842,0.9287 -1.044594,0.6364 z"
       id="path3730"
       inkscape:connector-curvature="0"
       sodipodi:nodetypes="cccccc" />
    <path
       style="fill:#000000"
       d="m 29.804381,1034.7965 c 0.215376,-0.2534 0.576709,-0.2703 0.453254,0.3269 0.312805,1.9097 1.412268,0.015 1.508785,0.9162 -0.05218,2.4902 -3.137784,0.3484 -1.962039,-1.2431 z"
       id="path3728"
       inkscape:connector-curvature="0"
       sodipodi:nodetypes="cccc" />
    <path
       style="fill:#000000"
       d="m 39.495929,1037.4153 c -0.226976,-0.3636 -0.66529,-0.5802 -0.997591,-0.4934 -0.327688,0.086 -0.685062,-0.085 -0.799238,-0.3831 -0.288942,-0.753 0.178424,-0.9393 1.135108,-0.4524 0.94648,0.4818 2.045867,1.9771 1.453548,1.9771 -0.212833,0 -0.569155,-0.2918 -0.791827,-0.6482 z"
       id="path3726"
       inkscape:connector-curvature="0" />
    <path
       style="fill:#000000"
       d="m 24.611519,1036.1324 c -0.565418,-0.5653 -0.527059,-1.3205 0.06708,-1.3205 0.584309,0 1.044719,1.0428 0.639366,1.4481 -0.159175,0.1592 -0.477074,0.102 -0.706438,-0.1276 z"
       id="path3724"
       inkscape:connector-curvature="0" />
    <path
       style="fill:#000000"
       d="m 32.494363,1035.6538 c -0.22658,-0.5905 0.07791,-1.2551 0.575046,-1.2551 0.438272,0 0.419315,1.2921 -0.02298,1.5654 -0.303519,0.153 -0.455518,-0.256 -0.552066,-0.3103 z"
       id="path3722"
       inkscape:connector-curvature="0"
       sodipodi:nodetypes="cscc" />
    <path
       style="fill:#000000"
       d="m 26.974103,1036.9079 c -0.49167,-0.4916 -0.218601,-1.5059 0.405441,-1.5059 0.854377,0 1.0592,0.2566 0.848398,1.0628 -0.174654,0.6679 -0.80601,0.8909 -1.253839,0.4431 z"
       id="path3720"
       inkscape:connector-curvature="0" />
    <path
       style="fill:#000000"
       d="m 22.344452,1034.6403 c -0.0065,-0.7887 0.680527,-1.819 0.654131,-2.2839 -0.01241,-0.2185 -0.717747,0.812 -0.92135,0.7853 -0.55996,-0.073 0.860074,-2.8684 -0.339089,-1.515 -0.403005,0.4548 -0.899442,0.1154 -0.899442,-0.4653 0,-0.1705 0.153166,-0.1773 0.40659,-0.1074 0.358829,0.099 0.248423,-0.3279 0.233032,-0.5343 -0.07061,-0.8543 1.191534,-0.3786 1.075899,0.2184 -0.03239,0.1672 -0.08824,0.3387 0.161098,0.2994 0.58321,-0.2371 0.157784,1.2946 0.505855,1.1021 0.435156,-0.025 0.253448,0.9368 -0.175544,2.5007 -0.09711,1.0666 -0.697903,0.897 -0.70118,0 z"
       id="path3718"
       inkscape:connector-curvature="0"
       sodipodi:nodetypes="cssssscscccc" />
    <path
       style="fill:#000000"
       d="m 34.048432,1033.7593 c -0.502902,-0.4624 -0.750882,-0.8746 0.172703,-0.9488 0.780816,-0.063 1.298896,0.4212 1.308605,1.2134 0.0082,0.6639 -0.723406,0.4322 -1.481308,-0.2646 z"
       id="path3716"
       inkscape:connector-curvature="0"
       sodipodi:nodetypes="ssss" />
    <path
       style="fill:#000000"
       d="m 36.94129,1033.9075 c -0.316873,-0.3168 -0.341573,-1.3843 0.03852,-1.4758 0.382852,-0.2275 1.612011,1.0125 1.16581,1.0125 -0.23895,0 -0.337802,0.1563 -0.21967,0.3474 0.237356,0.3841 -0.61605,0.4845 -0.984657,0.1159 z"
       id="path3714"
       inkscape:connector-curvature="0"
       sodipodi:nodetypes="ccscc" />
    <path
       style="fill:#000000"
       d="m 24.994508,1032.4782 c 0.477974,0.085 0.390019,0.5085 0.828495,0.3938 0.456743,-0.1194 0.676754,-7e-4 0.676754,0.3643 0,0.6985 -0.455757,0.9576 -0.888237,0.551 -0.218368,-0.2054 -0.347734,-0.087 -0.74925,0.081 -1.142924,0.2416 -1.048493,-1.4523 0.132238,-1.3901 z"
       id="path3712"
       inkscape:connector-curvature="0"
       sodipodi:nodetypes="cssscc" />
    <path
       style="fill:#000000"
       d="m 30.875407,1033.6315 c -0.141887,-0.3697 -0.04263,-0.7353 0.249251,-0.9177 0.600685,-0.3757 0.9033,0.6154 0.355262,1.1635 -0.259946,0.2599 -0.438281,0.1874 -0.604513,-0.2458 z"
       id="path3710"
       inkscape:connector-curvature="0" />
    <path
       style="fill:#000000"
       d="m 35.696878,1032.4428 c -0.33535,-0.8739 -0.236418,-1.0995 0.173254,-0.395 0.20285,0.3489 0.295602,0.7075 0.206126,0.797 -0.08948,0.09 -0.260196,-0.091 -0.37938,-0.402 z"
       id="path3708"
       inkscape:connector-curvature="0" />
    <path
       style="fill:#000000"
       d="m 27.295919,1031.6047 c 0.143107,-0.088 0.282947,0.1412 0.310746,0.5101 0.05589,0.7421 -0.0818,0.8549 -0.319656,0.2983 -0.176878,-0.2524 -0.1907,-0.7747 0.0089,-0.8084 z"
       id="path3706"
       inkscape:connector-curvature="0"
       sodipodi:nodetypes="cccc" />
    <path
       style="fill:#000000"
       d="m 20.171098,1032.0706 c -0.01505,-0.8708 0.06708,-1.3586 0.182528,-1.0842 0.115477,0.2746 0.11375,1.2839 0.185219,1.5833 0.255969,0.8262 -0.315618,0.9495 -0.367747,-0.4991 z"
       id="path3704"
       inkscape:connector-curvature="0"
       sodipodi:nodetypes="cccc" />
    <path
       style="fill:#000000"
       d="m 24.850544,1031.6112 c -0.485256,-0.4852 -0.542101,-1.3123 -0.0902,-1.3123 0.175212,0 0.387156,0.1955 0.47099,0.4345 0.08383,0.2388 0.155512,0.019 0.159282,-0.4893 0.004,-0.5079 0.169136,-1.5004 0.761641,-2.088 0.14903,-0.1478 0.335634,-0.2985 0.581147,-0.303 1.711624,-0.016 0.995469,2.8689 -0.425442,1.7132 -0.689367,-0.4888 -0.839825,-0.4707 -0.332073,0.5972 0.549623,1.156 -0.424106,2.149 -1.125345,1.4477 z"
       id="path3702"
       inkscape:connector-curvature="0"
       sodipodi:nodetypes="ssscsccss" />
    <path
       style="fill:#000000"
       d="m 28.824583,1031.583 c -0.397431,-0.2457 -0.416671,-0.4058 -0.0882,-0.7343 0.328457,-0.3285 0.469859,-0.2905 0.648185,0.1742 0.290375,0.7568 0.08715,0.9599 -0.55998,0.5601 z"
       id="path3700"
       inkscape:connector-curvature="0" />
    <path
       style="fill:#000000"
       d="m 32.517918,1031.3852 c -0.349008,-0.9095 -0.244266,-1.188 0.446921,-1.188 0.794587,0 1.175528,0.8078 0.635563,1.3478 -0.533564,0.5335 -0.833388,0.4893 -1.082484,-0.1598 z"
       id="path3698"
       inkscape:connector-curvature="0" />
    <path
       style="fill:url(#linearGradient3995);fill-opacity:1;stroke:none;display:inline"
       d="m 6.2395384,1029.8956 c -0.1309165,-0.2754 -0.2037988,-0.3796 0.5583029,-0.579 1.0191689,0.9694 5.0981767,-0.1953 7.5199367,-0.9097 1.722091,-0.5079 0.18679,-0.1767 2.671196,-1.0814 0.597201,0.9082 -0.861101,0.9858 -0.685255,1.605 0.03434,0.1209 -0.327617,-0.038 -0.61694,0.062 -0.865674,0.2991 -2.091134,0.6812 -3.749561,1.3022 -3.2300153,1.2094 -3.9358581,0.6601 -5.6976796,-0.3985 z"
       id="path3646-1"
       inkscape:connector-curvature="0"
       sodipodi:nodetypes="ccscssscc" />
    <path
       style="fill:#000000"
       d="M 19.53125,8.78125 C 14.720794,8.95225 11.777896,10.2257 8.25,13.1875 c -0.2504878,0.1972 -0.4614403,0.66825 -0.4375,1.09375 0.023626,0.4201 0.022938,0.56325 0.15625,0.84375 -0.2526641,0.3134 -2.747318,3.21005 -3.6875,4.53125 -0.7320894,1.0287 -0.9883759,1.8196 -0.84375,2.1875 0.1624746,0.6161 1.0084471,1.85365 1.6875,2.65625 0.6452273,0.7626 1.3647761,1.5372 2.25,2 0.5557965,0.2906 1.1853701,0.4459 1.8125,0.4375 2.500404,-0.033 5.222457,-2.4912 7.25,-1.9375 1.145754,0.2782 1.522977,0.95455 1.96875,1.78125 0.642992,1.1779 1.35319,2.2728 1.59375,4.3125 0.305643,2.5917 0.387913,6.62175 0.375,6.90625 L 21,38 c 0,0 -0.230977,-4.23715 -0.59375,-6.96875 -0.253158,-1.9065 -0.98111,-3.1796 -1.28125,-4.125 0.525847,-0.6882 0.645566,-0.87215 1.5625,-1.21875 -0.850002,-0.06 -2.031727,-0.1547 -2.96875,-0.5625 C 17.27856,24.9298 17.045817,24.6373 16.125,24.5625 14.588604,24.429213 11.740181,26.02395 9.5,26.46875 7.9048641,26.69825 6.8856107,25.8871 5.75,24.9375 L 5.53125,24.71875 c 0.8153149,0.5269 1.197558,0.4788 0.59375,-0.125 -0.7424337,-0.7424 -0.7101046,-1.6817 0.125,-2.4375 0.3822769,-0.346 0.6875,-0.8383 0.6875,-1.125 0,-0.1429 -0.039364,-0.36735 -0.09375,-0.34375 -0.085624,0.038 -0.2548306,0.1479 -0.65625,0.5 -0.4717357,0.4137 -0.6251149,0.4508 -0.4375,0.125 0.2581173,-0.4482 0.1892521,-0.43825 -0.3125,-0.03125 -0.3209657,0.2603 -0.8167977,0.3562 -1.09375,0.25 -0.4248825,-0.1631 -0.5042302,-0.59545 0.21875,-1.59375 0.5361814,-0.7458 0.8477179,-1.1835 1.34375,-1.75 0.49604,-0.5664 1.9138215,-2.22705 2.5,-3.03125 0.2757952,-0.3782 0.4506316,-0.4151 0.5,-0.6875 0.049353,-0.2724 -0.015339,-0.409 0.03125,-0.8125 0.046281,-0.4034 0.2142719,-0.5401 0.59375,-0.625 0.322365,-0.091 0.53125,-0.24575 0.53125,-0.46875 0,-0.2229 0.08958,-0.28535 0.21875,-0.15625 0.129176,0.1292 0.368265,-0.30145 0.8125,-0.71875 0.444244,-0.4174 1.125744,-0.4481 1.125,-0.3125 0.412261,0.3044 1.152983,-0.6407 1.5,-0.125 0.115543,0.1869 0.660994,0.2525 1.21875,0.1875 0.487836,-0.076 1.173648,-0.23185 1.3125,-0.34375 -0.03633,-0.1912 -0.663272,-0.031 -1.25,0 -0.777709,0.036 -1.009531,-0.05595 -0.875,-0.40625 0.101482,-0.2646 0.367547,-0.42555 0.5,-0.34375 0.316103,0.1953 1.241644,-0.28955 1,-0.53125 0.721251,-0.2221 2.292412,-0.50805 2.59375,-0.40625 0.252025,0.7916 0.81784,0.5064 1.34375,0 0.322568,-0.011 0.624204,0 0.9375,0 -0.09415,0.8752 0.901691,0.53775 0.40625,-0.03125 0.602069,-0.016 1.201516,0.0105 1.75,0.0625 -0.06125,0.081 -0.0625,0.23905 -0.0625,0.34375 0,0.2708 0.179282,0.41935 0.40625,0.34375 0.34345,-0.1145 0.502078,-0.33355 0.5,-0.53125 0.216789,0.022 0.438631,0.071 0.625,0.125 -0.09549,0.123 0.251498,0.34365 0.0625,0.46875 -0.736826,0.4877 0.974445,0.31255 0.90625,-0.40625 0.345372,0.032 0.708731,0.1786 1.09375,0.375 -1.404763,0.3851 -3.091119,1.6849 -2.15625,3.625 -0.120054,0.1943 -0.386287,0.28445 -0.59375,0.15625 -0.21438,-0.1325 -0.286752,-0.087 -0.15625,0.125 0.126295,0.2043 0.24002,0.2157 0,0.3125 -0.51499,0.04631 1.525155,3.279525 2.152343,4.765625 1.974408,1.1168 1.845492,-1.027075 2.441407,-1.421875 0.654073,-0.7302 1.244718,-1.4125 1.71875,-2.125 1.349977,0.7376 2.622508,1.8183 3.1875,3.125 0.101174,0.4298 0.04823,0.86165 -0.125,0.96875 -0.547359,0.3382 -0.309075,0.84375 0.375,0.84375 0.427125,-0.011 0.670975,-0.3994 1.0625,-0.3125 0.24688,0.131844 0.301396,0.201733 0.34375,0.5625 0.09706,0.1901 -0.602167,0.82635 -1.6875,0.65625 -0.930446,-0.069 -1.45454,0.095 -1.71875,0.4375 -0.278846,0.5703 0.02421,1.01355 0.9375,0.65625 C 32.205864,22.38845 32.386654,21.9596 32.875,22 c 0.48833,0.04 0.586202,0.4218 0.875,0.625 0.317615,0.2234 1.362379,-0.3448 1.65625,-0.1875 0.438547,0.2774 1.235677,1.6691 1.21875,2 -0.01109,0.217 -0.945175,1.00645 -1.25,1.28125 -0.897257,0.7205 0.07973,1.10025 1.09375,0.46875 0.182031,-0.12459 0.484065,0.01021 0.4375,0.3125 -0.07994,0.518945 0.535733,0.259002 1,0.15625 0.08531,-0.0481 0.625286,0.956007 1.3125,2.21875 -0.18373,0.06786 -0.396465,0.255816 -0.4375,0.4375 -0.160558,0.7109 1.130316,0.9583 1.03125,1.9375 -0.143427,0.3039 0.179399,0.74615 0.5,0.90625 0.340204,0.123225 0.642897,0.226359 0.8125,0.1875 C 42.359905,34.583234 43.724293,36.978169 44.5625,38 44.68653,38.011 44.795648,37.988 45,38 43.731336,36.3831 41.226367,31.65945 40.3125,29.90625 37.32344,24.21465 34.028832,18.9805 30.53125,13.75 30.715706,13.2482 30.863426,12.72645 30.9375,12.15625 31.03414,10.11015 28.359478,9.9162 27.125,10 25.126119,8.9161 22.278345,8.81285 19.53125,8.78125 z M 14.6875,13.4375 c -0.530863,0.03271 -1.768835,0.352 -2.34375,0.34375 -0.461442,-0.0041 -0.402049,1.14375 -0.53125,1.65625 -2.4301666,1.972 -2.7307413,3.18475 -2.25,4.84375 0.2492655,0.8601 0.8843,3.1686 0.875,3.625 C 10.4283,24.36255 10.313765,24.7044 10,24.9375 9.686236,25.1706 8.78125,25.0625 8.78125,25.0625 8.2326938,25.0137 7.3290466,24.84375 7.1875,24.84375 c -0.5309675,-0.0069 -0.678176,0.0875 -0.65625,0.1875 0.013544,0.0617 0.098589,0.2555 0.5,0.3125 1.2224543,0.2775 2.5010277,0.65695 3.90625,0.21875 0.573309,-0.1563 2.870881,-1.51075 4.34375,-1.78125 0.09557,-0.0175 -0.06734,-0.16885 -0.34375,-0.34375 -0.29671,-0.1906 -0.720709,-0.21415 -1.0625,-0.03125 -0.731997,0.3918 -2.282593,-1.1071 -1.875,-1.8125 0.07226,-0.1251 0.1301,-0.24625 0.125,-0.28125 -0.0053,-0.0355 -0.07289,0.03475 -0.15625,0.09375 -0.454977,0.3235 -1.618652,-2.3207 -1.3125,-3.4375 0.241102,-0.8795 1.244623,-2.2315 2.09375,-2 0.339429,0.0918 0.714368,0.12505 0.9375,-0.03125 0.629576,-0.4102 1.27346,-2.2673 1.25,-2.4375 0.03323,-0.07643 -0.07305,-0.0734 -0.25,-0.0625 z"
       id="path3127"
       inkscape:connector-curvature="0"
       sodipodi:nodetypes="ccccccsccccsccccccccccccscccccccccccscccccccccccccccscccccccccccccccccccccccccccsccscccccccccccccccscccccccccccscccc"
       transform="translate(0,1004.362)" />
    <path
       style="fill:#ffcc00"
       d="m 3.6806397,1026.3392 c 0.1105511,0.1733 0.5897328,0.5351 0.8020809,0.6858 0.7247881,0.5144 1.2448595,1.667 0.9633602,1.8177 -0.3350759,-0.2711 -1.4142243,-1.8696 -1.7654411,-2.5035 z"
       id="path3125"
       inkscape:connector-curvature="0"
       sodipodi:nodetypes="cccc" />
    <path
       style="fill:#000000"
       d="m 32.569552,1027.2793 c -0.01522,0.2526 -0.05153,0.3197 -0.274395,0.1819 -0.220658,-0.1363 -0.317641,-0.077 -0.296605,0.1187 0.01844,0.1729 0.06376,0.3792 0.273385,0.7647 0.239241,0.4397 0.893931,0.8905 0.670338,0.036 -0.187891,-0.748 0.785468,-0.3073 0.675773,-0.9664 -0.19755,-0.3514 -0.54553,0.1692 -0.685482,-0.178 -0.134768,-0.2313 -0.387512,-0.2513 -0.363014,0.044 z"
       id="path3123"
       inkscape:connector-curvature="0"
       sodipodi:nodetypes="cssscccc" />
    <path
       style="fill:#000000"
       d="m 29.97499,1029.7314 c 0,-0.6698 0.79008,-1.2287 1.182349,-0.8364 0.37887,0.3789 0.215988,0.7581 -0.487302,1.1344 -0.583347,0.3122 -0.695047,0.2643 -0.695047,-0.298 z"
       id="path3688"
       inkscape:connector-curvature="0" />
    <path
       style="fill:#000000"
       d="m 11.188048,1018.2444 c 0.406639,-1.2388 1.432984,-1.7361 2.514902,-2.036 0.100749,0.092 -0.320926,0.398 -0.431266,0.6801 -0.956627,0.2881 -1.951878,1.5065 -2.083636,1.3559 z"
       id="path3686"
       inkscape:connector-curvature="0"
       sodipodi:nodetypes="ccccc" />
    <path
       style="fill:#000000"
       d="m 15.494932,1018.0122 c 0.296556,-0.5375 0.673396,0.7887 0.671753,1.1709 -0.04733,0.8144 -0.812814,-0.3889 -0.849481,-0.7469 -0.0085,-0.1309 0.177728,-0.424 0.177728,-0.424 z"
       id="path3682"
       inkscape:connector-curvature="0"
       sodipodi:nodetypes="sccs" />
    <path
       style="fill:#ffdd55"
       d="m 11.273342,1027.7836 c 0.0099,-0.058 0.66892,-0.1527 0.728668,-0.2116 -0.01416,-0.04 -0.195038,-0.017 -0.445744,-0.01 -0.583307,0.029 -0.812785,0.2253 -0.387942,0.4466 0.272629,0.1566 0.768864,0.2502 0.823816,0.2297 -0.262748,-0.093 -0.770821,-0.3781 -0.718798,-0.457 z"
       id="path3680"
       inkscape:connector-curvature="0"
       sodipodi:nodetypes="ccccccc" />
    <path
       style="fill:#000000"
       d="m 23.211595,1028.7748 c -0.111886,-0.2917 -0.04798,-0.5301 0.142105,-0.5301 0.191021,0 0.199719,-0.547 -0.291152,-0.9077 -0.55159,-0.4055 -0.359403,-1.0858 0.655007,-0.937 0.944692,0.1387 1.487448,1.1496 0.621704,1.1496 -0.211588,0 -0.299072,0.2232 -0.19442,0.496 0.104651,0.2726 0.112898,0.6388 -0.13623,0.8533 -0.247187,0.2129 -0.644748,0.2727 -0.797014,-0.1241 z"
       id="path3676"
       inkscape:connector-curvature="0"
       sodipodi:nodetypes="ssssscss" />
    <path
       style="fill:#000000"
       d="m 21.196821,1027.7448 c 0.327462,-0.6119 0.473976,-0.6708 0.716487,-0.2878 0.50608,0.7991 0.366112,1.9294 -0.238927,1.9294 -0.910712,-0.082 -0.75143,-1.1103 -0.47756,-1.6416 z"
       id="path3672"
       inkscape:connector-curvature="0"
       sodipodi:nodetypes="cscc" />
    <path
       style="fill:#000000"
       d="m 33.353996,1029.2541 c 0,-0.2866 0.129456,-0.5212 0.416166,-0.5212 0.286702,0 0.444829,0.2346 0.444829,0.5212 0,0.2867 0.02345,0.5405 -0.26325,0.5405 -0.28671,0 -0.597745,-0.2538 -0.597745,-0.5405 z"
       id="path3668"
       inkscape:connector-curvature="0"
       sodipodi:nodetypes="sssss" />
    <path
       style="fill:#000000"
       d="m 34.622184,1028.7043 c -0.07645,-0.8132 0.598986,-0.9467 0.796763,-0.1903 0.117129,0.4477 0.0087,0.691 -0.308012,0.691 -0.268814,0 -0.46298,-0.2266 -0.488751,-0.5007 z"
       id="path3666"
       inkscape:connector-curvature="0"
       sodipodi:nodetypes="scss" />
    <path
       style="fill:#000000"
       d="m 18.16812,1027.7092 c -0.584504,-0.7824 -0.289647,-1.4356 0.540281,-1.3196 0.558256,0.077 0.74321,-0.082 0.747029,-0.5335 -0.104895,-0.4328 0.135,-0.5522 0.39743,-0.1374 0.175601,0.2775 0.211077,0.6782 0.05404,0.8234 -0.210022,0.1942 -0.104672,0.2394 0.209097,0.098 0.503085,-0.3111 0.907305,0.4412 0.475197,0.8734 -0.221094,0.221 -0.561477,0.1767 -0.909109,-0.171 -0.889407,-0.9198 -0.424381,0.1085 -0.589836,0.5134 -0.122338,0.2994 -0.652344,0.147 -0.924134,-0.1466 z"
       id="path3664"
       inkscape:connector-curvature="0"
       sodipodi:nodetypes="cscsscscscc" />
    <path
       style="fill:#000000"
       d="m 23.516363,1024.4394 c -0.137322,-0.2921 0.02515,-0.6035 0.345331,-0.6035 0.341078,0 0.63722,0.3278 0.330408,0.6951 -0.403741,0.4833 -0.02712,0.6949 0.380068,0.6949 0.308999,0 0.546926,0.1625 0.561809,0.3598 0.04954,0.6568 0.248976,0.4497 0.695046,-0.012 0.301272,-0.3118 0.467067,-0.2505 0.724012,-0.2727 0.899005,-0.078 0.954539,1.4547 0.135276,1.4967 -0.218319,0.012 -0.325068,-0.045 -0.582328,-0.3016 -0.257251,-0.2572 -0.807895,-0.4158 -1.223643,-0.3523 -0.846518,0.075 -1.399092,-0.3906 -1.119814,-0.7387 0.296084,-0.5566 -0.06936,-0.6146 -0.246165,-0.9657 z m -2.22829,-0.5395 c -0.858104,-1.132 -1.26924,-2.7643 -0.590821,-2.5041 0.246235,0.094 0.352423,0.43 0.237899,0.7503 -0.113949,0.3187 -0.08219,0.4663 0.07062,0.328 0.269218,-0.2436 1.378386,1.3618 1.794377,2.5972 0.226702,0.8208 -0.109612,0.8037 -0.360739,0.6314 -0.399663,-0.6446 -0.770576,-1.2288 -1.151336,-1.8028 z"
       id="path3662"
       inkscape:connector-curvature="0"
       sodipodi:nodetypes="cssssssssccccsccccc" />
    <path
       id="path3660"
       style="fill:#000000"
       d="m 7.3896366,1026.704 c 1.3485604,0.054 1.6090302,-0.2519 1.6090302,-0.2519 0,0 0.2197772,-0.4826 0.3603285,-0.1167 0.1389418,0.362 -0.1783915,0.4976 -1.2548414,0.5361 -1.0603978,0.039 -1.7260591,-0.087 -1.1207673,-0.1446 z"
       inkscape:connector-curvature="0"
       sodipodi:nodetypes="cccccc" />
    <path
       style="fill:#000000"
       d="m 16.782371,1026.2296 c -0.01504,-0.3663 0.137372,-0.5715 0.25283,-0.456 0.618007,0.6251 -0.153402,1.2084 -0.25283,0.456 z"
       id="path3656"
       inkscape:connector-curvature="0"
       sodipodi:nodetypes="ccc" />
    <path
       style="fill:#000000"
       d="m 29.226116,1023.701 c -0.304033,-1.6053 0.635661,-1.4837 0.960559,-0.2804 0.126918,0.8016 0.81398,1.311 0.745337,1.6721 -0.162258,0.8535 -1.411646,0.5119 -1.705896,-1.3917 z"
       id="path3654"
       inkscape:connector-curvature="0"
       sodipodi:nodetypes="ccsc" />
    <path
       style="fill:#000000"
       d="m 20.800709,1025.5455 c -0.238733,-0.3823 -0.307624,-0.6951 -0.153093,-0.6951 0.362034,0 1.11501,0.751 1.11501,1.1121 0,0.5121 -0.523419,0.2852 -0.961917,-0.417 z"
       id="path3650"
       inkscape:connector-curvature="0" />
    <path
       style="fill:#000000"
       d="m 17.937463,1024.8226 c -0.09822,-0.2558 -0.09588,-0.548 0.0049,-0.6492 0.246143,-0.2461 1.158408,0.1188 1.158408,0.4634 0.01119,0.7446 -1.086104,0.5567 -1.163308,0.1858 z"
       id="path3646"
       inkscape:connector-curvature="0"
       sodipodi:nodetypes="cccc" />
    <path
       style="fill:#000000"
       d="m 30.916884,1024.0113 c 0,-0.1529 0.182533,-0.4606 0.405634,-0.6836 0.309162,-0.3092 0.267843,-0.4585 -0.173763,-0.628 -0.318669,-0.1222 -0.579399,-0.4401 -0.579399,-0.7064 0,-0.5748 0.178756,-0.5988 1.036466,-0.1398 0.555677,0.2973 0.589504,0.4866 0.248481,1.39 -0.36205,0.9592 -0.937419,1.4305 -0.937419,0.7678 z"
       id="path3640"
       inkscape:connector-curvature="0" />
    <path
       style="fill:#000000"
       d="m 18.837227,1021.2049 c 0.218458,-0.045 0.355181,0.169 0.30383,0.4736 -0.05137,0.3045 0.12899,0.9063 0.400764,1.3372 0.537175,0.8516 1.172317,1.5754 0.432561,1.0646 -0.644901,-0.6541 -1.70182,-2.6982 -1.137155,-2.8754 z"
       id="path3880"
       inkscape:connector-curvature="0"
       sodipodi:nodetypes="ccccc" />
    <path
       style="fill:#000000"
       d="m 17.41232,1022.5499 c 0.324365,0.6467 0.297276,0.7821 -0.156466,0.7819 -0.301807,-2e-4 -0.503758,-0.1958 -0.448766,-0.4347 0.05502,-0.2388 -0.05534,-0.4344 -0.245188,-0.4344 -0.18984,-1e-4 -0.306128,0.1171 -0.258417,0.2605 0.17158,0.5156 -0.538685,0.2479 -0.740621,-0.2791 -0.113682,-0.2967 -0.06295,-0.4505 0.112743,-0.3418 0.175681,0.1087 0.373935,-0.083 0.53363,-0.2261 0.520919,-0.3895 0.857782,0.1905 1.203076,0.6737 z"
       id="path3638"
       inkscape:connector-curvature="0"
       sodipodi:nodetypes="cccccscccc" />
    <path
       style="fill:#000000"
       d="m 27.85029,1023.9056 c 0,-0.1912 0.137271,-0.3763 0.328413,-0.3763 0.191135,0 0.34752,0.1564 0.34752,0.3476 0,0.1911 -0.0035,0.4909 -0.194611,0.4909 -0.191142,0 -0.481322,-0.2711 -0.481322,-0.4622 z"
       id="path3636"
       inkscape:connector-curvature="0"
       sodipodi:nodetypes="sssss" />
    <path
       style="fill:#000000"
       d="m 22.516856,1022.855 c -0.103948,-0.271 0.01796,-0.572 0.271006,-0.6692 0.314048,-0.1205 0.435744,0.099 0.316302,0.5551 -0.208813,0.7985 -0.336844,0.7668 -0.587308,0.1141 z"
       id="path3634"
       inkscape:connector-curvature="0"
       sodipodi:nodetypes="cccc" />
    <path
       style="fill:#000000"
       d="m 15.33553,1020.5709 c 0.310074,0.4965 0.290027,0.8489 -0.09436,0.8489 -0.784003,-0.028 -0.172485,-1.4055 0.09436,-0.8489 z"
       id="path3628"
       inkscape:connector-curvature="0"
       sodipodi:nodetypes="ccc" />
    <path
       style="fill:#000000"
       d="m 22.923842,1020.8141 c -0.204581,-0.3822 -0.29378,-0.6951 -0.198214,-0.6951 0.09557,0 0.341153,0.3129 0.545742,0.6951 0.204589,0.3823 0.293788,0.6951 0.198213,0.6951 -0.09557,0 -0.341152,-0.3128 -0.545741,-0.6951 z"
       id="path3626"
       inkscape:connector-curvature="0" />
    <path
       style="fill:#000000"
       d="m 20.729608,1019.9202 c -0.557376,-0.4461 -0.862686,-0.904 -0.678454,-1.018 0.429503,-0.2655 0.884685,0.068 1.434172,1.0504 0.5435,0.9716 0.496688,0.9697 -0.755718,-0.032 z"
       id="path3624"
       inkscape:connector-curvature="0" />
    <path
       style="fill:#000000"
       d="m 17.180627,1019.1358 c -0.422439,-0.5089 -0.182656,-0.9198 0.536817,-0.9198 0.517698,0 0.634359,0.8958 0.155212,1.1918 -0.169476,0.1054 -0.480895,-0.018 -0.692029,-0.272 z"
       id="path3622"
       inkscape:connector-curvature="0" />
    <path
       style="fill:#000000"
       d="m 18.406043,1020.487 c 0,-0.1798 0.154596,-0.4224 0.343547,-0.5393 0.196992,-0.1218 0.255253,0.018 0.136579,0.327 -0.23103,0.6021 -0.480126,0.7122 -0.480126,0.2123 z"
       id="path3620"
       inkscape:connector-curvature="0" />
    <path
       style="fill:#000000"
       d="m 9.7361842,1019.3566 c 0.138537,-0.276 0.7150468,-0.7249 0.9617238,-0.6628 0.01796,0.035 -0.516243,0.2719 -0.52655,0.7 -0.0073,0.2945 -0.4966308,0.527 -0.5638558,0.4879 -0.04976,-0.029 0.05987,-0.3881 0.128682,-0.5251 z"
       id="path3616"
       inkscape:connector-curvature="0"
       sodipodi:nodetypes="ccsssc" />
    <path
       style="fill:#000000"
       d="m 18.753561,1018.0305 c 0,-0.2025 0.156386,-0.368 0.347529,-0.368 0.191134,0 0.347527,0.069 0.347527,0.1533 0,0.084 -0.156393,0.2499 -0.347527,0.3681 -0.191143,0.118 -0.347529,0.049 -0.347529,-0.1534 z"
       id="path3610"
       inkscape:connector-curvature="0" />
    <path
       style="fill:#000000"
       d="m 14.759513,1016.6477 c -0.121756,-0.197 0.01771,-0.2551 0.32701,-0.1365 0.602052,0.231 0.712207,0.4802 0.212324,0.4802 -0.179864,0 -0.422562,-0.1546 -0.539334,-0.3437 z"
       id="path3606"
       inkscape:connector-curvature="0" />
    <path
       style="fill:#000000"
       d="m 19.439443,1016.5679 c 0.282495,-0.1182 0.382342,-0.3001 0.01762,-0.4062 -0.201071,-0.056 -0.307195,-0.279 0.116822,-0.2981 0.334494,-0.015 0.60817,0.2071 0.60817,0.4937 0,0.2868 -0.273676,0.519 -0.60817,0.5162 -0.475951,-0.011 -0.323099,-0.2582 -0.134442,-0.3056 z"
       id="path3604"
       inkscape:connector-curvature="0"
       sodipodi:nodetypes="cccscc" />
    <path
       style="fill:#000000"
       d="m 21.975978,1015.4384 c -0.118132,-0.1913 0.02896,-0.3477 0.327009,-0.3477 0.297988,0 0.541802,0.1564 0.541802,0.3477 0,0.191 -0.147163,0.3474 -0.327011,0.3474 -0.179863,0 -0.423668,-0.1564 -0.5418,-0.3474 z"
       id="path3602"
       inkscape:connector-curvature="0" />
    <path
       style="fill:#000000"
       d="m 17.110651,1015.9213 c 0.118132,-0.1911 0.440125,-0.3475 0.715557,-0.3475 0.275422,0 0.500773,0.1564 0.500773,0.3475 0,0.1912 -0.322002,0.3475 -0.715557,0.3475 -0.393555,0 -0.618906,-0.1563 -0.500773,-0.3475 z"
       id="path3600"
       inkscape:connector-curvature="0" />
    <path
       style="fill:#000000"
       d="m 19.398496,1014.9515 c 0.238157,-0.3853 1.17174,-0.3451 1.17174,0.05 0,0.1793 -0.301927,0.3033 -0.670959,0.2754 -0.423532,0.045 -0.577437,-0.2632 -0.500781,-0.3254 z"
       id="path3598"
       inkscape:connector-curvature="0"
       sodipodi:nodetypes="cscc" />
    <path
       style="fill:#000000"
       d="m 16.849642,1014.6656 c 0.339078,-0.2072 0.852997,-0.401 1.142166,-0.3417 0.490959,0.1 0.180479,0.5626 -0.317495,0.4725 -0.125447,-0.023 -0.486914,0.053 -0.803308,0.1698 -0.549965,0.1475 -0.156587,-0.218 -0.02136,-0.3006 z"
       id="path3596"
       inkscape:connector-curvature="0"
       sodipodi:nodetypes="scccs" />
    <path
       id="path3660-1"
       style="fill:#000000"
       d="m 6.9359314,1027.8383 c 0.7252816,0.085 2.5542464,-0.3652 2.7221126,-0.08 -0.20481,0.159 -0.8842625,0.2638 -1.9607123,0.3023 -1.0603979,0.039 -1.3118017,-0.2872 -0.7614003,-0.2225 z"
       inkscape:connector-curvature="0"
       sodipodi:nodetypes="ccssc" />
    <path
       style="fill:#000000"
       d="m 27.866791,1027.3553 c -0.403255,-0.5453 -0.179289,-1.6703 0.332543,-1.6703 0.700751,0 0.868747,0.2846 0.695849,1.1787 -0.143254,0.7408 -0.661082,0.9883 -1.028392,0.4916 z"
       id="path3720-1"
       inkscape:connector-curvature="0" />
    <path
       inkscape:connector-curvature="0"
       style="fill:#000000"
       d="m 14.843754,1025.6295 c -0.111983,-0.3698 -0.02152,-0.7595 0.208861,-0.9421 0.47409,-0.3755 0.834327,0.5549 0.401783,1.1029 -0.205164,0.2599 -0.479445,0.2724 -0.610644,-0.1608 z"
       id="path3710-7"
       sodipodi:nodetypes="cssc" />
    <path
       style="fill:url(#linearGradient3898);fill-opacity:1;stroke:none"
       d="m 23.152007,1019.1986 c 0.914935,0.033 1.710601,-0.9267 1.39034,-1.7292 -0.508738,-1.2747 0.319938,-2.2059 2.586454,-2.1475 1.273117,0.033 1.632031,0.4102 1.376279,1.3882 -0.257241,0.9837 -0.8265,1.0037 -1.079667,0.036 -0.178502,-0.6827 -0.244985,-0.6546 -0.854242,0.4271 -0.364799,0.6476 -0.585391,0.9097 -0.486443,0.5813 0.237069,-0.7867 -0.195094,-1.0138 -0.759326,-0.4034 -0.246459,0.2667 -0.292796,0.4865 -0.106781,0.4865 0.53389,0 0.08068,1.7464 -0.759326,2.9186 -0.491144,1.2085 0.845944,0.7219 0.510173,0.5155 -0.112392,-0.069 -0.350623,-0.1235 -0.225425,-0.3256 0.143858,-0.2328 0.398638,-0.1365 0.700003,0.261 0.439062,0.5791 0.488133,0.5736 0.498308,0.024 0.0076,-0.4105 0.187345,-0.5308 0.581359,-0.3796 0.482423,0.1851 0.531024,0.069 0.320341,-0.7831 -0.164576,-0.6657 -0.12994,-0.8928 0.09492,-0.6644 0.139473,0.1417 0.536468,1.4572 0.731599,1.1061 0.321799,-1.2455 0.963384,-3.0281 1.641295,-3.0281 0.274588,0 0.40288,-0.153 0.284747,-0.3441 -0.118128,-0.1912 -0.06588,-0.3441 0.118645,-0.3441 0.924874,-1.2649 -0.800912,-1.8487 -2.010164,-2.0083 0.172557,-0.097 1.359289,0.094 1.844061,0.3117 2.562912,1.0517 -1.48804,6.7964 -2.645777,6.822 -0.237213,-0.079 -0.633798,0.064 -0.889835,0.3204 -0.256037,0.256 -0.607328,0.3815 -0.783055,0.2729 -0.175731,-0.1086 -0.308951,0 -0.172257,0.1661 0.378372,0.5953 1.575344,-0.33 1.243703,0.647 -0.401613,0.3045 -0.945657,-0.2181 -0.882052,0.1599 -0.782883,-1.408 -1.670696,-2.867 -2.267877,-4.2869 z"
       id="path3644-1"
       inkscape:connector-curvature="0"
       sodipodi:nodetypes="csssssssscssssccccsccccccccccc" />
    <path
       style="fill:#d4aa00;fill-opacity:1;stroke:none"
       d="m 13.369113,1018.4883 c 0.378665,0.2867 0.428974,0.9896 0.02688,1.3333 -0.252255,0.2157 -0.534405,0.1097 -0.648634,-0.3292 -0.14344,-0.5512 0.09519,-0.9775 0.337594,-1.026 0.084,0.3584 0.06192,1.0262 0.07486,1.2316 0.139714,-0.3057 0.199296,-0.9517 0.209298,-1.2097 z"
       id="path3151"
       inkscape:connector-curvature="0"
       sodipodi:nodetypes="cssccc" />
    <path
       style="fill:#ffcc00;fill-opacity:1;stroke:none"
       d="m 12.88971,1018.9274 c -5.36e-4,-0.081 0.02116,-0.1738 0.06229,-0.1913 0.03179,-0.014 0.06408,0.019 0.06468,0.1 6.74e-4,0.08 -0.02117,0.1739 -0.06229,0.1913 -0.03179,0.014 -0.06515,-0.022 -0.06469,-0.1 z"
       id="path3154"
       inkscape:connector-curvature="0"
       sodipodi:nodetypes="casac" />
    <path
       inkscape:connector-curvature="0"
       style="fill:#000000;display:inline"
       d="m 40.500942,1041.4318 c -0.111983,-0.3698 -0.02152,-0.7595 0.208861,-0.9421 0.47409,-0.3755 0.834327,0.5549 0.401784,1.1029 -0.205165,0.2599 -0.479446,0.2724 -0.610645,-0.1608 z"
       id="path3710-7-1"
       sodipodi:nodetypes="cssc" />
    <path
       style="fill:#000000;display:inline"
       d="m 30.146108,1041.21 c -0.103948,-0.2709 0.01796,-0.572 0.271006,-0.6691 0.314048,-0.1205 0.404495,0.036 0.285052,0.4925 -0.208813,0.7985 -0.305593,0.8293 -0.556058,0.1766 z"
       id="path3634-7"
       inkscape:connector-curvature="0" />
    <path
       style="fill:#000000;display:inline"
       d="m 34.489501,1041.1159 c -0.345881,-0.1082 -0.357192,0.1737 -0.208475,0.3088 0.309334,0.2067 0.0977,0.4267 -0.27392,0.2216 -0.293047,-0.1619 -0.410536,-0.4941 -0.260869,-0.7386 0.149724,-0.2445 0.504373,-0.2996 0.788148,-0.1225 0.400365,0.2575 0.176965,0.4 -0.04488,0.3307 z"
       id="path3604-4"
       inkscape:connector-curvature="0"
       sodipodi:nodetypes="cccscc" />
    <path
       style="fill:#000000;display:inline"
       d="m 28.379487,1033.2828 c 0.248319,0.013 0.336849,0.1934 0.196678,0.4007 -0.0072,0.1977 0.192944,0.1759 0.291219,0.1416 0.344754,-0.142 0.539781,-0.037 0.400691,0.1692 -0.293186,0.6131 -0.977605,0.9303 -1.279487,-0.01 -0.019,-0.2784 0.06763,-0.6362 0.390899,-0.7015 z"
       id="path3730-1"
       inkscape:connector-curvature="0"
       sodipodi:nodetypes="cccccc" />
    <path
       style="fill:#000000;display:inline"
       d="m 28.230056,1039.4394 c -0.325874,0.1585 -0.140701,0.3714 0.06018,0.3677 0.366863,-0.062 0.363825,0.2434 -0.04725,0.3491 -0.324277,0.083 -0.637666,-0.078 -0.696521,-0.3584 -0.05881,-0.2806 0.161405,-0.564 0.489365,-0.6298 0.467943,-0.087 0.403175,0.1696 0.19423,0.2714 z"
       id="path3604-4-7"
       inkscape:connector-curvature="0"
       sodipodi:nodetypes="cccscc" />
  </g>
  <g
     inkscape:groupmode="layer"
     id="layer2"
     inkscape:label="Main"
     style="display:inline"
     transform="translate(0,-1004.362)" />
</svg>
