<?xml version="1.0" encoding="UTF-8" standalone="no"?>
<!-- Created with Inkscape (http://www.inkscape.org/) -->

<svg
   xmlns:osb="http://www.openswatchbook.org/uri/2009/osb"
   xmlns:dc="http://purl.org/dc/elements/1.1/"
   xmlns:cc="http://creativecommons.org/ns#"
   xmlns:rdf="http://www.w3.org/1999/02/22-rdf-syntax-ns#"
   xmlns:svg="http://www.w3.org/2000/svg"
   xmlns="http://www.w3.org/2000/svg"
   xmlns:xlink="http://www.w3.org/1999/xlink"
   xmlns:sodipodi="http://sodipodi.sourceforge.net/DTD/sodipodi-0.dtd"
   xmlns:inkscape="http://www.inkscape.org/namespaces/inkscape"
   width="48"
   height="48"
   id="svg2"
   sodipodi:version="0.32"
   inkscape:version="0.48.0 r9654"
   sodipodi:docname="head.svg"
   inkscape:output_extension="org.inkscape.output.svg.inkscape"
   version="1.1"
   inkscape:export-filename="W:\home\pictures\cliparts\lazarus-logo\head.png"
   inkscape:export-xdpi="391.15384"
   inkscape:export-ydpi="391.15384">
  <title
     id="title3059">Cheetah Head</title>
  <defs
     id="defs4">
    <linearGradient
       id="linearGradient4038">
      <stop
         style="stop-color:#930a0a;stop-opacity:0.54867256;"
         offset="0"
         id="stop4040" />
      <stop
         id="stop4042"
         offset="0.80422217"
         style="stop-color:#920000;stop-opacity:0.16814159;" />
      <stop
         style="stop-color:#ffffff;stop-opacity:0;"
         offset="1"
         id="stop4044" />
    </linearGradient>
    <linearGradient
       id="linearGradient3985">
      <stop
         style="stop-color:#ffffff;stop-opacity:0.61061949;"
         offset="0"
         id="stop3987" />
      <stop
         id="stop3993"
         offset="0.63635844"
         style="stop-color:#ffffff;stop-opacity:0.19215686;" />
      <stop
         style="stop-color:#ffffff;stop-opacity:0;"
         offset="1"
         id="stop3989" />
    </linearGradient>
    <linearGradient
       id="linearGradient3936">
      <stop
         id="stop3938"
         offset="0"
         style="stop-color:#ffffff;stop-opacity:1;" />
      <stop
         style="stop-color:#ffffff;stop-opacity:0.49803922;"
         offset="0.53149527"
         id="stop3940" />
      <stop
         id="stop3942"
         offset="1"
         style="stop-color:#ffffff;stop-opacity:0;" />
    </linearGradient>
    <linearGradient
       id="linearGradient3890">
      <stop
         id="stop3892"
         offset="0"
         style="stop-color:#930a0a;stop-opacity:0.54867256;" />
      <stop
         style="stop-color:#920000;stop-opacity:0.16814159;"
         offset="0.54232275"
         id="stop3946" />
      <stop
         id="stop3894"
         offset="1"
         style="stop-color:#ffffff;stop-opacity:0;" />
    </linearGradient>
    <linearGradient
       id="linearGradient3892">
      <stop
         id="stop3900"
         offset="0"
         style="stop-color:#ffcc00;stop-opacity:1" />
      <stop
         style="stop-color:#ffe57f;stop-opacity:1;"
         offset="0.74942917"
         id="stop3999" />
      <stop
         style="stop-color:#ffffff;stop-opacity:1;"
         offset="1"
         id="stop3896" />
    </linearGradient>
    <linearGradient
       id="linearGradient3866"
       osb:paint="gradient">
      <stop
         style="stop-color:#ffffff;stop-opacity:0.62831861;"
         offset="0"
         id="stop3868" />
      <stop
         id="stop3897"
         offset="0.45584768"
         style="stop-color:#ffffff;stop-opacity:0.49557522;" />
      <stop
         style="stop-color:#ffffff;stop-opacity:0;"
         offset="1"
         id="stop3870" />
    </linearGradient>
    <inkscape:perspective
       sodipodi:type="inkscape:persp3d"
       inkscape:vp_x="0 : 526.18109 : 1"
       inkscape:vp_y="0 : 1000 : 0"
       inkscape:vp_z="744.09448 : 526.18109 : 1"
       inkscape:persp3d-origin="372.04724 : 350.78739 : 1"
       id="perspective10" />
    <inkscape:perspective
       id="perspective2390"
       inkscape:persp3d-origin="372.04724 : 350.78739 : 1"
       inkscape:vp_z="744.09448 : 526.18109 : 1"
       inkscape:vp_y="0 : 1000 : 0"
       inkscape:vp_x="0 : 526.18109 : 1"
       sodipodi:type="inkscape:persp3d" />
    <linearGradient
       inkscape:collect="always"
       xlink:href="#linearGradient3892"
       id="linearGradient3898"
       x1="24.59668"
       y1="1022.9152"
       x2="30.003494"
       y2="1015.5527"
       gradientUnits="userSpaceOnUse" />
    <radialGradient
       inkscape:collect="always"
       xlink:href="#linearGradient3866-7"
       id="radialGradient3882-1"
       cx="7.6006031"
       cy="1037.6024"
       fx="7.6006031"
       fy="1037.6024"
       r="8.1881008"
       gradientTransform="matrix(2.0891214,-0.42144952,0.07819655,0.38761959,-86.85943,633.49899)"
       gradientUnits="userSpaceOnUse" />
    <linearGradient
       inkscape:collect="always"
       id="linearGradient3866-7">
      <stop
         style="stop-color:#ffffff;stop-opacity:1;"
         offset="0"
         id="stop3868-4" />
      <stop
         style="stop-color:#ffffff;stop-opacity:0;"
         offset="1"
         id="stop3870-0" />
    </linearGradient>
    <linearGradient
       inkscape:collect="always"
       xlink:href="#linearGradient3890"
       id="linearGradient3882"
       x1="19.17877"
       y1="1014.2476"
       x2="19.262575"
       y2="1018.1637"
       gradientUnits="userSpaceOnUse" />
    <radialGradient
       inkscape:collect="always"
       xlink:href="#linearGradient3866-77"
       id="radialGradient3882-2"
       cx="9.8773947"
       cy="1038.7457"
       fx="9.8773947"
       fy="1038.7457"
       r="8.1881008"
       gradientTransform="matrix(1.014447,-0.28787399,0.07220969,0.25446173,-69.123168,770.20124)"
       gradientUnits="userSpaceOnUse" />
    <linearGradient
       id="linearGradient3866-77">
      <stop
         style="stop-color:#ffffff;stop-opacity:1;"
         offset="0"
         id="stop3868-1" />
      <stop
         id="stop3897-2"
         offset="0.67666399"
         style="stop-color:#ffffff;stop-opacity:0.49803922;" />
      <stop
         style="stop-color:#ffffff;stop-opacity:0;"
         offset="1"
         id="stop3870-6" />
    </linearGradient>
    <radialGradient
       inkscape:collect="always"
       xlink:href="#linearGradient3866-9"
       id="radialGradient3882-4"
       cx="9.8773947"
       cy="1038.7457"
       fx="9.8773947"
       fy="1038.7457"
       r="8.1881008"
       gradientTransform="matrix(1.2960572,-0.42335178,0.08024686,0.24566933,-80.25333,780.67247)"
       gradientUnits="userSpaceOnUse" />
    <linearGradient
       id="linearGradient3866-9">
      <stop
         style="stop-color:#ffffff;stop-opacity:0.07964602;"
         offset="0"
         id="stop3868-46" />
      <stop
         id="stop3897-0"
         offset="0.36873978"
         style="stop-color:#ffffff;stop-opacity:0.49557522;" />
      <stop
         style="stop-color:#ffffff;stop-opacity:0;"
         offset="1"
         id="stop3870-3" />
    </linearGradient>
    <linearGradient
       inkscape:collect="always"
       xlink:href="#linearGradient3985"
       id="linearGradient3991"
       x1="20.743263"
       y1="1038.0232"
       x2="25.196302"
       y2="1034.7664"
       gradientUnits="userSpaceOnUse" />
    <linearGradient
       inkscape:collect="always"
       xlink:href="#linearGradient3866"
       id="linearGradient3995"
       x1="13.48166"
       y1="1031.3344"
       x2="13.371014"
       y2="1030.3925"
       gradientUnits="userSpaceOnUse" />
    <linearGradient
       inkscape:collect="always"
       xlink:href="#linearGradient3890-4"
       id="linearGradient3882-2"
       x1="19.17877"
       y1="1014.2476"
       x2="19.262575"
       y2="1018.1637"
       gradientUnits="userSpaceOnUse" />
    <linearGradient
       id="linearGradient3890-4">
      <stop
         id="stop3892-5"
         offset="0"
         style="stop-color:#930a0a;stop-opacity:0.54867256;" />
      <stop
         style="stop-color:#920000;stop-opacity:0.16814159;"
         offset="0.54232275"
         id="stop3946-8" />
      <stop
         id="stop3894-8"
         offset="1"
         style="stop-color:#ffffff;stop-opacity:0;" />
    </linearGradient>
    <linearGradient
       gradientTransform="matrix(1.084741,1.4752314,-1.7063526,0.93781557,1750.1259,48.171145)"
       y2="1018.1637"
       x2="19.262575"
       y1="1014.1828"
       x1="19.500187"
       gradientUnits="userSpaceOnUse"
       id="linearGradient4017"
       xlink:href="#linearGradient4038"
       inkscape:collect="always" />
  </defs>
  <sodipodi:namedview
     id="base"
     pagecolor="#ffffff"
     bordercolor="#666666"
     borderopacity="1.0"
     gridtolerance="10000"
     guidetolerance="10"
     objecttolerance="10"
     inkscape:pageopacity="0.0"
     inkscape:pageshadow="2"
     inkscape:zoom="21.798777"
     inkscape:cx="24.5744"
     inkscape:cy="22.982839"
     inkscape:document-units="px"
     inkscape:current-layer="layer1"
     showgrid="false"
     inkscape:window-width="1440"
     inkscape:window-height="844"
     inkscape:window-x="-4"
     inkscape:window-y="-4"
     inkscape:window-maximized="1"
     showguides="true">
    <inkscape:grid
       type="xygrid"
       id="grid3876"
       empspacing="5"
       visible="true"
       enabled="true"
       snapvisiblegridlinesonly="true" />
  </sodipodi:namedview>
  <metadata
     id="metadata7">
    <rdf:RDF>
      <cc:Work
         rdf:about="">
        <dc:format>image/svg+xml</dc:format>
        <dc:type
           rdf:resource="http://purl.org/dc/dcmitype/StillImage" />
        <dc:title>Cheetah Head</dc:title>
        <cc:license
           rdf:resource="http://creativecommons.org/licenses/by-nd/3.0/" />
        <dc:creator>
          <cc:Agent>
            <dc:title>Zaher Dirkey</dc:title>
          </cc:Agent>
        </dc:creator>
        <dc:subject>
          <rdf:Bag />
        </dc:subject>
        <dc:description>guid line based on
http://nature.ca/notebooks/english/cheetah_p1.htm</dc:description>
      </cc:Work>
      <cc:License
         rdf:about="http://creativecommons.org/licenses/by-nd/3.0/">
        <cc:permits
           rdf:resource="http://creativecommons.org/ns#Reproduction" />
        <cc:permits
           rdf:resource="http://creativecommons.org/ns#Distribution" />
        <cc:requires
           rdf:resource="http://creativecommons.org/ns#Notice" />
        <cc:requires
           rdf:resource="http://creativecommons.org/ns#Attribution" />
      </cc:License>
    </rdf:RDF>
  </metadata>
  <g
     inkscape:label="Layer 1"
     inkscape:groupmode="layer"
     id="layer1"
     style="display:inline"
     transform="translate(0,-1004.362)">
    <path
       style="fill:#ffcc00;display:inline"
       d="m 45.278338,1043.9521 c -1.268664,-1.6169 -3.799727,-6.3363 -4.713594,-8.0895 -3.025003,-5.76 -6.356291,-11.0534 -9.901016,-16.3467 -0.873211,-1.0393 -0.612049,-1.8857 -2.890564,-3.3557 -2.006402,-1.2943 -4.952245,-1.2325 -7.876543,-1.2662 l -0.357252,-0.016 c -4.810456,0.171 -7.378845,1.4246 -10.9067415,4.3864 -0.250487,0.1972 -0.3746724,0.5573 -0.3507314,0.9828 0.02363,0.4201 3.333e-4,0.5826 0.1336473,0.8631 -0.252664,0.3134 -2.7802566,3.2136 -3.7204386,4.5348 -0.732089,1.0287 -0.9427714,1.7925 -0.7981454,2.1604 0.162475,0.6161 1.0401096,2.0627 1.6155226,2.675 0.04895,0.051 0.3058006,0.3837 0.4769156,0.4974 -0.105926,0.1 1.2899449,1.2448 1.7129099,1.3872 0.460424,0.1551 0.9276715,0.5156 1.8635865,0.4969 2.348813,-0.1064 5.115807,-2.5797 7.14335,-2.026 4.448964,1.4103 4.039277,9.5997 4.104857,13.1162 8.207943,0.037 16.256545,-0.089 24.464237,-3e-4 z"
       id="path3127-0"
       inkscape:connector-curvature="0"
       sodipodi:nodetypes="cccccccccsccccccccc" />
    <path
       style="fill:url(#linearGradient3991);fill-opacity:1;stroke:none;stroke-width:0.10000000000000001;stroke-miterlimit:4;stroke-opacity:1;stroke-dasharray:none;display:inline"
       d="m 20.787433,1043.9515 c 0,0 0.294822,-0.667 0.148679,-3.6213 -0.160546,-3.2456 -1.556604,-7.0753 -1.568072,-7.6778 0.0044,-0.5806 1.48547,-1.1931 2.758074,-1.4496 5.485625,-1.2242 12.857945,12.9997 9.621831,12.6219 -1.204638,0 -0.983315,0.1258 -10.960512,0.1268 z"
       id="path3646-1-6"
       inkscape:connector-curvature="0"
       sodipodi:nodetypes="cscccc" />
    <path
       style="fill:url(#linearGradient3882);fill-opacity:1;stroke:none;display:inline"
       d="m 10.669894,1017.7567 c 1.451863,-1.2546 3.439378,-1.982 6.335645,-2.5845 7.079072,-0.9736 15.443641,0.9526 9.183436,5.0285 -1.070695,1.9026 0.533128,4.0241 -0.287872,2.6342 -0.974798,-1.6503 -5.886327,-5.8092 -9.663437,-4.5173 -3.380731,1.1563 -5.224912,0.9943 -5.567772,-0.5609 z"
       id="path3646-1-9"
       inkscape:connector-curvature="0"
       sodipodi:nodetypes="cccssc" />
    <path
       style="fill:#000000"
       d="m 40.572145,1041.1644 c -0.214169,0.05 -0.219833,-0.084 -0.03373,-0.7991 0.214298,-0.8232 1.582085,0.8313 1.601656,1.0345 0.02638,0.2349 -1.046424,-0.2756 -1.567942,-0.2354 z"
       id="path3750"
       inkscape:connector-curvature="0"
       sodipodi:nodetypes="cscc" />
    <path
       style="fill:#000000"
       d="m 23.78413,1041.9618 c 0.506298,-0.6951 0.506298,-0.6951 0.25035,0 -0.609058,2.6921 -1.832331,2.2006 -0.25035,0 z"
       id="path3748"
       inkscape:connector-curvature="0" />
    <path
       style="fill:#000000"
       d="m 28.032203,1040.6859 c 0.263723,-0.3606 0.540578,-0.4996 0.479493,-0.2527 -0.576314,2.3293 0.140237,0.047 0.521284,0.203 2.900018,1.0807 -3.810496,4.0085 -1.000777,0.049 z"
       id="path3746"
       inkscape:connector-curvature="0"
       sodipodi:nodetypes="cscc" />
    <path
       style="fill:#000000"
       d="m 37.404527,1041.0494 c -0.321418,-0.6135 -0.565829,-0.7816 -0.736058,-0.5061 -0.140171,0.2268 -0.04588,0.6701 0.209468,0.9852 0.331087,0.4084 0.339671,0.4977 0.02994,0.3116 -0.737572,-0.145 -0.348216,0.6499 -1.129452,-0.046 -0.830484,-0.7515 -0.8922,-1.2162 -0.161539,-1.2162 0.450061,0 0.465692,-0.1224 0.09993,-0.7821 -0.238464,-0.43 -0.400351,-0.8992 -0.359744,-1.0425 0.04061,-0.1434 -0.04344,-0.2422 -0.186813,-0.2196 -1.056418,0.1669 -1.456769,-0.921 -0.619327,-1.6829 0.162996,-0.1482 0.183869,-0.074 0.04636,0.1648 -0.165633,0.2879 -0.0085,0.4345 0.46557,0.4345 0.525126,0 0.715557,0.2236 0.715557,0.8404 0,1.0753 0.331758,1.9397 0.744449,1.9397 0.187031,0 0.173342,-0.2788 -0.03261,-0.6636 -0.282502,-0.5278 -0.243772,-0.6472 0.189322,-0.5838 0.671058,0.099 1.176524,0.8625 0.954143,1.4419 -0.09653,0.2516 0.120689,0.4568 0.443977,0.3791 0.293684,-0.094 1.201766,1.9086 1.029766,2.0355 -0.210043,0.1547 -1.00352,-0.481 -1.702943,-1.79 z"
       id="path3744"
       inkscape:connector-curvature="0"
       sodipodi:nodetypes="cssccssccssssscsscscc" />
    <path
       style="fill:#000000"
       d="m 39.100538,1039.6939 c -0.11318,-0.295 -0.280326,-0.4618 -0.371419,-0.3707 -0.09108,0.091 -0.06254,0.3324 0.06343,0.5364 0.342673,0.5544 0.542967,0.4467 0.307972,-0.1657 z"
       id="path3742"
       inkscape:connector-curvature="0" />
    <path
       style="fill:#000000"
       d="m 24.688936,1041.7269 c 0,-0.6284 0.186716,-0.8688 0.674536,-0.8688 2.291097,0.3989 -0.652715,2.7319 -0.674536,0.8688 z"
       id="path3740"
       inkscape:connector-curvature="0" />
    <path
       style="fill:#000000"
       d="m 25.246425,1041.2998 c -0.115479,-0.1155 -0.197616,0.09 -0.182527,0.4561 0.09365,0.8381 0.427019,-0.1883 0.182527,-0.4561 z"
       id="path3738"
       inkscape:connector-curvature="0" />
    <path
       style="fill:#000000"
       d="m 32.039879,1041.0189 c 0.225828,0 0.313943,-0.1565 0.195811,-0.3475 -0.32739,-0.5298 0.05712,-0.4146 0.67342,0.2018 0.687061,0.7807 0.458766,0.9574 0.03115,0.8896 -0.629367,-0.1 -1.690493,-0.7299 -0.900398,-0.7439 z"
       id="path3736"
       inkscape:connector-curvature="0"
       sodipodi:nodetypes="cscsc" />
    <path
       style="fill:#000000"
       d="m 22.617121,1040.4118 c 0.09191,-0.8124 0.171045,-1.7542 0.175851,-2.0927 0.06157,-1.303 0.552731,-0.6384 0.732304,-0.5274 0.179574,0.111 -0.07055,0.7062 -0.07055,1.1841 0,0.5941 0.137324,0.7913 0.434405,0.6234 0.347519,-0.1961 0.347519,-0.1515 0,0.2229 -0.238926,0.2574 -0.428531,0.6322 -0.421354,0.8329 0.0073,0.2008 0.552198,-0.2605 1.211159,-1.0252 0.658963,-0.7645 1.200432,-1.1946 1.20328,-0.9556 0.0057,0.5018 -2.613059,3.2146 -3.103596,3.2146 -0.181094,0 -0.253571,-0.663 -0.161466,-1.477 z"
       id="path3734"
       inkscape:connector-curvature="0"
       sodipodi:nodetypes="scsssssscss" />
    <path
       style="fill:#000000"
       d="m 29.750364,1039.9173 c -0.188593,-0.4952 -0.148673,-0.5351 0.194549,-0.1945 0.237502,0.2358 0.344284,0.5162 0.237276,0.6231 -0.106999,0.107 -0.301313,-0.086 -0.431825,-0.4286 z"
       id="path3732"
       inkscape:connector-curvature="0" />
    <path
       style="fill:#000000"
       d="m 33.062684,1039.8361 c -0.319444,-0.1975 -0.340383,-0.352 -0.07031,-0.519 0.211548,-0.1307 0.387027,-0.033 0.389947,0.2172 0.004,0.3307 0.09741,0.3124 0.342204,-0.065 0.20242,-0.3131 0.339008,-0.3561 0.342203,-0.1074 0.0073,0.5824 -0.467286,0.8071 -1.004062,0.4754 z"
       id="path3730"
       inkscape:connector-curvature="0" />
    <path
       style="fill:#000000"
       d="m 31.14795,1039.2892 c -0.476752,-0.3162 -1.578526,-2.5646 -1.362496,-2.7807 0.0919,-0.091 0.265699,0.09 0.386217,0.4039 0.120511,0.3141 0.418734,0.5711 0.662709,0.5711 0.243975,0 0.52621,0.43 0.627181,0.9557 0.211597,1.1015 0.182963,1.1791 -0.313611,0.85 z"
       id="path3728"
       inkscape:connector-curvature="0" />
    <path
       style="fill:#000000"
       d="m 39.928515,1038.8198 c -0.226976,-0.3636 -0.66529,-0.5802 -0.997591,-0.4934 -0.327688,0.086 -0.685062,-0.085 -0.799238,-0.3831 -0.288942,-0.753 0.178424,-0.9393 1.135108,-0.4524 0.94648,0.4818 2.045867,1.9771 1.453548,1.9771 -0.212833,0 -0.569155,-0.2918 -0.791827,-0.6482 z"
       id="path3726"
       inkscape:connector-curvature="0" />
    <path
       style="fill:#000000"
       d="m 24.986519,1037.7576 c -0.565418,-0.5653 -0.527059,-1.3205 0.06708,-1.3205 0.584309,0 1.044719,1.0428 0.639366,1.4481 -0.159175,0.1592 -0.477074,0.102 -0.706438,-0.1276 z"
       id="path3724"
       inkscape:connector-curvature="0" />
    <path
       style="fill:#000000"
       d="m 32.822488,1037.2478 c -0.22658,-0.5905 0.07791,-1.2551 0.575046,-1.2551 0.438272,0 0.419315,1.2921 -0.02298,1.5654 -0.192495,0.119 -0.440928,-0.022 -0.552085,-0.3103 z"
       id="path3722"
       inkscape:connector-curvature="0" />
    <path
       style="fill:#000000"
       d="m 27.605895,1038.1952 c -0.49167,-0.4916 -0.218601,-1.5059 0.405441,-1.5059 0.854377,0 1.0592,0.2566 0.848398,1.0628 -0.174654,0.6679 -0.80601,0.8909 -1.253839,0.4431 z"
       id="path3720"
       inkscape:connector-curvature="0" />
    <path
       style="fill:#000000"
       d="m 22.719452,1036.2655 c -0.0065,-0.7887 0.482643,-1.4727 0.456247,-1.9376 -0.01241,-0.2185 -0.591394,0.5279 -0.723466,0.439 -0.469588,-0.3162 -0.06427,-1.7431 -0.339089,-1.515 -0.467619,0.3881 -0.899442,0.1154 -0.899442,-0.4653 0,-0.1705 0.153166,-0.1773 0.40659,-0.1074 0.358829,0.099 0.508374,-0.2268 0.191806,-0.4518 0.09405,-1.0626 1.089775,-0.09 1.278223,0.4353 0.135219,0.2482 0.136757,1.3174 0.505855,1.1021 0.435156,-0.025 0.253448,0.9368 -0.175544,2.5007 -0.09711,1.0666 -0.697903,0.897 -0.70118,0 z"
       id="path3718"
       inkscape:connector-curvature="0"
       sodipodi:nodetypes="csssssccccc" />
    <path
       style="fill:#000000"
       d="m 35.018107,1035.6413 c -0.502902,-0.4624 -0.750882,-0.8746 0.172703,-0.9488 0.780816,-0.063 1.298896,0.4212 1.308605,1.2134 0.0082,0.6639 -0.723406,0.4322 -1.481308,-0.2646 z"
       id="path3716"
       inkscape:connector-curvature="0"
       sodipodi:nodetypes="ssss" />
    <path
       style="fill:#000000"
       d="m 37.431462,1036.1086 c -0.316873,-0.3168 -0.293789,-1.5085 0.02896,-1.4949 0.468863,0.021 1.621568,1.0316 1.175367,1.0316 -0.23895,0 -0.337802,0.1563 -0.21967,0.3474 0.237356,0.3841 -0.61605,0.4845 -0.984653,0.1159 z"
       id="path3714"
       inkscape:connector-curvature="0" />
    <path
       style="fill:#000000"
       d="m 25.369508,1034.1034 c 0.477974,0.085 0.390019,0.5085 0.828495,0.3938 0.456743,-0.1194 0.676754,-7e-4 0.676754,0.3643 0,0.6985 -0.455757,0.9576 -0.888237,0.551 -0.218368,-0.2054 -0.280836,-0.087 -0.682352,0.081 -1.118279,0.069 -0.973206,-1.5605 0.06538,-1.3903 z"
       id="path3712"
       inkscape:connector-curvature="0"
       sodipodi:nodetypes="cssscc" />
    <path
       style="fill:#000000"
       d="m 30.731352,1035.4945 c -0.141887,-0.3697 -0.04263,-0.7353 0.249251,-0.9177 0.600685,-0.3757 0.9033,0.6154 0.355262,1.1635 -0.259946,0.2599 -0.438281,0.1874 -0.604513,-0.2458 z"
       id="path3710"
       inkscape:connector-curvature="0" />
    <path
       style="fill:#000000"
       d="m 36.071878,1034.068 c -0.33535,-0.8739 -0.236418,-1.0995 0.173254,-0.395 0.20285,0.3489 0.295602,0.7075 0.206126,0.797 -0.08948,0.09 -0.260196,-0.091 -0.37938,-0.402 z"
       id="path3708"
       inkscape:connector-curvature="0" />
    <path
       style="fill:#000000"
       d="m 27.606519,1033.9008 c -0.107671,-0.2805 -0.07864,-0.5825 0.0644,-0.6709 0.143107,-0.088 0.282947,0.1412 0.310746,0.5101 0.06011,0.7981 -0.103693,0.8683 -0.375189,0.1608 z"
       id="path3706"
       inkscape:connector-curvature="0" />
    <path
       style="fill:#000000"
       d="m 20.546098,1033.6958 c -0.01505,-0.8708 0.06708,-1.3586 0.182528,-1.0842 0.115477,0.2746 0.285625,0.987 0.185219,1.5833 -0.110931,0.6591 -0.351095,0.4632 -0.367762,-0.4991 z"
       id="path3704"
       inkscape:connector-curvature="0"
       sodipodi:nodetypes="ccccc" />
    <path
       style="fill:#000000"
       d="m 25.350544,1033.4239 c -0.485256,-0.4852 -0.542101,-1.3123 -0.0902,-1.3123 0.175212,0 0.387156,0.1955 0.47099,0.4345 0.08383,0.2388 0.155512,0.019 0.159282,-0.4893 0.004,-0.5079 0.169136,-1.5004 0.761641,-2.088 0.14903,-0.1478 0.335634,-0.2985 0.581147,-0.303 1.711624,-0.016 0.995469,2.8689 -0.425442,1.7132 -0.508628,-0.4222 -0.542544,-0.3612 -0.332073,0.5972 0.274581,1.2502 -0.424106,2.149 -1.125342,1.4477 z"
       id="path3702"
       inkscape:connector-curvature="0"
       sodipodi:nodetypes="ssscsccss" />
    <path
       style="fill:#000000"
       d="m 29.199583,1033.2082 c -0.397431,-0.2457 -0.416671,-0.4058 -0.0882,-0.7343 0.328457,-0.3285 0.469859,-0.2905 0.648185,0.1742 0.290375,0.7568 0.08715,0.9599 -0.55998,0.5601 z"
       id="path3700"
       inkscape:connector-curvature="0" />
    <path
       style="fill:#000000"
       d="m 32.892918,1033.0104 c -0.349008,-0.9095 -0.244266,-1.188 0.446921,-1.188 0.794587,0 1.175528,0.8078 0.635563,1.3478 -0.533564,0.5335 -0.833388,0.4893 -1.082484,-0.1598 z"
       id="path3698"
       inkscape:connector-curvature="0" />
    <path
       style="fill:url(#linearGradient3995);fill-opacity:1;stroke:none;display:inline"
       d="m 6.6145384,1031.5208 c -0.1309165,-0.2754 -0.2037988,-0.3796 0.5583029,-0.579 1.0191689,0.9694 5.0981767,-0.1953 7.5199367,-0.9097 1.722091,-0.5079 0.18679,-0.1767 2.671196,-1.0814 0.597201,0.9082 0.08204,1.1448 -0.529005,1.3471 -0.79855,0.2644 -2.31005,0.793 -4.522751,1.6215 -3.2300199,1.2094 -3.9358581,0.6601 -5.6976796,-0.3985 z"
       id="path3646-1"
       inkscape:connector-curvature="0"
       sodipodi:nodetypes="ccscssc" />
    <path
       style="fill:#000000"
       d="M 19.90625 10.40625 C 15.095794 10.57725 12.152896 11.8507 8.625 14.8125 C 8.3745122 15.0097 8.1635597 15.48075 8.1875 15.90625 C 8.211126 16.32635 8.2104375 16.4695 8.34375 16.75 C 8.0910859 17.0634 5.596432 19.96005 4.65625 21.28125 C 3.9241606 22.30995 3.6678741 23.10085 3.8125 23.46875 C 3.9749746 24.08485 4.8209471 25.3224 5.5 26.125 C 6.1452273 26.8876 6.8647761 27.6622 7.75 28.125 C 8.3057965 28.4156 8.9353701 28.5709 9.5625 28.5625 C 12.062904 28.5295 14.784957 26.0713 16.8125 26.625 C 17.958254 26.9032 18.335477 27.57955 18.78125 28.40625 C 19.424242 29.58415 20.13444 30.67905 20.375 32.71875 C 20.680643 35.31045 20.762913 39.3405 20.75 39.625 C 20.84431 39.615 21.03364 39.58875 21.25 39.59375 C 21.363562 39.54175 21.144023 35.38785 20.78125 32.65625 C 20.528092 30.74975 19.80014 29.47665 19.5 28.53125 C 20.025847 27.84305 20.145566 27.6591 21.0625 27.3125 C 20.212498 27.2525 19.030773 27.1578 18.09375 26.75 C 17.65356 26.5548 17.420817 26.2623 16.5 26.1875 C 14.112042 26.2964 12.115181 27.64895 9.875 28.09375 C 8.2798641 28.32325 7.2606107 27.5121 6.125 26.5625 L 5.90625 26.34375 C 6.7215649 26.87065 7.103808 26.82255 6.5 26.21875 C 5.7575663 25.47635 5.7898954 24.53705 6.625 23.78125 C 7.0072769 23.43525 7.3125 22.94295 7.3125 22.65625 C 7.3125 22.51335 7.273136 22.2889 7.21875 22.3125 C 7.133126 22.3505 6.9639194 22.4604 6.5625 22.8125 C 6.0907643 23.2262 5.9373851 23.2633 6.125 22.9375 C 6.3831173 22.4893 6.3142521 22.49945 5.8125 22.90625 C 5.4915343 23.16655 4.9957023 23.26245 4.71875 23.15625 C 4.2938675 22.99315 4.2145198 22.5608 4.9375 21.5625 C 5.4736814 20.8167 5.7852179 20.379 6.28125 19.8125 C 6.77729 19.2461 8.1950715 17.58545 8.78125 16.78125 C 9.0570452 16.40305 9.2318816 16.36615 9.28125 16.09375 C 9.330603 15.82135 9.265911 15.68475 9.3125 15.28125 C 9.358781 14.87785 9.5267719 14.74115 9.90625 14.65625 C 10.228615 14.56525 10.4375 14.4105 10.4375 14.1875 C 10.4375 13.9646 10.527082 13.90215 10.65625 14.03125 C 10.785426 14.16045 11.024515 13.7298 11.46875 13.3125 C 11.912994 12.8951 12.594494 12.8644 12.59375 13 C 13.006011 13.3044 13.746733 12.3593 14.09375 12.875 C 14.209293 13.0619 14.754744 13.1275 15.3125 13.0625 C 15.800336 12.9865 16.486148 12.83065 16.625 12.71875 C 16.58867 12.52755 15.961728 12.68775 15.375 12.71875 C 14.597291 12.75475 14.365469 12.6624 14.5 12.3125 C 14.601482 12.0479 14.867547 11.88695 15 11.96875 C 15.316103 12.16405 16.241644 11.6792 16 11.4375 C 16.721251 11.2154 18.292412 10.92945 18.59375 11.03125 C 18.845775 11.82285 19.41159 11.53765 19.9375 11.03125 C 20.260068 11.02025 20.561704 11.03125 20.875 11.03125 C 20.78085 11.90645 21.776691 11.5693 21.28125 11 C 21.883319 10.984 22.482766 11.0105 23.03125 11.0625 C 22.97 11.1435 22.96875 11.30155 22.96875 11.40625 C 22.96875 11.67705 23.148032 11.8256 23.375 11.75 C 23.71845 11.6355 23.877078 11.41645 23.875 11.21875 C 24.091789 11.24075 24.313631 11.28985 24.5 11.34375 C 24.40451 11.46675 24.751498 11.6874 24.5625 11.8125 C 23.825674 12.3002 25.536945 12.12505 25.46875 11.40625 C 25.814122 11.437992 26.177481 11.584887 26.5625 11.78125 C 25.157737 12.166418 23.471381 13.466165 24.40625 15.40625 C 24.286196 15.60055 24.019963 15.6907 23.8125 15.5625 C 23.59812 15.43 23.525748 15.476 23.65625 15.6875 C 23.782545 15.8918 23.89627 15.9032 23.65625 16 C 23.14126 15.976 25.122812 19.29515 25.75 20.78125 C 27.724408 21.89805 27.654085 19.73855 28.25 19.34375 C 28.904073 18.61363 29.494718 17.931282 29.96875 17.21875 C 31.318727 17.956359 32.591258 19.037147 33.15625 20.34375 C 33.257424 20.77355 33.20448 21.2054 33.03125 21.3125 C 32.483891 21.6507 32.722175 22.15625 33.40625 22.15625 C 33.833375 22.14525 34.077225 21.75685 34.46875 21.84375 C 34.688242 22.00995 34.699788 22.13335 34.8125 22.40625 C 34.90956 22.59635 34.210333 23.2326 33.125 23.0625 C 32.194554 22.9935 31.67046 23.1571 31.40625 23.5 C 31.127404 24.0703 31.430463 24.51355 32.34375 24.15625 C 32.580864 24.01345 32.761654 23.5846 33.25 23.625 C 33.73833 23.665 33.836202 24.0468 34.125 24.25 C 34.442615 24.4734 35.487379 23.9052 35.78125 24.0625 C 36.219797 24.3399 37.016927 25.7316 37 26.0625 C 36.98891 26.2795 36.054825 27.06895 35.75 27.34375 C 34.852743 28.06425 35.829729 28.444 36.84375 27.8125 C 37.283139 28.4516 37.730016 28.40325 38.28125 28.28125 C 38.38058 28.22525 39.04138 29.4803 39.90625 31.0625 C 41.132419 33.3054 43.707461 38.1255 44.9375 39.625 C 45.06153 39.636 45.170648 39.613 45.375 39.625 C 44.106336 38.0081 41.601367 33.28445 40.6875 31.53125 C 37.69844 25.83969 34.403832 20.605472 30.90625 15.375 C 31.090706 14.873194 31.238426 14.351503 31.3125 13.78125 C 31.409141 11.735203 28.734478 11.541208 27.5 11.625 C 25.501119 10.541146 22.653345 10.437908 19.90625 10.40625 z "
       transform="translate(0,1004.362)"
       id="path3127" />
    <path
       style="fill:#ffcc00"
       d="m 4.0556397,1027.9644 c 0.1105511,0.1733 0.5897328,0.5351 0.8020809,0.6858 0.7247881,0.5144 1.2448595,1.667 0.9633602,1.8177 -0.3350759,-0.2711 -1.4142243,-1.8696 -1.7654411,-2.5035 z"
       id="path3125"
       inkscape:connector-curvature="0"
       sodipodi:nodetypes="cccc" />
    <path
       style="fill:#000000"
       d="m 32.944552,1028.9045 c -0.01522,0.2526 -0.05153,0.3197 -0.274395,0.1819 -0.220658,-0.1363 -0.317641,-0.077 -0.296605,0.1187 0.01844,0.1729 0.06376,0.3792 0.273385,0.7647 0.239241,0.4397 0.893931,0.8905 0.670338,0.036 -0.187891,-0.748 0.785468,-0.3073 0.675773,-0.9664 -0.19755,-0.3514 -0.54553,0.1692 -0.685482,-0.178 -0.134768,-0.2313 -0.387512,-0.2513 -0.363014,0.044 z"
       id="path3123"
       inkscape:connector-curvature="0"
       sodipodi:nodetypes="cssscccc" />
    <path
       style="fill:#000000"
       d="m 30.34999,1031.3566 c 0,-0.6698 0.79008,-1.2287 1.182349,-0.8364 0.37887,0.3789 0.215988,0.7581 -0.487302,1.1344 -0.583347,0.3122 -0.695047,0.2643 -0.695047,-0.298 z"
       id="path3688"
       inkscape:connector-curvature="0" />
    <path
       style="fill:#000000"
       d="m 11.563048,1019.8696 c 0.406639,-1.2388 1.432984,-1.7361 2.514902,-2.036 0.100749,0.092 -0.320926,0.398 -0.431266,0.6801 -0.956627,0.2881 -1.951878,1.5065 -2.083636,1.3559 z"
       id="path3686"
       inkscape:connector-curvature="0"
       sodipodi:nodetypes="ccccc" />
    <path
       style="fill:#000000"
       d="m 14.061347,1021.9123 c -0.223132,0.1563 -0.586848,0.1378 -0.926277,0.046 -0.849127,-0.2315 -1.863464,1.1123 -2.104566,1.9918 -0.306152,1.1168 0.85196,3.7778 1.306937,3.4543 0.08336,-0.059 0.153369,-0.1418 0.15863,-0.1063 0.0051,0.035 -0.05263,0.1684 -0.124895,0.2935 -0.407593,0.7054 1.139873,2.2014 1.87187,1.8096 0.341791,-0.1829 0.784788,-0.1796 1.081498,0.011 0.27641,0.1749 0.424364,0.3323 0.328798,0.3498 -1.472869,0.2705 -3.760477,1.6284 -4.333786,1.7847 -1.4052223,0.4382 -2.692208,0.053 -3.9146623,-0.2245 -0.4014114,-0.057 -0.4897293,-0.2396 -0.5032731,-0.3013 -0.021926,-0.1 0.1422019,-0.1991 0.6731694,-0.1922 0.1415466,0 1.0459803,0.1671 1.5945365,0.2159 0,0 0.9037555,0.1096 1.2175195,-0.1235 0.313765,-0.2331 0.421427,-0.579 0.430675,-1.0353 0.0093,-0.4564 -0.624164,-2.7601 -0.8734295,-3.6202 -0.4807413,-1.659 -0.1716361,-2.8783 2.2585305,-4.8503 0.129201,-0.5125 0.05243,-1.6573 0.513872,-1.6532 0.766553,0.011 2.725713,-0.5657 2.592775,-0.26 0.02346,0.1702 -0.618364,2.0035 -1.24794,2.4137 z"
       id="path3684"
       inkscape:connector-curvature="0"
       sodipodi:nodetypes="csssscsccccssszzscsccc" />
    <path
       style="fill:#000000"
       d="m 15.869932,1019.6374 c 0.296556,-0.5375 0.673396,0.7887 0.671753,1.1709 -0.04733,0.8144 -0.812814,-0.3889 -0.849481,-0.7469 -0.0085,-0.1309 0.177728,-0.424 0.177728,-0.424 z"
       id="path3682"
       inkscape:connector-curvature="0"
       sodipodi:nodetypes="sccs" />
    <path
       style="fill:#ffdd55"
       d="m 11.648342,1029.4088 c 0.0099,-0.058 0.66892,-0.1527 0.728668,-0.2116 -0.01416,-0.04 -0.195038,-0.017 -0.445744,-0.01 -0.583307,0.029 -0.812785,0.2253 -0.387942,0.4466 0.272629,0.1566 0.768864,0.2502 0.823816,0.2297 -0.262748,-0.093 -0.770821,-0.3781 -0.718798,-0.457 z"
       id="path3680"
       inkscape:connector-curvature="0"
       sodipodi:nodetypes="ccccccc" />
    <path
       style="fill:#000000"
       d="m 23.524095,1030.9625 c -0.111886,-0.2917 -0.04798,-0.5301 0.142105,-0.5301 0.191021,0 0.199719,-0.547 -0.291152,-0.9077 -0.55159,-0.4055 -0.359403,-1.0858 0.655007,-0.937 0.944692,0.1387 1.487448,1.1496 0.621704,1.1496 -0.211588,0 -0.299072,0.2232 -0.19442,0.496 0.104651,0.2726 0.112898,0.6388 -0.13623,0.8533 -0.247187,0.2129 -0.644748,0.2727 -0.797014,-0.1241 z"
       id="path3676"
       inkscape:connector-curvature="0"
       sodipodi:nodetypes="ssssscss" />
    <path
       style="fill:#000000"
       d="m 21.571821,1029.37 c 0.327462,-0.6119 0.473976,-0.6708 0.716487,-0.2878 0.50608,0.7991 0.366112,1.9294 -0.238927,1.9294 -0.910712,-0.082 -0.75143,-1.1103 -0.47756,-1.6416 z"
       id="path3672"
       inkscape:connector-curvature="0"
       sodipodi:nodetypes="cscc" />
    <path
       style="fill:#000000"
       d="m 33.623871,1030.8793 c 0,-0.2866 0.234581,-0.5212 0.521291,-0.5212 0.286702,0 0.521283,0.2346 0.521283,0.5212 0,0.2867 -0.234581,0.5214 -0.521283,0.5214 -0.28671,0 -0.521291,-0.2347 -0.521291,-0.5214 z"
       id="path3668"
       inkscape:connector-curvature="0" />
    <path
       style="fill:#000000"
       d="m 34.997184,1030.3295 c 0,-0.8036 0.598986,-0.9467 0.796763,-0.1903 0.117129,0.4477 0.0087,0.691 -0.308012,0.691 -0.268814,0 -0.488751,-0.2254 -0.488751,-0.5007 z"
       id="path3666"
       inkscape:connector-curvature="0" />
    <path
       style="fill:#000000"
       d="m 18.54312,1029.3344 c -0.584504,-0.7824 -0.289647,-1.4356 0.540281,-1.3196 0.558256,0.077 0.74321,-0.082 0.747029,-0.5335 -0.104895,-0.4328 0.135,-0.5522 0.39743,-0.1374 0.175601,0.2775 0.166539,0.6415 0.05404,0.8234 -0.112493,0.182 0.0016,0.2261 0.209097,0.098 0.503085,-0.3111 0.907305,0.4412 0.475197,0.8734 -0.221094,0.221 -0.561477,0.1767 -0.909109,-0.171 -0.598453,-0.5873 -0.398604,0.138 -0.589836,0.5134 -0.1467,0.2882 -0.652344,0.147 -0.924134,-0.1466 z"
       id="path3664"
       inkscape:connector-curvature="0"
       sodipodi:nodetypes="cscsscscsc" />
    <path
       style="fill:#000000"
       d="m 23.820133,1026.6097 c -0.223675,-0.3144 -0.06246,-0.6951 0.291565,-0.6951 0.341078,0 0.451452,0.2321 0.330408,0.6951 -0.126402,0.4833 -0.01069,0.6949 0.380068,0.6949 0.308999,0 0.561809,0.1619 0.561809,0.3598 0,0.244 0.223813,0.24 0.695046,-0.012 0.382277,-0.2046 0.467067,-0.2505 0.724012,-0.2727 0.899005,-0.078 0.954539,1.4547 0.135276,1.4967 -0.218319,0.012 -0.325068,-0.045 -0.582328,-0.3016 -0.257251,-0.2572 -0.807895,-0.4158 -1.223643,-0.3523 -1.435248,0.1274 -1.148029,-1.0113 -1.312213,-1.6126 z m -2.033651,-0.9291 c -0.940623,-1.1305 -1.424414,-2.932 -0.71423,-2.6596 0.246022,0.095 0.352423,0.43 0.237899,0.7503 -0.113949,0.3187 -0.08219,0.4663 0.07062,0.328 0.269218,-0.2436 1.378386,1.3618 1.794377,2.5972 0.226702,0.8208 -0.109612,0.8037 -0.360739,0.6314 -0.41112,-0.5592 -0.679788,-1.2212 -1.027906,-1.6473 z"
       id="path3662"
       inkscape:connector-curvature="0"
       sodipodi:nodetypes="csssssssscccsscccc" />
    <path
       id="path3660"
       style="fill:#000000"
       d="m 7.7646366,1028.3292 c 1.3485604,0.054 1.6090302,-0.2519 1.6090302,-0.2519 0,0 0.2197772,-0.4826 0.3603285,-0.1167 0.1389418,0.362 -0.1783915,0.4976 -1.2548414,0.5361 -1.0603978,0.039 -1.7260591,-0.087 -1.1207673,-0.1446 z"
       inkscape:connector-curvature="0"
       sodipodi:nodetypes="cccccc" />
    <path
       style="fill:#000000"
       d="m 17.157371,1027.8548 c -0.01504,-0.3663 0.06706,-0.5715 0.182518,-0.456 0.618007,0.6251 -0.08309,1.2084 -0.182518,0.456 z"
       id="path3656"
       inkscape:connector-curvature="0"
       sodipodi:nodetypes="ccc" />
    <path
       style="fill:#000000"
       d="m 29.601116,1025.3262 c -0.304033,-1.6053 0.635661,-1.4837 0.960559,-0.2804 0.126918,0.8016 0.81398,1.311 0.745337,1.6721 -0.162258,0.8535 -1.411646,0.5119 -1.705896,-1.3917 z"
       id="path3654"
       inkscape:connector-curvature="0"
       sodipodi:nodetypes="ccsc" />
    <path
       style="fill:#000000"
       d="m 21.175709,1027.1707 c -0.238733,-0.3823 -0.307624,-0.6951 -0.153093,-0.6951 0.362034,0 1.11501,0.751 1.11501,1.1121 0,0.5121 -0.523419,0.2852 -0.961917,-0.417 z"
       id="path3650"
       inkscape:connector-curvature="0" />
    <path
       style="fill:#000000"
       d="m 18.312463,1026.4478 c -0.09822,-0.2558 -0.09588,-0.548 0.0049,-0.6492 0.246143,-0.2461 1.158408,0.1188 1.158408,0.4634 0,0.5013 -0.982419,0.6581 -1.163627,0.1858 z"
       id="path3646"
       inkscape:connector-curvature="0" />
    <path
       style="fill:#000000"
       d="m 31.291884,1025.6365 c 0,-0.1529 0.182533,-0.4606 0.405634,-0.6836 0.309162,-0.3092 0.267843,-0.4585 -0.173763,-0.628 -0.318669,-0.1222 -0.579399,-0.4401 -0.579399,-0.7064 0,-0.5748 0.178756,-0.5988 1.036466,-0.1398 0.555677,0.2973 0.589504,0.4866 0.248481,1.39 -0.36205,0.9592 -0.937419,1.4305 -0.937419,0.7678 z"
       id="path3640"
       inkscape:connector-curvature="0" />
    <path
       style="fill:#000000"
       d="m 19.212227,1022.8301 c 0.218458,-0.045 0.355181,0.169 0.30383,0.4736 -0.05137,0.3045 0.12899,0.9063 0.400764,1.3372 0.537175,0.8516 1.172317,1.5754 0.432561,1.0646 -0.644901,-0.6541 -1.654036,-2.2777 -1.137155,-2.8754 z"
       id="path3880"
       inkscape:connector-curvature="0" />
    <path
       style="fill:#000000"
       d="m 17.78732,1024.1751 c 0.324365,0.6467 0.297276,0.7821 -0.156466,0.7819 -0.301807,-2e-4 -0.503758,-0.1958 -0.448766,-0.4347 0.05502,-0.2388 -0.05534,-0.4344 -0.245188,-0.4344 -0.18984,-10e-5 -0.306128,0.1171 -0.258417,0.2605 0.17158,0.5156 -0.538685,0.2479 -0.740621,-0.2791 -0.113682,-0.2967 -0.06295,-0.4505 0.112743,-0.3418 0.175681,0.1087 0.373935,-0.083 0.53363,-0.2261 0.520919,-0.3895 0.857782,0.1905 1.203076,0.6737 z"
       id="path3638"
       inkscape:connector-curvature="0"
       sodipodi:nodetypes="cccccscccc" />
    <path
       style="fill:#000000"
       d="m 28.206176,1025.5021 c 0,-0.1912 0.156385,-0.3476 0.347527,-0.3476 0.191135,0 0.34752,0.1564 0.34752,0.3476 0,0.1911 -0.156385,0.3475 -0.34752,0.3475 -0.191142,0 -0.347527,-0.1564 -0.347527,-0.3475 z"
       id="path3636"
       inkscape:connector-curvature="0" />
    <path
       style="fill:#000000"
       d="m 22.891856,1024.4802 c -0.103948,-0.271 0.01796,-0.572 0.271006,-0.6692 0.314048,-0.1205 0.404494,0.036 0.285052,0.4926 -0.208813,0.7985 -0.305594,0.8293 -0.556058,0.1766 z"
       id="path3634"
       inkscape:connector-curvature="0" />
    <path
       style="fill:#000000"
       d="m 7.9389629,1022.8029 c 0.4262175,-0.5435 1.0900749,-0.551 1.0900749,-0.012 0,0.1162 -0.1029058,0.1084 -0.2286674,-0.018 -0.1257698,-0.1257 -0.4776418,-0.035 -0.7819326,0.2028 -0.4887261,0.381 -0.497998,0.3609 -0.07945,-0.1731 z"
       id="path3630"
       inkscape:connector-curvature="0" />
    <path
       style="fill:#000000"
       d="m 15.71053,1022.1961 c 0.310074,0.4965 0.290027,0.8489 -0.09436,0.8489 -0.784003,-0.028 -0.172485,-1.4055 0.09436,-0.8489 z"
       id="path3628"
       inkscape:connector-curvature="0"
       sodipodi:nodetypes="ccc" />
    <path
       style="fill:#000000"
       d="m 23.298842,1022.4393 c -0.204581,-0.3822 -0.29378,-0.6951 -0.198214,-0.6951 0.09557,0 0.341153,0.3129 0.545742,0.6951 0.204589,0.3823 0.293788,0.6951 0.198213,0.6951 -0.09557,0 -0.341152,-0.3128 -0.545741,-0.6951 z"
       id="path3626"
       inkscape:connector-curvature="0" />
    <path
       style="fill:#000000"
       d="m 21.104608,1021.5454 c -0.557376,-0.4461 -0.862686,-0.904 -0.678454,-1.018 0.429503,-0.2655 0.884685,0.068 1.434172,1.0504 0.5435,0.9716 0.496688,0.9697 -0.755718,-0.032 z"
       id="path3624"
       inkscape:connector-curvature="0" />
    <path
       style="fill:#000000"
       d="m 17.555627,1020.761 c -0.422439,-0.5089 -0.182656,-0.9198 0.536817,-0.9198 0.517698,0 0.634359,0.8958 0.155212,1.1918 -0.169476,0.1054 -0.480895,-0.018 -0.692029,-0.272 z"
       id="path3622"
       inkscape:connector-curvature="0" />
    <path
       style="fill:#000000"
       d="m 18.781043,1022.1122 c 0,-0.1798 0.154596,-0.4224 0.343547,-0.5393 0.196992,-0.1218 0.255253,0.018 0.136579,0.327 -0.23103,0.6021 -0.480126,0.7122 -0.480126,0.2123 z"
       id="path3620"
       inkscape:connector-curvature="0" />
    <path
       style="fill:#000000"
       d="m 10.562894,1020.6343 c 0.138537,-0.276 0.715047,-0.7249 0.961724,-0.6628 0.01796,0.035 -0.516243,0.2719 -0.52655,0.7 -0.0073,0.2945 -0.496631,0.527 -0.563856,0.4879 -0.04976,-0.029 0.05987,-0.3881 0.128682,-0.5251 z"
       id="path3616"
       inkscape:connector-curvature="0"
       sodipodi:nodetypes="ccsssc" />
    <path
       style="fill:#000000"
       d="m 19.128561,1019.6557 c 0,-0.2025 0.156386,-0.368 0.347529,-0.368 0.191134,0 0.347527,0.069 0.347527,0.1533 0,0.084 -0.156393,0.2499 -0.347527,0.3681 -0.191143,0.118 -0.347529,0.049 -0.347529,-0.1534 z"
       id="path3610"
       inkscape:connector-curvature="0" />
    <path
       style="fill:#000000"
       d="m 15.134513,1018.2729 c -0.121756,-0.197 0.01771,-0.2551 0.32701,-0.1365 0.602052,0.231 0.712207,0.4802 0.212324,0.4802 -0.179864,0 -0.422562,-0.1546 -0.539334,-0.3437 z"
       id="path3606"
       inkscape:connector-curvature="0" />
    <path
       style="fill:#000000"
       d="m 19.814443,1018.1931 c 0.282495,-0.1182 0.382342,-0.3001 0.01762,-0.4062 -0.201071,-0.056 -0.307195,-0.279 0.116822,-0.2981 0.334494,-0.015 0.60817,0.2071 0.60817,0.4937 0,0.2868 -0.273676,0.519 -0.60817,0.5162 -0.475951,-0.011 -0.323099,-0.2582 -0.134442,-0.3056 z"
       id="path3604"
       inkscape:connector-curvature="0"
       sodipodi:nodetypes="cccscc" />
    <path
       style="fill:#000000"
       d="m 22.350978,1017.0636 c -0.118132,-0.1913 0.02896,-0.3477 0.327009,-0.3477 0.297988,0 0.541802,0.1564 0.541802,0.3477 0,0.191 -0.147163,0.3474 -0.327011,0.3474 -0.179863,0 -0.423668,-0.1564 -0.5418,-0.3474 z"
       id="path3602"
       inkscape:connector-curvature="0" />
    <path
       style="fill:#000000"
       d="m 17.485651,1017.5465 c 0.118132,-0.1911 0.440125,-0.3475 0.715557,-0.3475 0.275422,0 0.500773,0.1564 0.500773,0.3475 0,0.1912 -0.322002,0.3475 -0.715557,0.3475 -0.393555,0 -0.618906,-0.1563 -0.500773,-0.3475 z"
       id="path3600"
       inkscape:connector-curvature="0" />
    <path
       style="fill:#000000"
       d="m 19.773496,1016.5767 c 0.238157,-0.3853 1.17174,-0.3451 1.17174,0.05 0,0.1793 -0.301927,0.3033 -0.670959,0.2754 -0.369041,-0.028 -0.594391,-0.1744 -0.500781,-0.3259 z"
       id="path3598"
       inkscape:connector-curvature="0" />
    <path
       style="fill:#000000"
       d="m 17.255892,1016.322 c 0.32184,-0.2643 0.821747,-0.4322 1.110916,-0.3729 0.490959,0.1 0.180479,0.5626 -0.317495,0.4725 -0.125447,-0.023 -0.486914,0.053 -0.803308,0.1698 -0.496574,0.1821 -0.495215,0.1452 0.0099,-0.2694 z"
       id="path3596"
       inkscape:connector-curvature="0" />
    <path
       id="path3660-1"
       style="fill:#000000"
       d="m 7.3109314,1029.4635 c 0.7252816,0.085 2.5542464,-0.3652 2.7221126,-0.08 -0.20481,0.159 -0.8842625,0.2638 -1.9607123,0.3023 -1.0603979,0.039 -1.3118017,-0.2872 -0.7614003,-0.2225 z"
       inkscape:connector-curvature="0"
       sodipodi:nodetypes="ccssc" />
    <path
       style="fill:#000000"
       d="m 28.241791,1028.9805 c -0.403255,-0.5453 -0.179289,-1.6703 0.332543,-1.6703 0.700751,0 0.868747,0.2846 0.695849,1.1787 -0.143254,0.7408 -0.661082,0.9883 -1.028392,0.4916 z"
       id="path3720-1"
       inkscape:connector-curvature="0" />
    <path
       inkscape:connector-curvature="0"
       style="fill:#000000"
       d="m 15.218754,1027.2547 c -0.111983,-0.3698 -0.02152,-0.7595 0.208861,-0.9421 0.47409,-0.3755 0.834327,0.5549 0.401783,1.1029 -0.205164,0.2599 -0.479445,0.2724 -0.610644,-0.1608 z"
       id="path3710-7"
       sodipodi:nodetypes="cssc" />
    <path
       style="fill:url(#linearGradient3898);stroke:none;fill-opacity:1"
       d="m 23.613018,1020.8429 c 0.914935,0.033 1.62459,-0.9458 1.304329,-1.7483 -0.508738,-1.2747 0.319938,-2.2059 2.586454,-2.1475 1.273117,0.033 1.632031,0.4102 1.376279,1.3882 -0.257241,0.9837 -0.8265,1.0037 -1.079667,0.036 -0.178502,-0.6827 -0.244985,-0.6546 -0.854242,0.4271 -0.364799,0.6476 -0.585391,0.9097 -0.486443,0.5813 0.237069,-0.7867 -0.195094,-1.0138 -0.759326,-0.4034 -0.246459,0.2667 -0.292796,0.4865 -0.106781,0.4865 0.53389,0 0.08068,1.7464 -0.759326,2.9186 -0.808428,1.1747 1.507361,1.2476 0.510173,0.439 -0.202418,0 -0.350623,-0.047 -0.225425,-0.2491 0.143858,-0.2328 0.398638,-0.1365 0.700003,0.261 0.439062,0.5791 0.488133,0.5736 0.498308,0.024 0.0076,-0.4105 0.187345,-0.5308 0.581359,-0.3796 0.482423,0.1851 0.531024,0.069 0.320341,-0.7831 -0.164576,-0.6657 -0.12994,-0.8928 0.09492,-0.6644 0.139473,0.1417 0.536468,1.4572 0.731599,1.1061 0.321799,-1.2455 0.963384,-3.0281 1.641295,-3.0281 0.274588,0 0.40288,-0.153 0.284747,-0.3441 -0.118128,-0.1912 -0.06588,-0.3441 0.118645,-0.3441 0.924874,-1.2649 -0.975609,-1.6391 -2.010164,-2.0083 0.172557,-0.097 1.359289,0.094 1.844061,0.3117 2.562912,1.0517 -1.48804,6.7964 -2.645777,6.822 -0.237213,-0.079 -0.633798,0.064 -0.889835,0.3204 -0.256037,0.256 -0.607328,0.3815 -0.783055,0.2729 -0.175731,-0.1086 -0.308951,-0 -0.172257,0.1661 0.378372,0.5953 1.13274,-0.2811 1.25326,0.7139 0,0.2115 -0.63013,0.2185 -0.926765,0.1047 -1.355044,0.1922 -2.300291,-4.2752 -2.146706,-4.2788 z"
       id="path3644-1"
       inkscape:connector-curvature="0"
       sodipodi:nodetypes="cssssssssccsssccccsccccccccccc" />
    <path
       style="fill:#d4aa00;fill-opacity:1;stroke:none"
       d="m 13.744113,1020.1135 c 0.378665,0.2867 0.428974,0.9896 0.02688,1.3333 -0.252255,0.2157 -0.534405,0.1097 -0.648634,-0.3292 -0.14344,-0.5512 0.09519,-0.9775 0.337594,-1.026 0.084,0.3584 0.06192,1.0262 0.07486,1.2316 0.139714,-0.3057 0.199296,-0.9517 0.209298,-1.2097 z"
       id="path3151"
       inkscape:connector-curvature="0"
       sodipodi:nodetypes="cssccc" />
    <path
       style="fill:#ffcc00;fill-opacity:1;stroke:none"
       d="m 13.26471,1020.5526 c -5.36e-4,-0.081 0.02116,-0.1738 0.06229,-0.1913 0.03179,-0.014 0.06408,0.019 0.06468,0.1 6.74e-4,0.08 -0.02117,0.1739 -0.06229,0.1913 -0.03179,0.014 -0.06515,-0.022 -0.06469,-0.1 z"
       id="path3154"
       inkscape:connector-curvature="0"
       sodipodi:nodetypes="casac" />
    <path
       inkscape:connector-curvature="0"
       style="fill:#000000;display:inline"
       d="m 41.125942,1042.8539 c -0.111983,-0.3698 -0.02152,-0.7595 0.208861,-0.9421 0.47409,-0.3755 0.834327,0.5549 0.401784,1.1029 -0.205165,0.2599 -0.479446,0.2724 -0.610645,-0.1608 z"
       id="path3710-7-1"
       sodipodi:nodetypes="cssc" />
    <path
       style="fill:#000000;display:inline"
       d="m 30.521108,1042.8352 c -0.103948,-0.2709 0.01796,-0.572 0.271006,-0.6691 0.314048,-0.1205 0.404495,0.036 0.285052,0.4925 -0.208813,0.7985 -0.305593,0.8293 -0.556058,0.1766 z"
       id="path3634-7"
       inkscape:connector-curvature="0" />
    <path
       style="fill:#000000;display:inline"
       d="m 34.864501,1042.7411 c -0.345881,-0.1082 -0.357192,0.1737 -0.208475,0.3088 0.309334,0.2067 0.0977,0.4267 -0.27392,0.2216 -0.293047,-0.1619 -0.410536,-0.4941 -0.260869,-0.7386 0.149724,-0.2445 0.504373,-0.2996 0.788148,-0.1225 0.400365,0.2575 0.176965,0.4 -0.04488,0.3307 z"
       id="path3604-4"
       inkscape:connector-curvature="0"
       sodipodi:nodetypes="cccscc" />
    <path
       style="fill:url(#linearGradient4017);fill-opacity:1;stroke:none;stroke-width:0.10000000000000001;stroke-miterlimit:4;stroke-opacity:1;stroke-dasharray:none;display:inline"
       d="m 30.100389,1021.3652 c 6.066244,2.3418 11.555166,18.9933 14.985004,22.5676 -4.65935,0.1979 -8.086073,-0.2576 -12.395005,-0.038 -0.244921,-0.09 -0.536125,-1.0624 -0.19882,-1.6351 1.758517,-2.9857 4.291994,-11.3362 -2.360859,-15.1395 -1.253963,-0.7169 -2.643575,-1.6496 -2.503615,-2.3126 0.241919,-1.1461 1.487812,-1.8957 2.473295,-3.4417 z"
       id="path3646-1-9-1"
       inkscape:connector-curvature="0"
       sodipodi:nodetypes="cccssscc" />
  </g>
  <g
     inkscape:groupmode="layer"
     id="layer2"
     inkscape:label="Main"
     style="display:inline"
     transform="translate(0,-1004.362)" />
</svg>
