<?xml version="1.0" encoding="UTF-8" standalone="no"?>
<!-- Created with Inkscape (http://www.inkscape.org/) -->

<svg
   xmlns:osb="http://www.openswatchbook.org/uri/2009/osb"
   xmlns:dc="http://purl.org/dc/elements/1.1/"
   xmlns:cc="http://creativecommons.org/ns#"
   xmlns:rdf="http://www.w3.org/1999/02/22-rdf-syntax-ns#"
   xmlns:svg="http://www.w3.org/2000/svg"
   xmlns="http://www.w3.org/2000/svg"
   xmlns:xlink="http://www.w3.org/1999/xlink"
   xmlns:sodipodi="http://sodipodi.sourceforge.net/DTD/sodipodi-0.dtd"
   xmlns:inkscape="http://www.inkscape.org/namespaces/inkscape"
   width="48"
   height="48"
   id="svg2"
   sodipodi:version="0.32"
   inkscape:version="0.48.0 r9654"
   sodipodi:docname="head.svg"
   inkscape:output_extension="org.inkscape.output.svg.inkscape"
   version="1.1"
   inkscape:export-filename="W:\home\pictures\cliparts\lazarus-logo\head.png"
   inkscape:export-xdpi="391.15384"
   inkscape:export-ydpi="391.15384">
  <title
     id="title3059">Cheetah Head</title>
  <defs
     id="defs4">
    <linearGradient
       id="linearGradient5735">
      <stop
         style="stop-color:#930a0a;stop-opacity:0.46902654;"
         offset="0"
         id="stop5737" />
      <stop
         id="stop5741"
         offset="0.64063758"
         style="stop-color:#920505;stop-opacity:0.20353982;" />
      <stop
         style="stop-color:#ffffff;stop-opacity:0;"
         offset="1"
         id="stop5745" />
    </linearGradient>
    <linearGradient
       id="linearGradient5682">
      <stop
         id="stop5684"
         offset="0"
         style="stop-color:#930a0a;stop-opacity:0.54867256;" />
      <stop
         style="stop-color:#920000;stop-opacity:0.16814159;"
         offset="0.81283063"
         id="stop5686" />
      <stop
         id="stop5688"
         offset="1"
         style="stop-color:#ffffff;stop-opacity:0;" />
    </linearGradient>
    <linearGradient
       id="linearGradient5674">
      <stop
         style="stop-color:#930a0a;stop-opacity:0.54867256;"
         offset="0"
         id="stop5676" />
      <stop
         id="stop5678"
         offset="0.54232275"
         style="stop-color:#920000;stop-opacity:0.16814159;" />
      <stop
         style="stop-color:#ffffff;stop-opacity:0;"
         offset="1"
         id="stop5680" />
    </linearGradient>
    <linearGradient
       id="linearGradient5662">
      <stop
         id="stop5664"
         offset="0"
         style="stop-color:#930a0a;stop-opacity:0;" />
      <stop
         style="stop-color:#920707;stop-opacity:0.09734514;"
         offset="0.26848221"
         id="stop5666" />
      <stop
         style="stop-color:#920505;stop-opacity:0.20353982;"
         offset="0.66719043"
         id="stop5668" />
      <stop
         style="stop-color:#920000;stop-opacity:0.05309734;"
         offset="0.864788"
         id="stop5670" />
      <stop
         id="stop5672"
         offset="1"
         style="stop-color:#ffffff;stop-opacity:0;" />
    </linearGradient>
    <linearGradient
       id="linearGradient5654">
      <stop
         id="stop5656"
         offset="0"
         style="stop-color:#930a0a;stop-opacity:0.54867256;" />
      <stop
         style="stop-color:#920000;stop-opacity:0.16814159;"
         offset="0.38335639"
         id="stop5658" />
      <stop
         id="stop5660"
         offset="1"
         style="stop-color:#ffffff;stop-opacity:0;" />
    </linearGradient>
    <linearGradient
       id="linearGradient5646">
      <stop
         style="stop-color:#ffcc00;stop-opacity:1"
         offset="0"
         id="stop5648" />
      <stop
         id="stop5650"
         offset="0.74942917"
         style="stop-color:#ffe57f;stop-opacity:1;" />
      <stop
         id="stop5652"
         offset="1"
         style="stop-color:#ffffff;stop-opacity:1;" />
    </linearGradient>
    <linearGradient
       osb:paint="gradient"
       id="linearGradient5638">
      <stop
         id="stop5640"
         offset="0"
         style="stop-color:#ffffff;stop-opacity:0.62831861;" />
      <stop
         style="stop-color:#ffffff;stop-opacity:0.49557522;"
         offset="0.45584768"
         id="stop5642" />
      <stop
         id="stop5644"
         offset="1"
         style="stop-color:#ffffff;stop-opacity:0;" />
    </linearGradient>
    <linearGradient
       id="linearGradient5630">
      <stop
         id="stop5632"
         offset="0"
         style="stop-color:#ffffff;stop-opacity:0.76106197;" />
      <stop
         style="stop-color:#ffffff;stop-opacity:0.19215686;"
         offset="0.60575384"
         id="stop5634" />
      <stop
         id="stop5636"
         offset="1"
         style="stop-color:#ffffff;stop-opacity:0;" />
    </linearGradient>
    <linearGradient
       id="linearGradient5610"
       osb:paint="gradient">
      <stop
         style="stop-color:#ffffff;stop-opacity:0.62831861;"
         offset="0"
         id="stop5612" />
      <stop
         id="stop5614"
         offset="0.80465513"
         style="stop-color:#ffffff;stop-opacity:0.49557522;" />
      <stop
         style="stop-color:#ffffff;stop-opacity:0;"
         offset="1"
         id="stop5616" />
    </linearGradient>
    <linearGradient
       id="linearGradient3998"
       osb:paint="gradient">
      <stop
         style="stop-color:#ffcc00;stop-opacity:1"
         offset="0"
         id="stop4000" />
      <stop
         id="stop4002"
         offset="0.53951544"
         style="stop-color:#ffe57f;stop-opacity:1" />
      <stop
         id="stop4004"
         offset="1"
         style="stop-color:#ffffff;stop-opacity:1;" />
    </linearGradient>
    <linearGradient
       osb:paint="gradient"
       id="linearGradient3966">
      <stop
         id="stop3968"
         offset="0"
         style="stop-color:#ffffff;stop-opacity:0.62831861;" />
      <stop
         style="stop-color:#ffffff;stop-opacity:0.49557522;"
         offset="0.67996919"
         id="stop3970" />
      <stop
         id="stop3972"
         offset="1"
         style="stop-color:#ffffff;stop-opacity:0;" />
    </linearGradient>
    <linearGradient
       id="linearGradient3866"
       osb:paint="gradient">
      <stop
         style="stop-color:#ffffff;stop-opacity:0.62831861;"
         offset="0"
         id="stop3868" />
      <stop
         id="stop3897"
         offset="0.45584768"
         style="stop-color:#ffffff;stop-opacity:0.49557522;" />
      <stop
         style="stop-color:#ffffff;stop-opacity:0;"
         offset="1"
         id="stop3870" />
    </linearGradient>
    <linearGradient
       inkscape:collect="always"
       xlink:href="#linearGradient5646"
       id="linearGradient3898"
       x1="24.59668"
       y1="1022.9152"
       x2="34.165928"
       y2="1015.1938"
       gradientUnits="userSpaceOnUse"
       gradientTransform="matrix(1.0147733,0,0,1.0799906,-3.2051408,-86.0842)" />
    <linearGradient
       inkscape:collect="always"
       xlink:href="#linearGradient5674"
       id="linearGradient3882"
       x1="19.17877"
       y1="1014.2476"
       x2="19.262575"
       y2="1018.1637"
       gradientUnits="userSpaceOnUse"
       gradientTransform="matrix(1.0147733,0,0,1.0799906,-3.2051408,-86.0842)" />
    <linearGradient
       inkscape:collect="always"
       xlink:href="#linearGradient5630"
       id="linearGradient3991"
       x1="20.805763"
       y1="1039.2732"
       x2="27.696302"
       y2="1033.6414"
       gradientUnits="userSpaceOnUse"
       gradientTransform="matrix(1.0147733,0,0,1.0799906,-3.2051408,-86.0842)" />
    <linearGradient
       gradientTransform="matrix(1.1007661,1.5932361,-1.731561,1.012832,1772.776,-34.059817)"
       y2="1018.1637"
       x2="19.262575"
       y1="1014.1828"
       x1="19.500187"
       gradientUnits="userSpaceOnUse"
       id="linearGradient4017"
       xlink:href="#linearGradient5682"
       inkscape:collect="always" />
    <linearGradient
       id="linearGradient3866-0"
       osb:paint="gradient">
      <stop
         style="stop-color:#ffffff;stop-opacity:0.62831861;"
         offset="0"
         id="stop3868-9" />
      <stop
         id="stop3897-4"
         offset="0.45584768"
         style="stop-color:#ffffff;stop-opacity:0.49557522;" />
      <stop
         style="stop-color:#ffffff;stop-opacity:0;"
         offset="1"
         id="stop3870-8" />
    </linearGradient>
    <linearGradient
       inkscape:collect="always"
       xlink:href="#linearGradient5662"
       id="linearGradient4057"
       x1="34.314472"
       y1="1014.7882"
       x2="27.444017"
       y2="1020.5876"
       gradientUnits="userSpaceOnUse"
       gradientTransform="matrix(0.99949093,-0.18672582,0.17545002,1.0637261,-204.93632,-56.329165)" />
    <radialGradient
       inkscape:collect="always"
       xlink:href="#linearGradient5654"
       id="radialGradient5582"
       cx="42.493114"
       cy="1018.2738"
       fx="42.493114"
       fy="1018.2738"
       r="5.3874297"
       gradientTransform="matrix(1.4403137,0.46461481,-0.28703845,1.0078735,254.27011,-19.761235)"
       gradientUnits="userSpaceOnUse" />
    <linearGradient
       inkscape:collect="always"
       xlink:href="#linearGradient5638"
       id="linearGradient5608"
       x1="1.3744972"
       y1="1031.3292"
       x2="16.697128"
       y2="1027.6648"
       gradientUnits="userSpaceOnUse"
       gradientTransform="matrix(0.98450823,0,0,1.0477805,0.2367879,-49.472845)" />
    <radialGradient
       inkscape:collect="always"
       xlink:href="#linearGradient5610"
       id="radialGradient5628"
       cx="11.559684"
       cy="1018.163"
       fx="11.559684"
       fy="1018.163"
       r="2.517016"
       gradientTransform="matrix(1.0663448,0.021774,-0.01966757,1.0909682,19.30946,-93.703042)"
       gradientUnits="userSpaceOnUse" />
    <radialGradient
       inkscape:collect="always"
       xlink:href="#linearGradient5735"
       id="radialGradient5747"
       cx="30.452885"
       cy="1022.4627"
       fx="30.452885"
       fy="1022.4627"
       r="3.6360285"
       gradientTransform="matrix(0.91372589,1.0400314,-0.99678204,0.9919083,1021.4122,-24.910851)"
       gradientUnits="userSpaceOnUse" />
  </defs>
  <sodipodi:namedview
     id="base"
     pagecolor="#ffffff"
     bordercolor="#666666"
     borderopacity="1.0"
     gridtolerance="10000"
     guidetolerance="10"
     objecttolerance="10"
     inkscape:pageopacity="0.0"
     inkscape:pageshadow="2"
     inkscape:zoom="4.691948"
     inkscape:cx="65.408394"
     inkscape:cy="5.1677888"
     inkscape:document-units="px"
     inkscape:current-layer="layer1"
     showgrid="true"
     inkscape:window-width="1440"
     inkscape:window-height="844"
     inkscape:window-x="-4"
     inkscape:window-y="-4"
     inkscape:window-maximized="1"
     showguides="false"
     inkscape:snap-global="false">
    <inkscape:grid
       type="xygrid"
       id="grid3876"
       empspacing="5"
       visible="true"
       enabled="true"
       snapvisiblegridlinesonly="true" />
  </sodipodi:namedview>
  <metadata
     id="metadata7">
    <rdf:RDF>
      <cc:Work
         rdf:about="">
        <dc:format>image/svg+xml</dc:format>
        <dc:type
           rdf:resource="http://purl.org/dc/dcmitype/StillImage" />
        <dc:title>Cheetah Head</dc:title>
        <cc:license
           rdf:resource="http://creativecommons.org/licenses/by-nd/3.0/" />
        <dc:creator>
          <cc:Agent>
            <dc:title>Zaher Dirkey</dc:title>
          </cc:Agent>
        </dc:creator>
        <dc:subject>
          <rdf:Bag />
        </dc:subject>
        <dc:description>guid line based on
http://nature.ca/notebooks/english/cheetah_p1.htm</dc:description>
      </cc:Work>
      <cc:License
         rdf:about="http://creativecommons.org/licenses/by-nd/3.0/">
        <cc:permits
           rdf:resource="http://creativecommons.org/ns#Reproduction" />
        <cc:permits
           rdf:resource="http://creativecommons.org/ns#Distribution" />
        <cc:requires
           rdf:resource="http://creativecommons.org/ns#Notice" />
        <cc:requires
           rdf:resource="http://creativecommons.org/ns#Attribution" />
      </cc:License>
    </rdf:RDF>
  </metadata>
  <g
     inkscape:label="Extended"
     inkscape:groupmode="layer"
     id="layer1"
     style="display:inline"
     transform="translate(0,-1004.362)">
    <path
       style="fill:#ffcc00;display:inline"
       d="m 47.195109,1044.7096 c -1.423649,-1.931 -4.263913,-7.5673 -5.289421,-9.6611 -3.394545,-6.879 -7.132794,-13.2008 -11.110554,-19.5225 -0.979884,-1.2413 -0.686817,-2.2522 -3.243683,-4.0077 -2.25151,-1.5458 -5.557226,-1.4719 -8.838766,-1.5122 l -0.400894,-0.019 c -5.398115,0.2042 -8.280265,1.7013 -12.2391405,5.2386 -0.2810872,0.2355 -0.4204433,0.6657 -0.3935776,1.1737 0.026517,0.5018 3.74e-4,0.6957 0.149974,1.0308 -0.2835301,0.3743 -3.1199009,3.8379 -4.1749383,5.4159 -0.82152315,1.2285 -1.05794306,2.1407 -0.89564911,2.5801 0.18232334,0.7358 1.16717241,2.4633 1.81287951,3.1946 0.05493,0.061 0.3431581,0.4584 0.535177,0.5942 -0.1188662,0.1194 1.4475283,1.4866 1.922164,1.6567 0.5166709,0.1851 1.0409986,0.6157 2.0912477,0.5934 2.6357508,-0.1272 5.7407693,-3.081 8.0160023,-2.4197 4.992462,1.6843 4.532727,11.4648 4.606319,15.6643 l 27.561329,0.043 z"
       id="path3127-0"
       inkscape:connector-curvature="0"
       sodipodi:nodetypes="cccccccccsccccccccc" />
    <path
       style="fill:url(#radialGradient5747);fill-opacity:1;stroke:none;display:inline"
       d="m 34.558729,1026.7617 c -5.07884,0.6983 -7.455939,-2.0022 -9.051401,-3.7616 0.267703,-0.7106 4.441476,-5.0321 4.400908,-5.3962 -0.215683,-1.9356 5.032932,3.3591 5.831441,6.256 0.111019,1.0055 -0.333008,3.133 -1.180948,2.9018 z"
       id="path3646-1-9-9-8"
       inkscape:connector-curvature="0"
       sodipodi:nodetypes="ccscc" />
    <path
       style="fill:url(#radialGradient5582);fill-opacity:1;stroke:none;display:inline"
       d="m 23.988609,1023.4104 c 1.069553,1.8132 1.423052,1.747 0.95553,3.7338 -0.798368,3.3931 -4.91143,2.2262 -4.92543,3.2766 -0.04158,3.119 8.37493,1.0885 9.160713,-2.1312 0.580345,-2.378 -2.200561,-7.0912 -5.190813,-4.8792 z"
       id="path3646-1-9-2"
       inkscape:connector-curvature="0"
       sodipodi:nodetypes="cssac" />
    <path
       style="fill:url(#linearGradient4057);fill-opacity:1;stroke:none;display:inline"
       d="m 1.0903773,1025.2084 c 1.7951094,-3.2788 5.1754217,-6.4538 6.313899,-8.5777 0.7640693,-0.1 1.9295668,-0.058 1.6796943,0.3597 -0.6122674,1.0227 -3.5794749,6.3401 -5.0450555,8.6092 -0.8756128,0.3958 -2.9188927,0.5399 -2.9485378,-0.3912 z"
       id="path3646-1-9-9"
       inkscape:connector-curvature="0"
       sodipodi:nodetypes="ccscc" />
    <path
       style="fill:url(#linearGradient3991);fill-opacity:1;stroke:none;display:inline"
       d="m 20.371668,1044.7516 c 0,0 -0.328507,-0.8392 -0.492504,-4.3675 -0.180158,-3.8762 -1.746763,-8.4499 -1.759632,-9.1694 0.005,-0.6936 1.666939,-1.425 3.09501,-1.7313 6.155763,-1.4621 14.010204,15.7193 10.378755,15.2682 z"
       id="path3646-1-6"
       inkscape:connector-curvature="0"
       sodipodi:nodetypes="cscccc" />
    <path
       style="fill:url(#linearGradient4017);fill-opacity:1;stroke:none;display:inline"
       d="m 30.162977,1017.7345 c 6.474376,2.8754 13.213599,22.7668 17.140601,27.0171 -4.852386,-9e-4 -10.099465,0 -14.552696,0.016 -1.157585,-0.016 -0.283097,-1.3961 0.09537,-2.08 1.973341,-3.566 -5.051652,-10.4359 -2.649269,-18.081 0.514081,-1.636 -2.966524,-1.9701 -2.809463,-2.7618 0.27147,-1.3689 1.669565,-2.2641 2.775438,-4.1105 z"
       id="path3646-1-9-1"
       inkscape:connector-curvature="0"
       sodipodi:nodetypes="cccssscc" />
    <path
       style="opacity:0.8851675;fill:url(#radialGradient5628);fill-opacity:1;stroke:none;display:inline"
       d="m 10.447288,1017.9152 c 2.62326,1.2866 0.921948,-2.2222 3.745003,-3.22 0.860265,2.867 0.795581,5.0737 -1.310584,5.8593 -1.211856,0.452 -2.33754,-0.739 -3.5193234,-0.6562 -0.3560662,0.024 0.052933,-1.0194 1.0849044,-1.9841 z"
       id="path3646-1-8"
       inkscape:connector-curvature="0"
       sodipodi:nodetypes="ccsscc" />
    <path
       style="fill:url(#linearGradient3882);fill-opacity:1;stroke:none;display:inline"
       d="m 8.3587954,1013.4248 c 1.6292263,-1.4981 3.8595426,-2.3669 7.1096256,-3.0865 7.943873,-1.1627 17.33028,1.1376 10.305311,6.0056 -1.201493,2.2722 0.598256,4.8057 -0.323038,3.1458 -1.093882,-1.9708 -6.605418,-6.9377 -10.843952,-5.3948 -3.793729,1.381 -5.8632016,1.1874 -6.2479466,-0.6701 z"
       id="path3646-1-9"
       inkscape:connector-curvature="0"
       sodipodi:nodetypes="cccssc" />
    <path
       style="fill:#000000"
       d="m 41.893676,1040.6312 c 0.240478,-0.983 1.775357,0.9929 1.797319,1.2355 0.01016,0.075 -0.0541,0.3076 -0.258709,0.1905 -0.338181,-0.1934 -0.93838,-0.7944 -1.324988,-0.6043 -0.562756,0.3588 -0.219767,-0.7311 -0.213622,-0.8217 z"
       id="path3750"
       inkscape:connector-curvature="0"
       sodipodi:nodetypes="ccscc" />
    <path
       style="fill:#000000"
       d="m 23.075105,1042.3327 c 0.514758,-0.8075 0.765076,-0.9698 0.390594,-0.2836 -0.08495,0.1556 -0.159815,0.3857 -0.28062,0.6517 -0.25071,0.7005 -0.620466,1.6686 -0.925461,1.6256 -0.532274,-0.076 -0.313422,-0.485 0.815487,-1.9937 z"
       id="path3748"
       inkscape:connector-curvature="0"
       sodipodi:nodetypes="cscsc" />
    <path
       style="fill:#000000"
       d="m 35.852197,1038.2386 c -1.185473,0.1991 -1.634733,-1.1 -0.694986,-2.0099 0.182908,-0.1771 0.506611,0.049 0.352302,0.3339 -0.185867,0.3438 0.02381,0.579 0.222166,0.3818 0.59081,-0.5871 1.38713,0.6175 0.716038,1.0717 -0.223676,0.1471 -0.434632,0.1955 -0.59552,0.2225 z m 3.262622,2.711 c 0.222318,0.2987 1.348578,2.2795 1.155566,2.4311 -0.235703,0.1847 -1.126114,-0.5745 -1.910979,-2.1379 -0.170932,-0.6695 0.438127,-0.7574 0.755413,-0.2932 z m -1.963244,-2.1425 c 0.760132,0.044 1.640621,1.1696 1.20774,1.5608 -0.174105,0.1572 -1.565821,0.1693 -0.99848,-0.1696 0.877247,-0.2997 -0.935257,-1.2558 -0.20926,-1.3912 z m 0.616915,3.0081 c 0.371534,0.4877 -0.112149,0.3318 -0.459719,0.11 -0.827676,-0.1733 0.102568,1.0385 -0.774113,0.2074 -0.931937,-0.8975 -1.001193,-1.4524 -0.181273,-1.4524 0.791929,0.1672 1.061917,0.6757 1.415105,1.135 z"
       id="path3744"
       inkscape:connector-curvature="0"
       sodipodi:nodetypes="cssscccscccsccccccc" />
    <path
       style="fill:#000000"
       d="m 40.406572,1039.446 c -0.07329,-0.1353 -0.475232,-0.3554 -0.560758,-0.2646 -0.102211,0.1087 -0.07666,0.494 0.07117,0.6407 0.571222,0.5664 0.698932,0.012 0.489579,-0.3761 z"
       id="path3742"
       inkscape:connector-curvature="0"
       sodipodi:nodetypes="scss" />
    <path
       style="fill:#000000"
       d="m 24.090445,1042.0521 c 0,-0.7504 0.188077,-1.1289 0.756938,-1.0376 2.570985,0.4765 -0.732452,3.2628 -0.756938,1.0376 z"
       id="path3740"
       inkscape:connector-curvature="0"
       sodipodi:nodetypes="ccc" />
    <path
       style="fill:#000000"
       d="m 24.716039,1041.5421 c -0.129588,-0.138 -0.221758,0.108 -0.204826,0.5448 0.105089,1.0008 0.479184,-0.2249 0.204826,-0.5448 z"
       id="path3738"
       inkscape:connector-curvature="0"
       sodipodi:nodetypes="ccc" />
    <path
       style="fill:#000000"
       d="m 32.339402,1041.2066 c 0.253414,0 0.352293,-0.1869 0.21973,-0.4151 -0.367385,-0.6327 0.0641,-0.4951 0.755687,0.2411 0.770994,0.9324 0.51481,1.1435 0.03497,1.0624 -0.409798,-0.1622 -2.1577,-0.694 -1.010374,-0.8884 z"
       id="path3736"
       inkscape:connector-curvature="0"
       sodipodi:nodetypes="csccc" />
    <path
       style="fill:#000000"
       d="m 21.765531,1040.4815 c 0.103133,-0.9701 0.191939,-2.0949 0.197334,-2.4992 0.0691,-1.5561 0.768292,-0.8611 0.821763,-0.6299 0.05665,0.2449 -0.07917,0.8435 -0.07917,1.4142 0,0.7094 0.1541,0.945 0.487472,0.7444 0.389974,-0.234 0.389974,-0.1809 0,0.2663 -0.268113,0.3074 -0.480881,0.755 -0.472826,0.9947 0.0082,0.2398 0.619655,-0.3112 1.359118,-1.2243 0.739463,-0.9131 1.347079,-1.4267 1.350276,-1.1414 0.0064,0.5993 -2.932278,3.8391 -3.482741,3.8391 -0.203216,0 0.738079,-1.7639 -0.181191,-1.7639 z"
       id="path3734"
       inkscape:connector-curvature="0"
       sodipodi:nodetypes="ccsssssscssc" />
    <path
       style="fill:#000000"
       d="m 29.770191,1039.8909 c -0.211632,-0.5914 -0.166835,-0.6389 0.218317,-0.2322 0.266515,0.2816 0.38634,0.6165 0.266261,0.7441 -0.12007,0.1278 -0.338122,-0.1026 -0.484578,-0.5119 z"
       id="path3732"
       inkscape:connector-curvature="0"
       sodipodi:nodetypes="cccc" />
    <path
       style="fill:#000000"
       d="m 33.441654,1039.9876 c -0.358467,-0.2357 -0.336465,-0.6139 -0.0334,-0.8135 0.237393,-0.156 0.434308,-0.039 0.437585,0.2595 0.0045,0.395 0.10931,0.373 0.384009,-0.078 0.227147,-0.3739 0.380422,-0.4253 0.384007,-0.1282 -0.149631,1.0434 -0.595691,1.109 -1.172206,0.7599 z"
       id="path3730"
       inkscape:connector-curvature="0"
       sodipodi:nodetypes="cccccc" />
    <path
       style="fill:#000000"
       d="m 30.251619,1035.7163 c 0.241687,-0.3027 0.64716,-0.3228 0.508624,0.3903 0.351018,2.2807 1.584795,0.018 1.693102,1.0942 -0.05856,2.9741 -3.521105,0.4162 -2.201726,-1.4845 z"
       id="path3728"
       inkscape:connector-curvature="0"
       sodipodi:nodetypes="cccc" />
    <path
       style="fill:#000000"
       d="m 41.127113,1038.8438 c -0.254703,-0.4343 -0.746562,-0.6929 -1.119457,-0.5893 -0.36772,0.1027 -0.768752,-0.1017 -0.896878,-0.4573 -0.324238,-0.8994 0.200222,-1.1219 1.273778,-0.5405 1.062105,0.5754 2.295795,2.3612 1.631118,2.3612 -0.238833,0 -0.638685,-0.3485 -0.888561,-0.7741 z"
       id="path3726"
       inkscape:connector-curvature="0"
       sodipodi:nodetypes="ccccsc" />
    <path
       style="fill:#000000"
       d="m 24.42438,1037.3117 c -0.63449,-0.6752 -0.591444,-1.5771 0.07527,-1.5771 0.65569,0 1.172345,1.2455 0.717472,1.7295 -0.178619,0.1902 -0.535354,0.1218 -0.792748,-0.1524 z"
       id="path3724"
       inkscape:connector-curvature="0"
       sodipodi:nodetypes="cscc" />
    <path
       style="fill:#000000"
       d="m 33.270217,1036.74 c -0.25426,-0.7051 0.08743,-1.4989 0.645294,-1.4989 0.491814,0 0.47054,1.5432 -0.02579,1.8695 -0.340599,0.1828 -0.511168,-0.3056 -0.619509,-0.3706 z"
       id="path3722"
       inkscape:connector-curvature="0"
       sodipodi:nodetypes="cscc" />
    <path
       style="fill:#000000"
       d="m 27.075585,1038.2378 c -0.551733,-0.5872 -0.245305,-1.7985 0.454971,-1.7985 0.95875,0 1.188595,0.3065 0.95204,1.2694 -0.19599,0.7976 -0.904473,1.0639 -1.407011,0.5291 z"
       id="path3720"
       inkscape:connector-curvature="0"
       sodipodi:nodetypes="cscc" />
    <path
       style="fill:#000000"
       d="m 21.880362,1035.5298 c -0.0074,-0.942 0.763661,-2.1724 0.734043,-2.7278 -0.01393,-0.261 -0.80543,0.9698 -1.033905,0.938 -0.628368,-0.087 0.965143,-3.4257 -0.380514,-1.8095 -0.452238,0.5433 -1.009321,0.1378 -1.009321,-0.5556 0,-0.2037 0.171878,-0.2118 0.45626,-0.1283 0.402665,0.1184 0.278772,-0.3916 0.261502,-0.6381 -0.07923,-1.0203 1.337094,-0.4522 1.207332,0.2608 -0.03634,0.1998 -0.09903,0.4044 0.180779,0.3576 0.654457,-0.2832 0.17706,1.5462 0.567651,1.3162 0.488317,-0.029 0.284411,1.119 -0.196988,2.9867 -0.108974,1.2738 -0.783162,1.0712 -0.786839,0 z"
       id="path3718"
       inkscape:connector-curvature="0"
       sodipodi:nodetypes="cssssscscccc" />
    <path
       style="fill:#000000"
       d="m 35.014135,1034.4775 c -0.564338,-0.5522 -0.842613,-1.0444 0.193802,-1.1331 0.876201,-0.076 1.457571,0.503 1.468467,1.4491 0.0092,0.7929 -0.811781,0.5162 -1.662269,-0.316 z"
       id="path3716"
       inkscape:connector-curvature="0"
       sodipodi:nodetypes="ssss" />
    <path
       style="fill:#000000"
       d="m 38.260393,1034.6545 c -0.355582,-0.3784 -0.383302,-1.6532 0.04323,-1.7625 0.429622,-0.2717 1.808939,1.2092 1.308228,1.2092 -0.26814,0 -0.379068,0.1867 -0.246505,0.4149 0.266353,0.4587 -0.691308,0.5787 -1.104949,0.1384 z"
       id="path3714"
       inkscape:connector-curvature="0"
       sodipodi:nodetypes="ccscc" />
    <path
       style="fill:#000000"
       d="m 24.854156,1032.9475 c 0.536365,0.1016 0.437665,0.6073 0.929708,0.4704 0.512539,-0.1426 0.759428,-10e-4 0.759428,0.435 0,0.8342 -0.511433,1.1437 -0.996747,0.6581 -0.245045,-0.2454 -0.390214,-0.1038 -0.84078,0.096 -1.282547,0.2885 -1.17658,-1.7345 0.148391,-1.6602 z"
       id="path3712"
       inkscape:connector-curvature="0"
       sodipodi:nodetypes="cssscc" />
    <path
       style="fill:#000000"
       d="m 31.453485,1034.325 c -0.159222,-0.4417 -0.04784,-0.8783 0.279699,-1.0961 0.674067,-0.4488 1.01365,0.735 0.398661,1.3896 -0.291702,0.3103 -0.491822,0.2238 -0.67836,-0.2935 z"
       id="path3710"
       inkscape:connector-curvature="0"
       sodipodi:nodetypes="cccc" />
    <path
       style="fill:#000000"
       d="m 36.863961,1032.9052 c -0.376318,-1.0437 -0.265298,-1.3131 0.194418,-0.4716 0.227632,0.4166 0.331714,0.8449 0.231307,0.9517 -0.100408,0.1081 -0.291983,-0.1086 -0.425725,-0.4801 z"
       id="path3708"
       inkscape:connector-curvature="0"
       sodipodi:nodetypes="cccc" />
    <path
       style="fill:#000000"
       d="m 27.436715,1031.9043 c 0.160589,-0.1051 0.317512,0.1686 0.348707,0.6093 0.06271,0.8862 -0.0918,1.0209 -0.358705,0.3563 -0.198487,-0.3017 -0.213997,-0.9253 0.01006,-0.9656 z"
       id="path3706"
       inkscape:connector-curvature="0"
       sodipodi:nodetypes="cccc" />
    <path
       style="fill:#000000"
       d="m 19.441506,1032.4607 c -0.01688,-1.04 0.07527,-1.6226 0.204825,-1.2948 0.129585,0.3279 0.127647,1.5332 0.207846,1.8909 0.287238,0.9868 -0.354175,1.1339 -0.412671,-0.5961 z"
       id="path3704"
       inkscape:connector-curvature="0"
       sodipodi:nodetypes="cccc" />
    <path
       style="fill:#000000"
       d="m 24.692606,1031.912 c -0.544537,-0.5794 -0.608325,-1.5673 -0.101226,-1.5673 0.196616,0 0.434452,0.2337 0.528527,0.519 0.09407,0.2853 0.17451,0.022 0.17874,-0.5844 0.0045,-0.6064 0.189797,-1.7919 0.854685,-2.4935 0.167237,-0.1767 0.376636,-0.3566 0.652141,-0.3619 1.920722,-0.019 1.11708,3.4262 -0.477414,2.046 -0.773583,-0.5837 -0.942421,-0.5621 -0.372641,0.7132 0.616766,1.3806 -0.475914,2.5666 -1.26282,1.7289 z"
       id="path3702"
       inkscape:connector-curvature="0"
       sodipodi:nodetypes="ssscsccss" />
    <path
       style="fill:#000000"
       d="m 29.152126,1031.8784 c -0.445984,-0.2935 -0.467574,-0.4847 -0.09897,-0.877 0.368582,-0.3923 0.527258,-0.3468 0.727369,0.208 0.325847,0.904 0.0978,1.1464 -0.628394,0.669 z"
       id="path3700"
       inkscape:connector-curvature="0"
       sodipodi:nodetypes="cccc" />
    <path
       style="fill:#000000"
       d="m 33.29665,1031.6422 c -0.391644,-1.0862 -0.274107,-1.4188 0.501517,-1.4188 0.891657,0 1.319134,0.9646 0.713206,1.6097 -0.598746,0.637 -0.935198,0.5843 -1.214723,-0.1909 z"
       id="path3698"
       inkscape:connector-curvature="0"
       sodipodi:nodetypes="cscc" />
    <path
       style="fill:url(#linearGradient5608);fill-opacity:1;stroke:none;display:inline"
       d="m 3.8080258,1029.8631 c -0.1469096,-0.3287 -0.2286954,-0.4532 0.6265069,-0.6914 1.1436735,1.1578 5.7437083,-0.1552 8.4385933,-1.0865 0.822435,-0.2841 0.957779,-0.3015 1.130727,-0.3401 0.180387,-0.04 0.297616,-0.2658 1.86679,-0.9513 0.670157,1.0846 -0.966294,1.1772 -0.768966,1.9168 0.03853,0.1443 -0.367642,-0.046 -0.692309,0.075 -0.971428,0.3572 -2.297173,0.9188 -4.158198,1.6604 -3.6246033,1.4443 -4.4660933,0.6831 -6.4431442,-0.5811 z"
       id="path3646-1"
       inkscape:connector-curvature="0"
       sodipodi:nodetypes="ccsscssscc" />
    <path
       style="fill:#000000"
       d="m 18.723491,1009.8562 c -5.398115,0.2043 -8.700526,1.7251 -12.6593996,5.2623 -0.2810881,0.2355 -0.5178112,0.7981 -0.4909464,1.3062 0.026512,0.5017 0.02574,0.6727 0.175338,1.0076 -0.2835303,0.3744 -3.0829385,3.8338 -4.1379759,5.4115 -0.82152347,1.2287 -1.10911863,2.1732 -0.94682483,2.6127 0.18232294,0.7357 1.13164193,2.2136 1.89364993,3.1724 0.7240501,0.9107 1.5315011,1.8358 2.5248665,2.3883 0.6236943,0.3472 1.3301786,0.5327 2.0339204,0.5226 2.80586,-0.041 5.8604479,-2.9752 8.1356799,-2.314 1.285724,0.3325 1.709028,1.1402 2.20926,2.1274 0.721541,1.4067 1.518499,2.7145 1.788446,5.1503 0.342981,3.0953 0.435302,7.9083 0.420811,8.2481 l 1.136448,0 c 0,0 -0.433232,-5.0603 -0.840323,-8.3227 -0.284085,-2.2768 -1.187985,-3.8899 -1.52479,-5.019 0.590086,-0.822 0.550392,-0.949 1.579341,-1.3629 -0.953841,-0.071 -2.279927,-0.1848 -3.331421,-0.6718 -0.493965,-0.233 -0.755141,-0.5824 -1.788447,-0.6717 -1.724087,-0.1593 -4.9204808,1.7452 -7.4343285,2.2766 -1.7900029,0.2741 -2.9337713,-0.6947 -4.2081115,-1.8288 l -0.2454731,-0.2612 c 0.9149161,0.6292 1.3438553,0.5718 0.6662841,-0.1493 -0.8331314,-0.8866 -0.7968531,-2.0084 0.1402705,-2.9111 0.4289768,-0.4132 0.7714871,-1.0011 0.7714871,-1.3437 0,-0.1705 -0.044173,-0.4386 -0.1052029,-0.4103 -0.096083,0.045 -0.2859615,0.1766 -0.7364194,0.5969 -0.5293644,0.4942 -0.7014808,0.5385 -0.4909463,0.1495 0.2896497,-0.5353 0.2123717,-0.5235 -0.3506759,-0.039 -0.3601758,0.3109 -0.9165801,0.4254 -1.2273657,0.2986 -0.4767874,-0.1948 -0.5658285,-0.7111 0.2454731,-1.9035 0.6016829,-0.8906 0.9512776,-1.4133 1.5079064,-2.0898 0.5566378,-0.6765 2.1476195,-2.6598 2.8054074,-3.6203 0.3094871,-0.4515 0.5056821,-0.4956 0.5610815,-0.821 0.055383,-0.3254 -0.017212,-0.4885 0.035067,-0.9704 0.051936,-0.4817 0.240448,-0.645 0.6662847,-0.7464 0.3617453,-0.1087 0.5961485,-0.2935 0.5961485,-0.5598 0,-0.2663 0.100524,-0.3408 0.2454729,-0.1867 0.1449573,0.1544 0.413253,-0.3601 0.9117577,-0.8582 0.4985141,-0.4986 1.2632694,-0.5352 1.2624334,-0.3733 0.462626,0.3634 1.293837,-0.7653 1.683244,-0.1493 0.12966,0.2232 0.741745,0.3015 1.367637,0.2239 0.547432,-0.091 1.317025,-0.2769 1.47284,-0.4106 -0.04077,-0.2283 -0.7443,-0.036 -1.402704,0 -0.872716,0.044 -1.13286,-0.067 -0.981893,-0.4852 0.113878,-0.3159 0.412447,-0.5082 0.561081,-0.4104 0.354719,0.2332 1.393327,-0.3459 1.122163,-0.6345 0.809362,-0.2652 2.57246,-0.6067 2.91061,-0.4852 0.282813,0.9455 0.91775,0.6048 1.507906,0 0.361974,-0.013 0.700458,0 1.052028,0 -0.105651,1.0452 1.011844,0.6423 0.455879,-0.035 0.675619,-0.019 1.348296,0.013 1.963785,0.075 -0.06873,0.097 -0.07014,0.2854 -0.07014,0.4105 0,0.3235 0.201185,0.5008 0.45588,0.4106 0.385406,-0.1368 0.563413,-0.3984 0.561082,-0.6345 0.243272,0.026 0.492214,0.084 0.70135,0.1493 -0.107154,0.147 0.282223,0.4105 0.07015,0.5597 -0.826839,0.5827 1.093485,0.3735 1.01696,-0.4851 0.387563,0.037 0.795311,0.2133 1.227365,0.4479 -1.576373,0.46 -3.468738,2.0123 -2.419664,4.3293 -0.134721,0.2321 -0.433476,0.3397 -0.666283,0.1866 -0.240571,-0.1582 -0.321784,-0.1037 -0.175338,0.1492 0.141723,0.244 0.269341,0.2577 0,0.3733 -0.577905,0.056 1.711472,3.9167 2.415279,5.6915 2.215607,1.3337 2.070942,-1.2265 2.739656,-1.6982 0.733975,-0.872 1.396777,-1.6869 1.928718,-2.5378 1.514895,0.8809 2.94288,2.1715 3.576894,3.7321 0.113534,0.5133 0.05412,1.0292 -0.14027,1.1569 -0.614226,0.4039 -0.346833,1.0078 0.42081,1.0078 0.479304,-0.013 0.752944,-0.4771 1.192299,-0.3732 0.277039,0.1574 0.338215,0.2409 0.385745,0.6718 0.108916,0.227 -0.675731,0.9869 -1.89365,0.7837 -1.044114,-0.082 -1.632232,0.1134 -1.928719,0.5225 -0.31291,0.681 0.02716,1.2105 1.052027,0.7837 0.266082,-0.1704 0.468957,-0.6827 1.016962,-0.6344 0.547984,0.048 0.657814,0.5037 0.981891,0.7465 0.356417,0.2667 1.528812,-0.4119 1.858583,-0.2241 0.492121,0.3313 1.386632,1.9933 1.367635,2.3886 -0.01243,0.2592 -1.06064,1.2019 -1.402702,1.5302 -1.006869,0.8606 0.08947,1.3141 1.227364,0.5599 0.20427,-0.1488 0.5432,0.012 0.490947,0.373 -0.08971,0.6199 0.60118,0.3095 1.122163,0.1867 0.09574,-0.058 0.701673,1.1419 1.472839,2.6498 -0.206176,0.081 -0.444899,0.3057 -0.490946,0.5226 -0.180174,0.849 1.268397,1.1444 1.15723,2.3138 -0.160948,0.3631 0.201315,0.8912 0.561082,1.0824 0.381763,0.1471 0.460378,0.1778 0.650701,0.1313 1.385763,2.6746 2.655772,5.6275 3.596376,6.8478 0.139183,0.013 0.783747,-0.014 1.013061,0 -1.423648,-1.931 -4.234631,-7.5723 -5.260138,-9.6661 -3.354212,-6.7976 -7.0513,-13.0485 -10.976156,-19.2953 0.206989,-0.5993 0.372755,-1.2223 0.455879,-1.9034 0.108445,-2.4436 -2.892962,-2.6752 -4.278247,-2.5752 -2.24308,-1.2944 -5.438746,-1.4177 -8.521435,-1.4554 z m -5.435476,5.5608 c -0.595715,0.038 -1.984922,0.4204 -2.630069,0.4106 -0.517814,0 -0.451164,1.366 -0.596149,1.978 -2.7270428,2.3551 -3.064337,3.8035 -2.5248665,5.7848 0.279716,1.0271 0.9923283,3.7842 0.9818924,4.3293 -0.010373,0.5449 -0.1388508,0.9532 -0.4909459,1.2316 -0.3520951,0.2784 -1.3676366,0.1492 -1.3676366,0.1492 -0.6155693,-0.059 -1.6296088,-0.2612 -1.7884472,-0.2612 -0.5958321,-0.011 -0.761024,0.105 -0.7364195,0.224 0.015198,0.074 0.1106331,0.3051 0.5610815,0.3731 1.3717929,0.3315 2.8065605,0.7847 4.3834489,0.2613 0.6433467,-0.1865 3.2215959,-1.8042 4.8743949,-2.1273 0.107245,-0.02 -0.07557,-0.2016 -0.385743,-0.4105 -0.332958,-0.2277 -0.808753,-0.2558 -1.1923,-0.036 -0.821418,0.4678 -2.5614397,-1.3223 -2.104054,-2.1646 0.0811,-0.1495 0.145993,-0.2941 0.140271,-0.3359 -0.006,-0.043 -0.08178,0.042 -0.175339,0.1119 -0.5105576,0.3864 -1.8163907,-2.7716 -1.4728381,-4.1053 0.2705558,-1.0503 1.3966691,-2.6651 2.3495291,-2.3886 0.380894,0.1097 0.801637,0.1493 1.052027,-0.038 0.706486,-0.4899 1.42903,-2.7076 1.402704,-2.9109 0.03729,-0.09 -0.08198,-0.087 -0.280541,-0.075 z"
       id="path3127"
       inkscape:connector-curvature="0"
       sodipodi:nodetypes="ccccccsccccsccccccccccccscccccccccccscccccccccccccccscccccccccccccccccccccccccccsccscccccccccccccccscccccccccccsccccc" />
    <path
       style="fill:#ffcc00"
       d="m 0.93652464,1025.6159 c 0.12405636,0.2068 0.66177626,0.6391 0.90006536,0.8191 0.8133304,0.6142 1.3969353,1.9907 1.0810472,2.1707 -0.3760098,-0.3238 -1.5869901,-2.2327 -1.98111256,-2.9898 z"
       id="path3125"
       inkscape:connector-curvature="0"
       sodipodi:nodetypes="cccc" />
    <path
       style="fill:#000000"
       d="m 33.354591,1026.7386 c -0.01708,0.3016 -0.05783,0.3818 -0.307917,0.2171 -0.247614,-0.1627 -0.356444,-0.092 -0.332838,0.1419 0.02068,0.2065 0.07155,0.4528 0.306783,0.9133 0.268467,0.525 1.003137,1.0634 0.752228,0.044 -0.210844,-0.8933 0.881423,-0.367 0.758326,-1.1542 -0.221681,-0.4196 -0.612172,0.202 -0.769222,-0.2126 -0.151232,-0.2761 -0.434851,-0.3 -0.40736,0.053 z"
       id="path3123"
       inkscape:connector-curvature="0"
       sodipodi:nodetypes="csssccccc" />
    <path
       style="fill:#000000"
       d="m 30.44307,1029.6671 c 0,-0.8 0.886599,-1.4676 1.326788,-0.9989 0.425154,0.4524 0.242374,0.9054 -0.546832,1.3547 -0.65461,0.3729 -0.779956,0.3158 -0.779956,-0.3558 z"
       id="path3688"
       inkscape:connector-curvature="0"
       sodipodi:nodetypes="sscs" />
    <path
       style="fill:#000000"
       d="m 9.3610593,1015.9483 c 0.4563157,-1.4795 1.6080427,-2.0734 2.8221297,-2.4315 0.113057,0.1099 -0.360131,0.4753 -0.483949,0.8122 -1.073492,0.3441 -2.1903264,1.7992 -2.3381807,1.6193 z"
       id="path3686"
       inkscape:connector-curvature="0"
       sodipodi:nodetypes="cccc" />
    <path
       style="fill:#000000"
       d="m 14.194084,1015.6711 c 0.332785,-0.642 0.755661,0.9418 0.753818,1.3983 -0.05311,0.9727 -0.91211,-0.4644 -0.953257,-0.8921 -0.0095,-0.1562 0.199439,-0.5062 0.199439,-0.5062 z"
       id="path3682"
       inkscape:connector-curvature="0"
       sodipodi:nodetypes="sccs" />
    <path
       style="fill:#ffdd55"
       d="m 9.4567739,1027.3409 c 0.011107,-0.069 0.7506371,-0.1824 0.8176841,-0.2528 -0.01588,-0.048 -0.218864,-0.02 -0.5001971,-0.012 -0.6545663,0.035 -0.9120772,0.2691 -0.435335,0.5334 0.3059341,0.1869 0.8627911,0.2988 0.9244551,0.2743 -0.2948448,-0.1111 -0.8649861,-0.4516 -0.8066071,-0.5458 z"
       id="path3680"
       inkscape:connector-curvature="0"
       sodipodi:nodetypes="ccccccc" />
    <path
       style="fill:#000000"
       d="m 22.853438,1028.5246 c -0.125555,-0.3483 -0.05384,-0.633 0.159464,-0.633 0.214357,0 0.830014,-0.3511 0.279175,-0.7818 -0.618972,-0.4842 -0.04355,-1.1356 0.697158,-0.8167 1.09925,0.6078 0.957711,1.0092 0.763495,1.5621 -0.658867,0.9302 -0.59281,0.8637 -0.94811,0.9789 -0.350139,0.1135 -0.780314,0.1644 -0.951182,-0.3095 z"
       id="path3676"
       inkscape:connector-curvature="0"
       sodipodi:nodetypes="sssccss" />
    <path
       style="fill:#000000"
       d="m 20.592533,1027.2945 c 0.367466,-0.7307 0.531879,-0.8011 0.804016,-0.3437 0.567904,0.9543 0.410837,2.3043 -0.268115,2.3043 -1.021968,-0.098 -0.843227,-1.3259 -0.535901,-1.9606 z"
       id="path3672"
       inkscape:connector-curvature="0"
       sodipodi:nodetypes="cscc" />
    <path
       style="fill:#000000"
       d="m 34.234864,1029.0971 c 0,-0.3424 0.145271,-0.6225 0.467006,-0.6225 0.321727,0 0.499172,0.2801 0.499172,0.6225 0,0.3424 0.02632,0.6454 -0.29541,0.6454 -0.321735,0 -0.670768,-0.303 -0.670768,-0.6454 z"
       id="path3668"
       inkscape:connector-curvature="0"
       sodipodi:nodetypes="sssss" />
    <path
       style="fill:#000000"
       d="m 35.657977,1028.4404 c -0.08579,-0.9712 0.672162,-1.1305 0.894099,-0.2273 0.131439,0.5348 0.0097,0.8254 -0.345639,0.8254 -0.301654,0 -0.51954,-0.2707 -0.54846,-0.5981 z"
       id="path3666"
       inkscape:connector-curvature="0"
       sodipodi:nodetypes="scss" />
    <path
       style="fill:#000000"
       d="m 17.193837,1027.252 c -0.655908,-0.9343 -0.32503,-1.7145 0.606284,-1.5759 0.626453,0.092 0.834002,-0.098 0.838288,-0.6372 -0.117708,-0.5169 0.151492,-0.6595 0.445982,-0.1642 0.197052,0.3316 0.236862,0.81 0.06063,0.9834 -0.235677,0.232 -0.117459,0.286 0.234642,0.1171 0.564541,-0.3716 1.018143,0.5269 0.533248,1.043 -0.248105,0.2639 -0.63007,0.2111 -1.020169,-0.2041 -0.998059,-1.0986 -0.476224,0.1295 -0.661893,0.6131 -0.137282,0.3576 -0.732037,0.1755 -1.037028,-0.1751 z"
       id="path3664"
       inkscape:connector-curvature="0"
       sodipodi:nodetypes="cscsscscscc" />
    <path
       style="fill:#000000"
       d="m 25.658082,1024.1582 c 0.338362,-0.3721 0.543058,-0.3395 0.888196,-0.3056 1.008274,0.098 1.028813,1.4435 0.208604,1.8883 -0.287163,0.1556 -1.163444,0.7959 -0.786006,-0.6222 0.11037,-0.465 -0.660389,-0.3472 -0.310794,-0.9605 z m -0.588977,1.3871 c -0.476576,0.7743 -1.910827,-0.6278 -1.59743,-1.0434 0.332254,-0.6649 -0.07783,-0.7341 -0.276236,-1.1534 l 0,-7e-4 c -0.154099,-0.3488 0.02821,-0.7206 0.387517,-0.7206 0.382744,0 0.715065,0.3914 0.370772,0.8301 -0.453065,0.5772 -0.144037,0.7895 0.312893,0.7895 0.313048,-0.371 0.887314,0.9887 0.802484,1.2985 z m -4.374173,-2.8417 c -0.962932,-1.3521 -1.424294,-3.3013 -0.662998,-2.9907 0.276317,0.1123 0.395477,0.5135 0.266963,0.8962 -0.127869,0.3805 -0.09223,0.5569 0.07924,0.3916 0.302106,-0.2908 1.546774,1.6265 2.013583,3.1019 0.254396,0.9802 -0.123003,0.9599 -0.404809,0.7541 -0.448487,-0.7699 -0.864711,-1.4676 -1.291982,-2.1531 z"
       id="path3662"
       inkscape:connector-curvature="0"
       sodipodi:nodetypes="cssccccccssccccccccc" />
    <path
       id="path3660"
       style="fill:#000000"
       d="m 5.0986235,1026.0516 c 1.5133046,0.065 1.805594,-0.301 1.805594,-0.301 0,0 0.2466258,-0.5762 0.4043473,-0.1393 0.1559149,0.4324 -0.2001844,0.5943 -1.4081366,0.6402 -1.1899391,0.047 -1.9369194,-0.1037 -1.2576833,-0.1727 z"
       inkscape:connector-curvature="0"
       sodipodi:nodetypes="cccccc" />
    <path
       style="fill:#000000"
       d="m 15.638802,1025.4849 c -0.01687,-0.4374 0.154153,-0.6825 0.283716,-0.5447 0.693505,0.7467 -0.172142,1.4433 -0.283716,0.5447 z"
       id="path3656"
       inkscape:connector-curvature="0"
       sodipodi:nodetypes="ccc" />
    <path
       style="fill:#000000"
       d="m 29.602711,1022.4651 c -0.341175,-1.9172 0.713315,-1.7719 1.077905,-0.335 0.142422,0.9574 0.913417,1.5658 0.836389,1.9971 -0.182082,1.0193 -1.584097,0.6112 -1.914294,-1.6621 z"
       id="path3654"
       inkscape:connector-curvature="0"
       sodipodi:nodetypes="ccsc" />
    <path
       style="fill:#000000"
       d="m 20.148031,1024.668 c -0.267897,-0.4567 -0.345202,-0.8302 -0.171794,-0.8302 0.40626,0 1.251222,0.8969 1.251222,1.3282 0,0.6115 -0.587362,0.3406 -1.079428,-0.498 z"
       id="path3650"
       inkscape:connector-curvature="0"
       sodipodi:nodetypes="ssss" />
    <path
       style="fill:#000000"
       d="m 16.935002,1023.8045 c -0.110218,-0.3055 -0.107592,-0.6543 0.0056,-0.7753 0.276212,-0.2939 1.299923,0.142 1.299923,0.5535 0.01255,0.8892 -1.218787,0.6647 -1.305421,0.2218 z"
       id="path3646"
       inkscape:connector-curvature="0"
       sodipodi:nodetypes="cccc" />
    <path
       style="fill:#000000"
       d="m 31.500029,1022.8356 c 0,-0.1826 0.20483,-0.55 0.455187,-0.8164 0.34693,-0.3692 0.300564,-0.5474 -0.194991,-0.75 -0.357598,-0.1459 -0.650181,-0.5256 -0.650181,-0.8436 0,-0.6865 0.200595,-0.7151 1.163085,-0.1669 0.623559,0.355 0.66152,0.5811 0.278836,1.66 -0.40628,1.1456 -1.051936,1.7085 -1.051936,0.9169 z"
       id="path3640"
       inkscape:connector-curvature="0"
       sodipodi:nodetypes="sccsccs" />
    <path
       style="fill:#000000"
       d="m 17.944684,1019.4841 c 0.245147,-0.054 0.398571,0.2018 0.340947,0.5655 -0.05763,0.3637 0.144749,1.0824 0.449724,1.5971 0.602796,1.017 1.31553,1.8815 0.485403,1.2714 -0.723685,-0.7813 -1.90972,-3.2225 -1.276074,-3.434 z"
       id="path3880"
       inkscape:connector-curvature="0"
       sodipodi:nodetypes="ccccc" />
    <path
       style="fill:#000000"
       d="m 16.345707,1021.0904 c 0.363991,0.7722 0.333592,0.9338 -0.17558,0.9336 -0.338678,-2e-4 -0.5653,-0.2337 -0.503591,-0.519 0.06174,-0.2853 -0.0621,-0.5189 -0.275138,-0.5189 -0.213033,0 -0.343526,0.1398 -0.289986,0.3112 0.192539,0.6157 -0.604492,0.296 -0.831098,-0.3333 -0.127571,-0.3544 -0.07064,-0.5381 0.126516,-0.4083 0.197141,0.13 0.419617,-0.1 0.598821,-0.2699 0.584555,-0.4652 0.96257,0.2274 1.350056,0.8046 z"
       id="path3638"
       inkscape:connector-curvature="0"
       sodipodi:nodetypes="cccccsccc" />
    <path
       style="fill:#000000"
       d="m 28.05881,1022.7094 c 0,-0.2284 0.15404,-0.4494 0.368533,-0.4494 0.214484,0 0.389973,0.1869 0.389973,0.415 0,0.2283 -0.0041,0.5864 -0.218385,0.5864 -0.214492,0 -0.540121,-0.3237 -0.540121,-0.552 z"
       id="path3636"
       inkscape:connector-curvature="0"
       sodipodi:nodetypes="sssss" />
    <path
       style="fill:#000000"
       d="m 22.073827,1021.4547 c -0.116647,-0.3236 0.02015,-0.6831 0.304114,-0.7992 0.352413,-0.1439 0.488976,0.1182 0.354942,0.6629 -0.234322,0.9537 -0.377995,0.9158 -0.659056,0.1363 z"
       id="path3634"
       inkscape:connector-curvature="0"
       sodipodi:nodetypes="cccc" />
    <path
       style="fill:#000000"
       d="m 14.015209,1018.7268 c 0.347954,0.5931 0.325458,1.014 -0.105886,1.014 -0.879779,-0.033 -0.193556,-1.6787 0.105886,-1.014 z"
       id="path3628"
       inkscape:connector-curvature="0"
       sodipodi:nodetypes="ccc" />
    <path
       style="fill:#000000"
       d="m 22.530532,1019.0174 c -0.229572,-0.4565 -0.329668,-0.8303 -0.222428,-0.8303 0.107245,0 0.382829,0.3738 0.612411,0.8303 0.229584,0.4564 0.329678,0.83 0.222428,0.83 -0.107245,0 -0.382828,-0.3736 -0.612411,-0.83 z"
       id="path3626"
       inkscape:connector-curvature="0"
       sodipodi:nodetypes="cscsc" />
    <path
       style="fill:#000000"
       d="m 20.068243,1017.9498 c -0.625465,-0.5327 -0.968073,-1.0798 -0.761335,-1.216 0.481973,-0.317 0.992762,0.081 1.609376,1.2547 0.609895,1.1603 0.557365,1.1579 -0.848041,-0.039 z"
       id="path3624"
       inkscape:connector-curvature="0"
       sodipodi:nodetypes="ccccc" />
    <path
       style="fill:#000000"
       d="m 16.08571,1017.0129 c -0.474047,-0.6077 -0.20497,-1.0986 0.602396,-1.0986 0.58094,0 0.711854,1.0699 0.174172,1.4236 -0.19018,0.1257 -0.539642,-0.021 -0.776568,-0.325 z"
       id="path3622"
       inkscape:connector-curvature="0"
       sodipodi:nodetypes="cscc" />
    <path
       style="fill:#000000"
       d="m 17.460826,1018.6267 c 0,-0.2148 0.173483,-0.5046 0.385515,-0.6441 0.221058,-0.1455 0.286436,0.021 0.153265,0.3906 -0.259252,0.7189 -0.53878,0.8505 -0.53878,0.2535 z"
       id="path3620"
       inkscape:connector-curvature="0"
       sodipodi:nodetypes="sccs" />
    <path
       style="fill:#000000"
       d="m 7.7318319,1017.2766 c 0.1554612,-0.3297 0.8023997,-0.8658 1.0792117,-0.7915 0.020149,0.042 -0.5793094,0.3247 -0.5908758,0.836 -0.00817,0.3516 -0.5573,0.6293 -0.6327382,0.5827 -0.055842,-0.034 0.067189,-0.4637 0.1444023,-0.6272 z"
       id="path3616"
       inkscape:connector-curvature="0"
       sodipodi:nodetypes="scsss" />
    <path
       style="fill:#000000"
       d="m 17.850798,1015.693 c 0,-0.2419 0.175491,-0.4396 0.389983,-0.4396 0.214485,0 0.389982,0.082 0.389982,0.1831 0,0.1005 -0.175497,0.2983 -0.389982,0.4396 -0.214492,0.1409 -0.389983,0.059 -0.389983,-0.1831 z"
       id="path3610"
       inkscape:connector-curvature="0"
       sodipodi:nodetypes="ssscs" />
    <path
       style="fill:#000000"
       d="m 13.368825,1014.0414 c -0.13663,-0.2352 0.01987,-0.3047 0.366958,-0.163 0.6756,0.2759 0.799213,0.5734 0.238263,0.5734 -0.201837,0 -0.474183,-0.1846 -0.605221,-0.4104 z"
       id="path3606"
       inkscape:connector-curvature="0"
       sodipodi:nodetypes="ccsc" />
    <path
       style="fill:#000000"
       d="m 18.62047,1013.9461 c 0.317004,-0.1411 0.429049,-0.3583 0.01977,-0.4851 -0.225632,-0.067 -0.344722,-0.3332 0.131094,-0.3559 0.375357,-0.018 0.682466,0.2473 0.682466,0.5895 0,0.3425 -0.307109,0.6199 -0.682466,0.6165 -0.534094,-0.013 -0.36257,-0.3084 -0.150865,-0.365 z"
       id="path3604"
       inkscape:connector-curvature="0"
       sodipodi:nodetypes="cccscc" />
    <path
       style="fill:#000000"
       d="m 21.466875,1012.5972 c -0.132564,-0.2285 0.03249,-0.4152 0.366957,-0.4152 0.334391,0 0.607992,0.1867 0.607992,0.4152 0,0.2281 -0.165142,0.4149 -0.366962,0.4149 -0.201835,0 -0.475424,-0.1868 -0.607987,-0.4149 z"
       id="path3602"
       inkscape:connector-curvature="0"
       sodipodi:nodetypes="csssc" />
    <path
       style="fill:#000000"
       d="m 16.007184,1013.1739 c 0.132565,-0.2281 0.493893,-0.4151 0.802973,-0.4151 0.309067,0 0.56195,0.187 0.56195,0.4151 0,0.2284 -0.36134,0.4151 -0.802973,0.4151 -0.441632,0 -0.694514,-0.1867 -0.56195,-0.4151 z"
       id="path3600"
       inkscape:connector-curvature="0"
       sodipodi:nodetypes="csssc" />
    <path
       style="fill:#000000"
       d="m 18.57452,1012.0157 c 0.267251,-0.4601 1.314883,-0.4121 1.314883,0.06 0,0.2141 -0.338811,0.3621 -0.752925,0.3289 -0.475273,0.055 -0.64798,-0.3143 -0.561958,-0.3886 z"
       id="path3598"
       inkscape:connector-curvature="0"
       sodipodi:nodetypes="cscc" />
    <path
       style="fill:#000000"
       d="m 15.714291,1011.6742 c 0.3805,-0.2474 0.957201,-0.4788 1.281696,-0.408 0.550935,0.1194 0.202526,0.6719 -0.356282,0.5642 -0.140772,-0.026 -0.546397,0.064 -0.901442,0.2029 -0.61715,0.1761 -0.175716,-0.2604 -0.02397,-0.3591 z"
       id="path3596"
       inkscape:connector-curvature="0"
       sodipodi:nodetypes="scccs" />
    <path
       id="path3660-1"
       style="fill:#000000"
       d="m 4.5894924,1027.4062 c 0.813884,0.1016 2.8662806,-0.4361 3.0546539,-0.095 -0.22983,0.1898 -0.9922868,0.315 -2.2002388,0.361 -1.1899392,0.046 -0.8544151,-0.9276 -0.8544151,-0.2658 z"
       inkscape:connector-curvature="0"
       sodipodi:nodetypes="ccssc" />
    <path
       style="fill:#000000"
       d="m 28.077327,1026.8294 c -0.452519,-0.6513 -0.201192,-1.9949 0.373167,-1.9949 0.786357,0 0.974876,0.34 0.780856,1.4078 -0.160754,0.8847 -0.741841,1.1804 -1.154023,0.5871 z"
       id="path3720-1"
       inkscape:connector-curvature="0"
       sodipodi:nodetypes="ssss" />
    <path
       inkscape:connector-curvature="0"
       style="fill:#000000"
       d="m 13.463357,1024.7683 c -0.125663,-0.4417 -0.02415,-0.9071 0.234376,-1.1252 0.532006,-0.4484 0.93625,0.6627 0.450865,1.3172 -0.230226,0.3104 -0.538014,0.3252 -0.685241,-0.192 z"
       id="path3710-7"
       sodipodi:nodetypes="cssc" />
    <path
       style="fill:url(#linearGradient3898);fill-opacity:1;stroke:none"
       d="m 22.786571,1017.0879 c 1.026707,0.04 1.919574,-1.1067 1.560188,-2.0652 -0.570887,-1.5223 0.359022,-2.6345 2.902422,-2.5646 1.428647,0.04 1.831406,0.4899 1.54441,1.6579 -0.288667,1.1749 -0.927468,1.1987 -1.211563,0.044 -0.200307,-0.8155 -0.274912,-0.7818 -0.958597,0.51 -0.409365,0.7734 -0.656905,1.0864 -0.545869,0.6943 0.266029,-0.9397 -0.218928,-1.2108 -0.852089,-0.4818 -0.276566,0.3185 -0.328563,0.581 -0.119825,0.581 0.599112,0 0.09054,2.0857 -0.852087,3.4856 -0.551143,1.4432 0.949287,0.8622 0.572497,0.6156 -0.126121,-0.082 -0.393456,-0.1474 -0.252964,-0.3888 0.161433,-0.278 0.447338,-0.163 0.785518,0.3117 0.492697,0.6917 0.547765,0.6851 0.559182,0.027 0.0084,-0.4902 0.210232,-0.634 0.65238,-0.4534 0.541357,0.221 0.595896,0.082 0.359475,-0.9352 -0.184682,-0.795 -0.145813,-1.0664 0.106516,-0.7934 0.156511,0.1691 0.602004,1.7403 0.820974,1.321 0.36111,-1.4877 1.081074,-3.6164 1.841799,-3.6164 0.308133,0 0.452098,-0.1829 0.319534,-0.4111 -0.13256,-0.2283 -0.07394,-0.411 0.133138,-0.411 1.03786,-1.5105 -0.898755,-2.2078 -2.255732,-2.3984 0.193638,-0.1159 1.525344,0.1122 2.069337,0.3724 2.876005,1.256 -1.669823,8.1166 -2.968993,8.1472 -0.266191,-0.093 -0.711225,0.077 -0.998541,0.3826 -0.287313,0.3058 -0.681519,0.4558 -0.878714,0.3261 -0.197197,-0.1298 -0.346694,0 -0.1933,0.1982 0.424595,0.7111 1.767793,-0.394 1.395636,0.7728 -0.450675,0.3637 -1.06118,-0.2605 -0.989805,0.191 -0.878522,-1.6815 -1.874792,-3.424 -2.544927,-5.1198 z"
       id="path3644-1"
       inkscape:connector-curvature="0"
       sodipodi:nodetypes="csssssssscssssccccsccccccccccc" />
    <path
       style="fill:#d4aa00;fill-opacity:1;stroke:none"
       d="m 11.808571,1016.2396 c 0.424921,0.3425 0.481378,1.1819 0.03017,1.5923 -0.283072,0.2577 -0.59969,0.1312 -0.727874,-0.3931 -0.160962,-0.6582 0.145278,-1.1674 0.417294,-1.2253 -0.01857,0.4251 -0.100063,1.263 0.1263,1.5159 -0.0312,-0.3938 0.0087,-1.2383 0.154115,-1.4898 z"
       id="path3151"
       inkscape:connector-curvature="0"
       sodipodi:nodetypes="cssccc" />
    <path
       style="fill:#ffcc00;fill-opacity:1;stroke:none"
       d="m 11.250084,1016.784 c 0.0093,-0.096 0.01741,-0.2173 0.09275,-0.219 0.04497,-0.011 0.06923,0.03 0.05998,0.1272 -0.009,0.095 -0.01739,0.2173 -0.09274,0.219 -0.04498,0 -0.07012,-0.033 -0.06,-0.1272 z"
       id="path3154"
       inkscape:connector-curvature="0"
       sodipodi:nodetypes="casacc" />
    <path
       inkscape:connector-curvature="0"
       style="fill:#000000;display:inline"
       d="m 42.254903,1043.6406 c -0.125663,-0.4416 -0.02415,-0.9071 0.234376,-1.1251 0.532006,-0.4485 0.936251,0.6627 0.450866,1.3172 -0.230227,0.3104 -0.538016,0.3254 -0.685242,-0.1921 z"
       id="path3710-7-1"
       sodipodi:nodetypes="cssc" />
    <path
       style="fill:#000000;display:inline"
       d="m 30.635092,1043.3758 c -0.116648,-0.3236 0.02015,-0.6831 0.304113,-0.7991 0.352413,-0.1439 0.453909,0.044 0.319874,0.5881 -0.234322,0.9537 -0.342926,0.9905 -0.623987,0.211 z"
       id="path3634-7"
       inkscape:connector-curvature="0"
       sodipodi:nodetypes="cccc" />
    <path
       style="fill:#000000;display:inline"
       d="m 35.509087,1043.2633 c -0.388135,-0.1292 -0.400829,0.2074 -0.233943,0.3688 0.347123,0.2469 0.109635,0.5098 -0.307384,0.2647 -0.328846,-0.1934 -0.460687,-0.5901 -0.292737,-0.8821 0.168015,-0.2921 0.565989,-0.3577 0.884431,-0.1463 0.449274,0.3075 0.198583,0.4778 -0.05037,0.3949 z"
       id="path3604-4"
       inkscape:connector-curvature="0"
       sodipodi:nodetypes="cccscc" />
    <path
       style="fill:#000000;display:inline"
       d="m 28.652656,1033.9084 c 0.278653,0.015 0.377999,0.231 0.220704,0.4786 -0.0081,0.236 0.216514,0.2101 0.326794,0.1691 0.386871,-0.1695 0.605724,-0.045 0.449641,0.2021 -0.329002,0.7322 -1.097031,1.111 -1.435792,-0.012 -0.02131,-0.3324 0.07589,-0.7597 0.438653,-0.8377 z"
       id="path3730-1"
       inkscape:connector-curvature="0"
       sodipodi:nodetypes="cccccc" />
    <path
       style="fill:#000000;display:inline"
       d="m 28.484969,1041.2611 c -0.365684,0.1893 -0.157889,0.4435 0.06754,0.4393 0.411679,-0.074 0.408271,0.2905 -0.05302,0.4168 -0.363892,0.1 -0.715566,-0.092 -0.781611,-0.4279 -0.06599,-0.3353 0.181123,-0.6737 0.549148,-0.7522 0.525108,-0.1038 0.452427,0.2024 0.217954,0.324 z"
       id="path3604-4-7"
       inkscape:connector-curvature="0"
       sodipodi:nodetypes="cccscc" />
  </g>
  <g
     inkscape:groupmode="layer"
     id="layer2"
     inkscape:label="Main"
     style="display:inline"
     transform="translate(0,-1004.362)" />
</svg>
