<?xml version="1.0" encoding="UTF-8" standalone="no"?>
<!-- Created with Inkscape (http://www.inkscape.org/) -->

<svg
   xmlns:dc="http://purl.org/dc/elements/1.1/"
   xmlns:cc="http://creativecommons.org/ns#"
   xmlns:rdf="http://www.w3.org/1999/02/22-rdf-syntax-ns#"
   xmlns:svg="http://www.w3.org/2000/svg"
   xmlns="http://www.w3.org/2000/svg"
   xmlns:sodipodi="http://sodipodi.sourceforge.net/DTD/sodipodi-0.dtd"
   xmlns:inkscape="http://www.inkscape.org/namespaces/inkscape"
   width="744.09448"
   height="1052.3622"
   id="svg2"
   sodipodi:version="0.32"
   inkscape:version="0.48.0 r9654"
   sodipodi:docname="head.svg"
   inkscape:output_extension="org.inkscape.output.svg.inkscape"
   version="1.1">
  <title
     id="title3059">Cheetah Head</title>
  <defs
     id="defs4">
    <inkscape:perspective
       sodipodi:type="inkscape:persp3d"
       inkscape:vp_x="0 : 526.18109 : 1"
       inkscape:vp_y="0 : 1000 : 0"
       inkscape:vp_z="744.09448 : 526.18109 : 1"
       inkscape:persp3d-origin="372.04724 : 350.78739 : 1"
       id="perspective10" />
    <inkscape:perspective
       id="perspective2390"
       inkscape:persp3d-origin="372.04724 : 350.78739 : 1"
       inkscape:vp_z="744.09448 : 526.18109 : 1"
       inkscape:vp_y="0 : 1000 : 0"
       inkscape:vp_x="0 : 526.18109 : 1"
       sodipodi:type="inkscape:persp3d" />
  </defs>
  <sodipodi:namedview
     id="base"
     pagecolor="#ffffff"
     bordercolor="#666666"
     borderopacity="1.0"
     gridtolerance="10000"
     guidetolerance="10"
     objecttolerance="10"
     inkscape:pageopacity="0.0"
     inkscape:pageshadow="2"
     inkscape:zoom="0.65132068"
     inkscape:cx="435.23118"
     inkscape:cy="966.83394"
     inkscape:document-units="px"
     inkscape:current-layer="layer1"
     showgrid="false"
     inkscape:window-width="1440"
     inkscape:window-height="844"
     inkscape:window-x="-4"
     inkscape:window-y="-4"
     inkscape:window-maximized="1"
     showguides="true">
    <inkscape:grid
       type="xygrid"
       id="grid3876"
       empspacing="5"
       visible="true"
       enabled="true"
       snapvisiblegridlinesonly="true" />
  </sodipodi:namedview>
  <metadata
     id="metadata7">
    <rdf:RDF>
      <cc:Work
         rdf:about="">
        <dc:format>image/svg+xml</dc:format>
        <dc:type
           rdf:resource="http://purl.org/dc/dcmitype/StillImage" />
        <dc:title>Cheetah Head</dc:title>
        <cc:license
           rdf:resource="http://creativecommons.org/licenses/by-nd/3.0/" />
        <dc:creator>
          <cc:Agent>
            <dc:title>Zaher Dirkey</dc:title>
          </cc:Agent>
        </dc:creator>
        <dc:subject>
          <rdf:Bag />
        </dc:subject>
      </cc:Work>
      <cc:License
         rdf:about="http://creativecommons.org/licenses/by-nd/3.0/">
        <cc:permits
           rdf:resource="http://creativecommons.org/ns#Reproduction" />
        <cc:permits
           rdf:resource="http://creativecommons.org/ns#Distribution" />
        <cc:requires
           rdf:resource="http://creativecommons.org/ns#Notice" />
        <cc:requires
           rdf:resource="http://creativecommons.org/ns#Attribution" />
      </cc:License>
    </rdf:RDF>
  </metadata>
  <g
     inkscape:label="Layer 1"
     inkscape:groupmode="layer"
     id="layer1"
     style="display:inline"
     transform="translate(0,2.472441e-5)">
    <path
       style="fill:#000000"
       d="m 522.18647,380.07667 c -1.54441,-0.21684 -3.70168,-0.70215 -4.79397,-1.07858 -1.09231,-0.37638 -2.65626,-0.52835 -3.47549,-0.33768 -1.80417,0.41993 -1.85183,-0.70998 -0.28401,-6.73268 1.80523,-6.93471 3.45736,-5.86751 13.49226,8.71557 -0.14937,2.42406 -3.30355,-0.22867 -4.93879,-0.56663 z"
       id="path3750"
       inkscape:connector-curvature="0" />
    <path
       style="fill:#000000"
       d="m 372.49568,385.37721 c 4.26504,-5.85505 4.26504,-5.85505 2.10893,0 -5.13068,22.67861 -15.43542,18.53741 -2.10893,0 z"
       id="path3748"
       inkscape:connector-curvature="0" />
    <path
       style="fill:#000000"
       d="m 408.28124,374.62939 c 2.22156,-3.03812 4.55378,-4.20856 4.03919,-2.12873 -4.85481,19.6212 1.18134,0.3969 4.39127,1.71007 24.42961,9.10281 -32.09938,33.76741 -8.43046,0.41866 z"
       id="path3746"
       inkscape:connector-curvature="0"
       sodipodi:nodetypes="cscc" />
    <path
       style="fill:#000000"
       d="m 487.2332,377.69077 c -2.70765,-5.16769 -4.76658,-6.58328 -6.20056,-4.26303 -1.18079,1.91054 -0.38673,5.64497 1.76455,8.29872 2.7891,3.44053 2.86142,4.19416 0.25202,2.62651 -6.2132,-1.22244 -2.93331,5.47309 -9.51441,-0.3892 -6.99597,-6.33125 -7.51588,-10.2463 -1.3608,-10.2463 3.79129,0 3.92299,-1.03035 0.84182,-6.58692 -2.00886,-3.62282 -3.37257,-7.57498 -3.03051,-8.78258 0.34211,-1.20757 -0.36608,-2.03959 -1.57368,-1.84895 -8.89923,1.40516 -12.27176,-7.75927 -5.21716,-14.17693 1.37307,-1.24908 1.54885,-0.62437 0.3906,1.38829 -1.39527,2.42455 -0.0716,3.65943 3.9219,3.65943 4.42364,0 6.02783,1.88403 6.02783,7.07935 0,9.05875 2.79471,16.34078 6.27122,16.34078 1.57555,0 1.4602,-2.34893 -0.27442,-5.59033 -2.37979,-4.44664 -2.05353,-5.4526 1.59487,-4.91714 5.6529,0.8297 9.91094,7.26412 8.03765,12.14587 -0.81316,2.11908 0.74546,3.44975 3.73998,3.19302 18.3839,18.69669 5.04601,22.12334 -5.67079,2.06941 z"
       id="path3744"
       inkscape:connector-curvature="0" />
    <path
       style="fill:#000000"
       d="m 501.52029,366.2724 c -0.95347,-2.48464 -2.36144,-3.88966 -3.1288,-3.12231 -0.76735,0.7674 -0.52688,2.80031 0.53444,4.51755 2.88668,4.67074 4.5739,3.76337 2.59436,-1.39524 z"
       id="path3742"
       inkscape:connector-curvature="0" />
    <path
       style="fill:#000000"
       d="m 380.11774,383.39838 c 0,-5.29296 1.57287,-7.31881 5.68225,-7.31881 19.30007,3.36026 -5.49848,23.01419 -5.68225,7.31881 z"
       id="path3740"
       inkscape:connector-curvature="0" />
    <path
       style="fill:#000000"
       d="m 384.81397,379.79998 c -0.97281,-0.97281 -1.6647,0.75626 -1.5376,3.84237 0.78891,7.06064 3.59718,-1.58551 1.5376,-3.84237 z"
       id="path3738"
       inkscape:connector-curvature="0" />
    <path
       style="fill:#000000"
       d="m 444.84054,379.67312 c 1.90233,0 2.64458,-1.31737 1.64947,-2.9275 -2.75789,-4.46234 0.48127,-3.4918 5.67283,1.69978 14.1618,20.52378 -18.50022,1.42635 -7.3223,1.22772 z"
       id="path3736"
       inkscape:connector-curvature="0" />
    <path
       style="fill:#000000"
       d="m 362.66486,372.31957 c 0.77423,-6.84307 1.44088,-14.77584 1.48137,-17.62837 0.51847,-10.97598 4.65619,-5.3772 6.16887,-4.44232 1.51269,0.93489 -0.59459,5.94896 -0.59459,9.97429 0,5.00522 1.15678,6.66569 3.65939,5.2528 2.92752,-1.65284 2.92752,-1.27752 0,1.87648 -2.01266,2.16836 -3.60991,5.32574 -3.54947,7.01638 0.0604,1.69063 4.65168,-2.19565 10.20275,-8.63618 5.55106,-6.44053 10.11241,-10.06333 10.13638,-8.05065 0.0502,4.2279 -22.01226,27.07952 -26.14451,27.07952 -1.52554,0 -2.13609,-5.58461 -1.36019,-12.44195 z"
       id="path3734"
       inkscape:connector-curvature="0"
       sodipodi:nodetypes="scsssssscss" />
    <path
       style="fill:#000000"
       d="m 422.75495,368.15518 c -1.58871,-4.17229 -1.25244,-4.50852 1.63882,-1.63879 2.00074,1.98584 2.90021,4.34808 1.99884,5.24941 -0.90136,0.90133 -2.5383,-0.72342 -3.63766,-3.61062 z"
       id="path3732"
       inkscape:connector-curvature="0" />
    <path
       style="fill:#000000"
       d="m 450.65769,367.46983 c -2.69098,-1.66313 -2.86732,-2.9647 -0.59208,-4.37087 1.78203,-1.10136 3.26024,-0.27793 3.28489,1.82968 0.0327,2.78463 0.82058,2.63179 2.88269,-0.55908 1.70516,-2.63857 2.85577,-2.99965 2.8827,-0.90466 0.063,4.90585 -3.93636,6.79956 -8.4582,4.00493 z"
       id="path3730"
       inkscape:connector-curvature="0" />
    <path
       style="fill:#000000"
       d="m 434.52807,362.86283 c -4.01612,-2.6623 -13.29739,-21.60346 -11.47754,-23.42333 0.77414,-0.77414 2.23821,0.75709 3.25343,3.40273 1.01523,2.64566 3.52743,4.81027 5.58266,4.81027 2.05521,0 4.43273,3.62284 5.2833,8.0507 1.78249,9.2789 1.54128,9.93259 -2.64185,7.15963 z"
       id="path3728"
       inkscape:connector-curvature="0" />
    <path
       style="fill:#000000"
       d="m 508.49512,358.9084 c -1.91205,-3.06166 -5.60437,-4.88742 -8.40366,-4.1554 -2.76044,0.72187 -5.77096,-0.72137 -6.73272,-3.22765 -2.43409,-6.34325 1.50303,-7.91218 9.56206,-3.81048 7.97311,4.05795 17.23429,16.65469 12.24461,16.65469 -1.79287,0 -4.79451,-2.45752 -6.67029,-5.46116 z"
       id="path3726"
       inkscape:connector-curvature="0" />
    <path
       style="fill:#000000"
       d="m 382.62454,349.96159 c -4.76302,-4.76304 -4.43993,-11.12458 0.56503,-11.12458 4.92216,0 8.8006,8.78498 5.38594,12.1996 -1.34088,1.34088 -4.01884,0.85711 -5.95097,-1.07502 z"
       id="path3724"
       inkscape:connector-curvature="0" />
    <path
       style="fill:#000000"
       d="m 448.63429,345.66642 c -1.90866,-4.97394 0.65641,-10.57205 4.84415,-10.57205 3.69203,0 3.53234,10.88394 -0.19349,13.18659 -1.62153,1.00215 -3.71433,-0.1743 -4.65073,-2.61454 z"
       id="path3722"
       inkscape:connector-curvature="0" />
    <path
       style="fill:#000000"
       d="m 404.69001,353.648 c -4.14181,-4.14181 -1.84147,-12.68595 3.4154,-12.68595 7.19724,0 8.9227,2.16134 7.1469,8.9521 -1.4713,5.62623 -6.78978,7.50635 -10.5623,3.73385 z"
       id="path3720"
       inkscape:connector-curvature="0" />
    <path
       style="fill:#000000"
       d="m 363.73138,337.29001 c -0.19797,-24.07258 -1.21172,-29.23285 -5.10749,-25.99963 -3.93904,3.26911 -7.78134,1.68686 -7.78134,-3.20437 0,-1.43678 1.54128,-1.6598 3.42505,-0.49557 2.38299,1.47277 2.78124,0.43918 1.30901,-3.39742 0.79225,-8.95068 9.28245,-1.57309 10.86991,2.84917 1.07871,2.81105 1.96127,6.39839 1.96127,7.97183 0,1.57349 1.12707,2.1643 2.50458,1.31292 2.33633,-1.44392 1.93051,5.23216 -1.27424,20.96314 -0.73804,3.6228 -2.35678,6.58691 -3.59715,6.58691 -1.24042,0 -2.27967,-2.96411 -2.30947,-6.58691 z"
       id="path3718"
       inkscape:connector-curvature="0"
       sodipodi:nodetypes="csssccscsscc" />
    <path
       style="fill:#000000"
       d="m 467.13011,332.13339 c -6.34675,-7.41245 -6.34812,-7.40472 1.45483,-7.99249 6.58014,-0.49567 10.9418,3.5487 11.02358,10.22157 0.0685,5.59268 -6.8375,4.35902 -12.47841,-2.22908 z"
       id="path3716"
       inkscape:connector-curvature="0" />
    <path
       style="fill:#000000"
       d="m 487.46006,336.07018 c -2.66933,-2.66929 -2.47484,-12.70806 0.24403,-12.59276 3.94962,0.16759 13.65996,8.68942 9.90121,8.68942 -2.01292,0 -2.84565,1.3174 -1.85051,2.92753 1.99946,3.2352 -5.18954,4.08095 -8.29464,0.97581 z"
       id="path3714"
       inkscape:connector-curvature="0" />
    <path
       style="fill:#000000"
       d="m 385.85079,319.17816 c 4.02647,0.71695 3.28553,4.28388 6.97921,3.31794 3.8476,-1.00618 5.70093,-0.009 5.70093,3.06911 0,5.88486 -3.83923,8.06672 -7.48246,4.64071 -1.83948,-1.72982 -2.36575,-0.73083 -5.74808,0.68414 -9.42029,0.58084 -8.19823,-13.14559 0.5504,-11.7119 z"
       id="path3712"
       inkscape:connector-curvature="0"
       sodipodi:nodetypes="cssscc" />
    <path
       style="fill:#000000"
       d="m 431.01871,330.89716 c -1.19525,-3.11466 -0.35898,-6.19385 2.09963,-7.73125 5.06019,-3.16411 7.6094,5.18477 2.99274,9.80143 -2.18975,2.18979 -3.69208,1.57907 -5.09237,-2.07018 z"
       id="path3710"
       inkscape:connector-curvature="0" />
    <path
       style="fill:#000000"
       d="m 476.00702,318.87986 c -2.82499,-7.36182 -1.99162,-9.26137 1.45946,-3.32667 1.70877,2.93849 2.49014,5.95944 1.73641,6.71318 -0.75378,0.75373 -2.1919,-0.77017 -3.19587,-3.38651 z"
       id="path3708"
       inkscape:connector-curvature="0" />
    <path
       style="fill:#000000"
       d="m 404.69527,317.47208 c -0.90701,-2.36361 -0.66276,-4.90712 0.54284,-5.65219 1.20557,-0.74511 2.38356,1.18879 2.61773,4.2975 0.50642,6.72323 -0.87354,7.31471 -3.16057,1.35469 z"
       id="path3706"
       inkscape:connector-curvature="0" />
    <path
       style="fill:#000000"
       d="m 345.21866,315.74536 c -0.12693,-7.33559 0.56475,-11.44562 1.5376,-9.1333 0.97278,2.3123 1.07675,8.31423 0.23091,13.33754 -0.9345,5.55127 -1.6282,3.90234 -1.76866,-4.20424 z"
       id="path3704"
       inkscape:connector-curvature="0" />
    <path
       style="fill:#000000"
       d="m 383.03229,311.81863 c -4.08771,-4.08769 -4.56658,-11.05491 -0.75982,-11.05491 1.47593,0 3.26137,1.64671 3.96757,3.65941 0.70621,2.01268 1.31001,0.15832 1.34177,-4.12091 0.032,-4.27915 1.4248,-12.6395 6.41607,-17.58885 1.25541,-1.24486 2.82735,-2.51553 4.89554,-2.5534 14.41862,-0.13752 8.38578,24.16761 -3.58391,14.43273 -4.28467,-3.55599 -4.57034,-3.04231 -2.79736,5.03011 2.31302,10.53111 -3.57264,18.10302 -9.47986,12.19582 z"
       id="path3702"
       inkscape:connector-curvature="0"
       sodipodi:nodetypes="ssscsccss" />
    <path
       style="fill:#000000"
       d="m 418.11516,311.63694 c -3.3479,-2.06911 -3.51002,-3.41845 -0.74305,-6.18537 2.76692,-2.76691 3.95808,-2.44667 5.46033,1.4681 2.4461,6.37442 0.73406,8.08642 -4.71728,4.71727 z"
       id="path3700"
       inkscape:connector-curvature="0" />
    <path
       style="fill:#000000"
       d="m 449.2276,309.97104 c -2.94001,-7.66156 -2.05764,-10.00689 3.76485,-10.00689 6.69359,0 9.90256,6.80478 5.35399,11.35336 -4.49473,4.4947 -7.02047,4.12175 -9.11884,-1.34647 z"
       id="path3698"
       inkscape:connector-curvature="0" />
    <path
       style="fill:#000000"
       d="m 339.80957,156.38157 c -17.62249,0.0899 -35.24574,3.20405 -52.70809,9.75572 -17.20152,5.08033 -30.79279,17.57313 -42.44019,27.32411 -2.11009,1.66026 -3.69978,5.7107 -3.49809,9.29496 0.19925,3.53846 0.0765,4.68286 1.19934,7.04615 -2.12841,2.63994 -22.51543,27.33203 -30.88321,38.12928 -6.5629,8.46836 -8.21463,13.87262 -6.29658,18.09017 -0.10261,-0.20276 -0.4318,-0.64566 -0.49972,-0.79956 0.5642,3.68616 8.43349,17.11348 14.79195,23.68713 0.41255,0.42648 1.18202,1.38328 2.59859,2.29874 6.8682,4.43862 9.68398,3.38741 4.5975,-1.69908 -6.25419,-6.25422 -5.83554,-13.92248 1.19935,-20.28896 3.22026,-2.91429 5.8968,-7.27954 5.8968,-9.69473 0,-1.20399 -0.34132,-3.1973 -0.79957,-2.99838 -0.7213,0.31312 -2.21544,1.23175 -5.59696,4.19772 -3.97387,3.48547 -5.37845,3.94381 -3.79793,1.19935 2.17437,-3.77561 1.82803,-3.8277 -2.3987,-0.39979 -2.70378,2.19283 -6.86196,3.19402 -9.195,2.29877 -3.5792,-1.37347 -3.30476,-3.44971 1.49918,-13.39273 3.13136,-6.48118 7.3152,-10.1199 11.49375,-14.8919 4.17857,-4.772 16.13139,-18.59546 21.06932,-25.36906 2.32328,-3.18697 3.75757,-3.6458 4.17348,-5.94025 0.41589,-2.29448 -0.0665,-3.38818 0.32423,-6.78713 0.3901,-3.39895 1.81978,-4.5636 5.01651,-5.27999 2.71561,-0.76243 4.49756,-2.01938 4.49756,-3.89788 0,-1.8785 0.91076,-2.58733 1.99891,-1.49918 1.08815,1.08815 2.85416,-2.68098 6.59642,-6.19663 3.74228,-3.51566 8.9951,-3.64103 8.9951,-2.49865 0,1.14239 2.57435,0.67171 5.69691,-0.99945 3.66581,-1.96172 6.25336,-1.94956 7.39597,-0.0997 0.9733,1.57475 5.69586,2.34608 10.39436,1.79902 3.35881,0.22483 5.56615,-3.16577 8.88575,-3.7245 -0.30574,-1.61017 -3.34355,0.70166 -8.28608,0.92618 -6.55139,0.29743 -8.62916,-0.74488 -7.49592,-3.69799 0.8549,-2.22791 2.48229,-3.48803 3.59804,-2.79849 2.66281,1.64574 10.93074,-2.96171 8.89516,-4.99727 7.4184,-1.03221 20.10114,-3.3482 21.98805,-2.89843 2.12307,6.66844 6.86362,4.36636 11.29386,0.0998 2.71728,-0.0464 5.35648,-0.1238 7.99566,-0.0998 -0.79315,7.37344 7.47174,4.39403 3.2982,-0.39979 5.07181,-0.13336 10.07162,0.94865 14.69202,1.39925 -0.51629,0.68347 -0.49973,1.11654 -0.49973,1.99891 0,2.28101 1.58609,3.63573 3.4981,2.99837 2.89321,-0.9644 4.11524,-2.63108 4.09777,-4.29767 1.82621,0.17367 3.82713,0.25202 5.39706,0.69962 -0.80436,1.03704 2.0917,3.04395 0.49973,4.09778 -6.20696,4.1088 8.27026,4.25675 7.69582,-1.79902 21.34599,-1.6149 51.79376,39.43567 36.58011,46.47473 11.85695,6.21148 23.3383,15.64689 28.28463,27.08528 0.85231,3.62119 0.35958,7.29383 -1.09941,8.19554 -4.61093,2.84972 -2.86416,7.19609 2.89843,7.19609 3.59805,-0.0665 5.69691,-3.33149 8.99511,-2.59858 1.84899,1.39907 2.09886,2.44864 3.04833,4.74739 0.81767,1.60121 -4.9995,6.87934 -14.1423,5.44706 -7.83797,-0.58026 -12.43324,0.76861 -14.65894,3.65661 -2.349,4.80417 0.16471,8.73094 7.85848,5.72115 1.99741,-1.20367 3.88605,-4.82088 7.99981,-4.48042 4.11369,0.34045 4.86325,3.48614 7.29604,5.19717 2.67559,1.88183 11.31698,-3.02319 13.79249,-1.69907 3.69432,2.33636 10.23713,14.10311 10.09452,16.89081 -0.0933,1.82833 -7.72659,8.47963 -10.2944,10.79414 -7.55846,6.06994 0.76236,9.33812 9.30448,4.01791 3.70134,5.38434 7.34036,5.00582 11.98395,3.97775 0.83682,-0.46251 6.50688,10.15966 13.7925,23.48723 10.32916,18.8952 19.94554,40.58506 31.98261,52.47147 0.9425,-0.36956 2.18688,-1.85323 2.29875,-1.79902 -12.49685,-14.34567 -19.4682,-31.12891 -27.68495,-46.77457 -25.48243,-48.52166 -53.69404,-93.23463 -83.55458,-137.82509 -7.3559,-8.75513 -4.5068,-13.52442 -22.88756,-27.08527 -25.18992,-12.62318 -44.53716,-13.11658 -68.76262,-12.99294 z"
       id="path3127"
       inkscape:connector-curvature="0"
       sodipodi:nodetypes="cccccscccsssscssssssssccsssscccccccccccccssccscccsccccccsscscccsccscccc" />
    <path
       style="fill:#ffffff"
       d="m 205.78243,267.12137 c 0.93127,1.45889 2.30895,2.82832 4.09777,4.09777 6.10558,4.33291 12.86567,15.72089 10.4943,16.99076 -2.82266,-2.28414 -11.63342,-15.74916 -14.59207,-21.08853 z"
       id="path3125"
       inkscape:connector-curvature="0" />
    <path
       style="fill:#000000"
       d="m 450.34949,274.96709 c -0.12824,2.12886 -1.12081,3.10938 -2.99838,1.94896 -1.85886,-1.14886 -2.67583,-0.65539 -2.49863,0.99945 0.15574,1.4564 0.60216,2.9872 2.24876,6.29658 1.85265,3.72348 7.53045,7.50242 5.64693,0.29967 -1.58281,-6.30023 6.67094,-2.44279 5.7469,-7.99565 -1.66415,-2.95942 -4.66786,1.42512 -5.84683,-1.49918 -0.97016,-2.28481 -2.72982,-0.91451 -2.29875,0.0499 z"
       id="path3123"
       inkscape:connector-curvature="0"
       sodipodi:nodetypes="csssccccc" />
    <path
       style="fill:#000000"
       d="m 255.25554,305.30061 c -13.43727,1.93304 -22.09216,-4.62014 -32.38241,-12.09343 -0.91716,0.80003 10.32941,11.49379 13.89245,12.69311 3.8786,1.30553 8.90675,3.95519 16.79088,3.79793 20.33348,1.83987 43.28729,-21.35543 60.36719,-16.69093 9.65177,2.34363 12.73585,7.92795 16.49103,14.89191 5.41654,9.92331 9.16744,19.39653 11.19391,36.58012 2.5747,21.83174 -0.32113,50.77448 0.89951,50.97229 0.8952,0.14519 1.07353,1.42377 1.69908,0.79957 0.54441,-0.54324 2.25641,-29.15917 -0.79956,-52.17165 -2.1326,-16.05911 -6.26687,-26.61813 -8.79522,-34.5812 4.42971,-5.79825 7.16769,-7.77376 14.8919,-10.69419 -9.27892,1.0079 -17.09298,-1.26267 -24.98642,-4.69744 -3.70812,-1.64401 -5.53583,-3.96658 -13.29277,-4.59751 -20.116,0.9172 -37.09839,12.04508 -55.96957,15.79142 z"
       id="path3696"
       inkscape:connector-curvature="0"
       sodipodi:nodetypes="ccscccscssccccc" />
    <path
       style="fill:#000000"
       d="m 427.80612,296.03941 c 0,-5.642 6.65558,-10.34993 9.96006,-7.04538 3.19161,3.19161 1.81949,6.38596 -4.10504,9.55666 -4.91405,2.62992 -5.85502,2.22634 -5.85502,-2.51128 z"
       id="path3688"
       inkscape:connector-curvature="0" />
    <path
       style="fill:#000000"
       d="m 269.54595,199.27393 c 3.42552,-10.43554 12.07139,-14.62505 21.18541,-17.15074 0.84865,0.77993 -2.7035,3.35143 -3.63297,5.72831 -8.05859,2.42799 -16.44255,12.6907 -17.55244,11.42252 z"
       id="path3686"
       inkscape:connector-curvature="0"
       sodipodi:nodetypes="ccccc" />
    <path
       style="fill:#000000"
       d="m 290.59146,216.4816 c -1.87961,1.31682 -4.94355,1.16062 -7.80289,0.38113 -7.15298,-1.95 -14.9821,9.60455 -17.72877,16.77921 -2.34893,6.13573 7.53297,32.26537 11.00961,29.09918 1.38823,-1.26423 1.51613,-0.55438 0.28432,1.57748 -3.43355,5.94192 9.6022,18.54394 15.76852,15.24381 2.87926,-1.54092 6.61105,-1.5129 9.11046,0.0685 2.32848,1.47312 3.57486,2.79937 2.7698,2.9472 -12.40736,2.27859 -32.51571,12.22836 -36.50758,15.03278 -11.8375,3.69207 -22.67901,0.44939 -32.97692,-1.89061 -3.38146,-0.48493 -4.12544,-2.01863 -4.23952,-2.53799 -0.18486,-0.84108 1.19788,-1.67746 5.67074,-1.61914 1.19235,0.016 8.81128,1.40758 13.43232,1.8191 0,0 7.61314,0.9226 10.25627,-1.04062 2.64314,-1.96322 3.55011,-4.87755 3.62798,-8.72144 0.078,-3.84389 -5.25791,-23.25094 -7.35769,-30.49654 -4.04973,-13.97406 -1.4459,-24.24592 19.02575,-40.85906 1.08837,-4.31594 0.73103,-13.99608 4.32878,-13.92626 6.45649,0.12537 19.41822,-5.55993 21.84144,-2.18943 -1.68244,4.97585 -5.20907,16.87802 -10.51262,20.33275 z"
       id="path3684"
       inkscape:connector-curvature="0"
       sodipodi:nodetypes="cssscsccccssszzscscc" />
    <path
       style="fill:#000000"
       d="m 305.41787,197.21562 c 1.47554,-4.73329 6.08168,6.74591 6.06784,9.96618 -0.0192,4.78984 -0.94442,4.69849 -4.85181,-2.0238 0,0 -2.08839,-3.02933 -2.20189,-4.77987 -0.0714,-1.1019 0.98586,-3.16251 0.98586,-3.16251 z"
       id="path3682"
       inkscape:connector-curvature="0"
       sodipodi:nodetypes="scsas" />
    <path
       style="fill:#000000"
       d="m 273.41789,282.6489 c -0.91013,-1.47261 1.6e-4,-3.31443 2.02286,-4.09292 2.02271,-0.77846 0.78066,-1.27438 -2.76006,-1.10202 -4.91375,0.23922 -5.69515,1.20805 -3.30093,4.09288 3.58689,4.32193 6.52339,5.12335 4.03813,1.10206 z"
       id="path3680"
       inkscape:connector-curvature="0" />
    <path
       style="fill:#000000"
       d="m 370.30518,292.7199 c -0.94255,-2.45629 -0.40391,-4.46599 1.19705,-4.46599 1.60914,0 1.68242,-4.60709 -2.45266,-7.64615 -4.64655,-3.41497 -3.12981,-8.84037 5.4155,-7.58621 7.95804,1.16801 12.63242,9.3773 5.33944,9.3773 -1.78237,0 -2.51937,1.87978 -1.63778,4.17725 0.88164,2.29748 -0.14104,5.62456 -2.27242,7.39352 -2.90038,2.40715 -4.30649,2.09274 -5.58913,-1.24972 z"
       id="path3676"
       inkscape:connector-curvature="0"
       sodipodi:nodetypes="ssssscss" />
    <path
       style="fill:#000000"
       d="m 351.80181,289.45851 c -0.77558,-2.02105 0.15032,-6.59031 2.0575,-10.15391 2.7585,-5.15432 3.99277,-5.65009 6.03563,-2.42438 4.26322,6.73158 3.08412,16.25287 -2.0127,16.25287 -2.56872,0 -5.30492,-1.65357 -6.08043,-3.67458 z"
       id="path3672"
       inkscape:connector-curvature="0" />
    <path
       style="fill:#000000"
       d="m 455.38514,292.01993 c 0,-2.41523 1.97608,-4.3913 4.39128,-4.3913 2.41519,0 4.39128,1.97607 4.39128,4.3913 0,2.41517 -1.97609,4.39124 -4.39128,4.39124 -2.4152,0 -4.39128,-1.97607 -4.39128,-4.39124 z"
       id="path3668"
       inkscape:connector-curvature="0" />
    <path
       style="fill:#000000"
       d="m 466.95383,287.38689 c 0,-6.76905 5.04586,-7.9746 6.7119,-1.6036 0.98667,3.77301 0.0736,5.82211 -2.59468,5.82211 -2.26447,0 -4.11722,-1.89832 -4.11722,-4.21851 z"
       id="path3666"
       inkscape:connector-curvature="0" />
    <path
       style="fill:#000000"
       d="m 328.44797,279.1072 c -4.92382,-6.59114 -2.7468,-12.50293 4.24448,-11.52608 4.70275,0.65712 6.56757,-0.58369 6.59971,-4.39124 0.0367,-4.36221 0.52372,-4.5502 2.73436,-1.05569 1.47925,2.33831 1.91421,5.50596 0.9666,7.03925 -0.94761,1.53325 -0.29296,1.90402 1.45463,0.82389 4.23802,-2.61924 7.9499,3.71745 4.30985,7.35748 -1.86247,1.86251 -4.72987,1.5911 -7.65833,-1.33738 -5.04132,-4.94727 -2.94874,1.05964 -4.55966,4.2232 -1.23584,2.42701 -5.80213,1.33882 -8.09164,-1.13343 z"
       id="path3664"
       inkscape:connector-curvature="0"
       sodipodi:nodetypes="cscsscscsc" />
    <path
       style="fill:#000000"
       d="m 372.79894,256.0512 c -1.8842,-2.64788 -0.52608,-5.85506 2.45616,-5.85506 2.8732,0 3.80299,1.95596 2.78335,5.85506 -1.06483,4.07192 -0.0899,5.85502 3.20163,5.85502 2.60299,0 4.73269,1.36374 4.73269,3.03051 0,2.05469 1.88533,2.02152 5.85502,-0.10301 3.2203,-1.72345 3.93453,-2.11107 6.09901,-2.29862 7.57321,-0.65623 8.04099,12.25513 1.13955,12.60946 -1.8391,0.0944 -2.73835,-0.37384 -4.90549,-2.54098 -2.16708,-2.16708 -6.80565,-3.50286 -10.30791,-2.96837 -12.09045,1.07371 -9.67092,-8.51886 -11.05401,-13.58404 z m -17.13133,-7.82605 c -7.92379,-9.52378 -11.9992,-24.69909 -6.01661,-22.40335 2.07244,0.79525 2.96876,3.62175 2.00403,6.31963 -0.95992,2.6845 -0.69232,3.92795 0.59473,2.7633 2.26788,-2.05228 11.61141,11.47144 15.11569,21.87832 1.90976,6.91439 -0.92338,6.7704 -3.03881,5.32005 -3.46329,-4.7118 -5.72649,-10.28784 -8.65903,-13.87795 z"
       id="path3662"
       inkscape:connector-curvature="0"
       sodipodi:nodetypes="csssssssscccsscccc" />
    <path
       id="path3660"
       style="fill:#000000"
       d="m 237.28505,269.94498 c 5.1081,-1.64311 9.60041,-0.2581 13.09374,-3.04355 1.65735,-2.68163 2.57533,-2.55116 3.75933,0.53433 1.17041,3.04998 -1.50276,4.19203 -10.57076,4.51604 -8.93274,0.31918 -10.59146,-0.21077 -6.28231,-2.00682 z"
       inkscape:connector-curvature="0" />
    <path
       style="fill:#000000"
       d="m 316.6722,266.54145 c -0.12693,-3.08609 0.56475,-4.81517 1.53756,-3.84236 0.97279,0.97279 1.07679,3.49775 0.23124,5.61107 -0.93454,2.33538 -1.62823,1.64167 -1.76867,-1.76871 z"
       id="path3656"
       inkscape:connector-curvature="0" />
    <path
       style="fill:#000000"
       d="m 422.41564,261.65362 c 0.7997,-5.798 3.99015,-10.95798 2.82439,-17.5651 l -1.76333,-9.99371 6.11267,8.78255 c 6.42607,9.2329 7.978,17.75064 2.85918,14.58704 -4.65663,-1.33325 -7.12258,2.96137 -10.23891,5.68277 z"
       id="path3654"
       inkscape:connector-curvature="0"
       sodipodi:nodetypes="sscsccs" />
    <path
       style="fill:#000000"
       d="m 350.5225,260.77768 c -2.0111,-3.22027 -2.59146,-5.85503 -1.28969,-5.85503 3.04979,0 9.39284,6.3263 9.39284,9.36806 0,4.31341 -4.40928,2.40181 -8.10315,-3.51303 z"
       id="path3650"
       inkscape:connector-curvature="0" />
    <path
       style="fill:#000000"
       d="m 326.40266,254.68874 c -0.8274,-2.15612 -0.80764,-4.61692 0.0438,-5.46846 2.07347,-2.07346 9.75838,1.00048 9.75838,3.90335 0,4.22171 -8.27583,5.5431 -9.80232,1.56511 z"
       id="path3646"
       inkscape:connector-curvature="0" />
    <path
       style="fill:#000000"
       d="m 435.74056,247.85408 c 0,-1.2881 1.53769,-3.87964 3.41706,-5.75905 2.60437,-2.60437 2.25627,-3.86248 -1.46376,-5.28998 -2.68446,-1.03014 -4.8808,-3.70807 -4.8808,-5.95101 0,-4.84175 1.50581,-5.04494 8.73112,-1.17808 4.68095,2.50517 4.96595,4.0994 2.0932,11.71005 -3.04989,8.08012 -7.89682,12.05013 -7.89682,6.46807 z"
       id="path3640"
       inkscape:connector-curvature="0" />
    <path
       style="fill:#000000"
       d="m 333.98224,224.21311 c 1.84022,-0.37183 2.99198,1.42313 2.55941,3.98881 -0.43259,2.56571 1.08664,7.63476 3.37602,11.26457 4.5251,7.17456 9.87553,13.27086 3.64387,8.96923 -5.43259,-5.5101 -13.93353,-19.1882 -9.5793,-24.22261 z"
       id="path3880"
       inkscape:connector-curvature="0" />
    <path
       style="fill:#000000"
       d="m 321.97885,235.54346 c 2.73246,5.44788 2.50427,6.58819 -1.31804,6.58624 -2.54238,-0.001 -4.24361,-1.6489 -3.78037,-3.66133 0.46316,-2.01242 -0.46625,-3.65962 -2.06547,-3.66044 -1.59916,-9e-4 -2.5788,0.98675 -2.17686,2.19455 1.44535,4.34342 -4.53786,2.08894 -6.23898,-2.35088 -0.95763,-2.49932 -0.53028,-3.795 0.94975,-2.8793 1.47996,0.91569 3.45681,0.42686 4.393,-1.0861 4.38819,-3.28095 7.32818,0.78568 10.23693,4.85726 z"
       id="path3638"
       inkscape:connector-curvature="0" />
    <path
       style="fill:#000000"
       d="m 409.74675,246.72138 c 0,-1.61013 1.3174,-2.9275 2.92754,-2.9275 1.61012,0 2.92752,1.31737 2.92752,2.9275 0,1.61014 -1.3174,2.92754 -2.92752,2.92754 -1.61014,0 -2.92754,-1.3174 -2.92754,-2.92754 z"
       id="path3636"
       inkscape:connector-curvature="0" />
    <path
       style="fill:#000000"
       d="m 364.97918,238.11269 c -0.87562,-2.28196 0.1516,-4.81815 2.28298,-5.636 2.64548,-1.0152 3.40741,0.30127 2.40124,4.14897 -1.75905,6.72661 -2.57429,6.98542 -4.68422,1.48703 z"
       id="path3634"
       inkscape:connector-curvature="0" />
    <path
       style="fill:#000000"
       d="m 239.01684,223.98514 c 3.59043,-4.57989 9.18273,-4.64285 9.18273,-0.10327 0,0.97841 -0.86687,0.91208 -1.92628,-0.14744 -1.0595,-1.05942 -4.02361,-0.29104 -6.58693,1.70775 -4.11705,3.21016 -4.19516,3.0402 -0.66952,-1.45693 z"
       id="path3630"
       inkscape:connector-curvature="0" />
    <path
       style="fill:#000000"
       d="m 304.38185,219.69006 c 2.61202,4.1825 2.44318,5.31059 -0.79486,5.31059 -6.6044,-0.23155 -1.45297,-9.99937 0.79486,-5.31059 z"
       id="path3628"
       inkscape:connector-curvature="0"
       sodipodi:nodetypes="ccc" />
    <path
       style="fill:#000000"
       d="m 368.40766,220.92101 c -1.72342,-3.22026 -2.47482,-5.85502 -1.66975,-5.85502 0.80507,0 2.87386,2.63476 4.59727,5.85502 1.72345,3.22027 2.47485,5.85502 1.66975,5.85502 -0.80503,0 -2.87382,-2.63475 -4.59727,-5.85502 z"
       id="path3626"
       inkscape:connector-curvature="0" />
    <path
       style="fill:#000000"
       d="m 349.92353,213.39048 c -4.69534,-3.75703 -7.26722,-7.61571 -5.71529,-8.57486 3.61812,-2.23609 7.45255,0.57207 12.08143,8.84796 4.57841,8.1856 4.18403,8.16867 -6.36614,-0.27313 z"
       id="path3624"
       inkscape:connector-curvature="0" />
    <path
       style="fill:#000000"
       d="m 320.02708,206.78293 c -3.55855,-4.28781 -1.53866,-7.7491 4.52211,-7.7491 4.36112,0 5.34386,7.54675 1.30755,10.0413 -1.4277,0.88237 -4.05104,-0.14903 -5.82966,-2.2922 z"
       id="path3622"
       inkscape:connector-curvature="0" />
    <path
       style="fill:#000000"
       d="m 330.34991,218.16596 c 0,-1.51511 1.30234,-3.55959 2.89402,-4.54332 1.65947,-1.02561 2.15025,0.14936 1.15053,2.75473 -1.94616,5.07171 -4.04455,5.99965 -4.04455,1.78859 z"
       id="path3620"
       inkscape:connector-curvature="0" />
    <path
       style="fill:#000000"
       d="m 261.1207,205.71479 c 1.16705,-2.32477 6.11388,-7.2085 8.10149,-5.58331 0.15127,0.29072 -4.34881,2.29002 -4.43561,5.89801 -0.0599,2.47977 -4.18362,4.43857 -4.74989,4.10983 -0.41921,-0.24339 0.50452,-3.27019 1.08404,-4.42453 z"
       id="path3616"
       inkscape:connector-curvature="0"
       sodipodi:nodetypes="ccsssc" />
    <path
       style="fill:#000000"
       d="m 333.27745,197.47219 c 0,-1.70519 1.31738,-3.1003 2.92752,-3.1003 1.61013,0 2.92753,0.58093 2.92753,1.29098 0,0.71004 -1.3174,2.10516 -2.92753,3.1003 -1.61014,0.9951 -2.92752,0.41417 -2.92752,-1.29098 z"
       id="path3610"
       inkscape:connector-curvature="0" />
    <path
       style="fill:#000000"
       d="m 299.63174,185.82409 c -1.02566,-1.65948 0.14935,-2.15026 2.75472,-1.15054 5.07168,1.9462 5.99961,4.04455 1.7886,4.04455 -1.51512,0 -3.55963,-1.3023 -4.54332,-2.89401 z"
       id="path3606"
       inkscape:connector-curvature="0" />
    <path
       style="fill:#000000"
       d="m 339.05526,185.15143 c 3.36922,-2.13458 3.36922,-2.77545 0,-4.11533 -2.78233,-1.10647 -2.43941,-1.65699 1.13253,-1.81812 2.81773,-0.12693 5.12314,1.74494 5.12314,4.16015 0,2.41519 -2.30541,4.37109 -5.12314,4.34643 -4.00937,-0.0352 -4.25557,-0.59449 -1.13253,-2.57313 z"
       id="path3604"
       inkscape:connector-curvature="0" />
    <path
       style="fill:#000000"
       d="m 360.42288,175.6353 c -0.99515,-1.61014 0.24434,-2.9275 2.75473,-2.9275 2.51024,0 4.56407,1.31736 4.56407,2.9275 0,1.61016 -1.23965,2.92752 -2.75472,2.92752 -1.51512,0 -3.56894,-1.31736 -4.56408,-2.92752 z"
       id="path3602"
       inkscape:connector-curvature="0" />
    <path
       style="fill:#000000"
       d="m 319.43764,179.70431 c 0.9951,-1.61013 3.70761,-2.92753 6.0278,-2.92753 2.32017,0 4.2185,1.3174 4.2185,2.92753 0,1.61013 -2.71255,2.92749 -6.02782,2.92749 -3.31529,0 -5.21362,-1.31736 -4.21848,-2.92749 z"
       id="path3600"
       inkscape:connector-curvature="0" />
    <path
       style="fill:#000000"
       d="m 338.71033,171.53471 c 2.00617,-3.24611 9.87069,-2.90687 9.87069,0.42575 0,1.51005 -2.54347,2.55397 -5.65219,2.31979 -3.10873,-0.23411 -5.00706,-1.46966 -4.2185,-2.74554 z"
       id="path3598"
       inkscape:connector-curvature="0" />
    <path
       style="fill:#000000"
       d="m 317.50215,169.38829 c 2.71113,-2.22599 6.92232,-3.63947 9.35827,-3.14102 4.13586,0.8463 1.52039,4.73922 -2.67452,3.98078 -1.05677,-0.18998 -4.10173,0.45253 -6.76704,1.43007 -4.1831,1.53431 -4.17168,1.22381 0.0831,-2.26983 z"
       id="path3596"
       inkscape:connector-curvature="0" />
    <path
       id="path3660-1"
       style="fill:#000000"
       d="m 233.72637,280.09192 c 6.10973,0.71739 21.51682,-3.07618 22.9309,-0.67177 1.1704,3.05 -7.58058,2.35456 -16.64859,2.67857 -8.93274,0.31919 -10.91892,-2.55121 -6.28231,-2.0068 z"
       inkscape:connector-curvature="0"
       sodipodi:nodetypes="scss" />
    <path
       style="fill:#000000"
       d="m 410.04681,276.02379 c -3.39706,-4.59389 -1.51035,-14.07052 2.80127,-14.07052 5.90309,0 7.3183,2.39722 5.8618,9.92915 -1.20673,6.24027 -5.56891,8.32559 -8.66307,4.14137 z"
       id="path3720-1"
       inkscape:connector-curvature="0" />
    <path
       inkscape:connector-curvature="0"
       style="fill:#000000"
       d="m 300.44367,261.28096 c -0.94335,-3.11465 -0.28336,-6.19386 1.65715,-7.73126 3.99376,-3.16409 6.00573,5.18477 2.36201,9.80143 -1.72827,2.18979 -2.91397,1.57907 -4.01916,-2.07017 z"
       id="path3710-7" />
    <g
       id="g3102"
       transform="matrix(3.1982614,0,0,3.1982614,-605.08504,-278.40647)"
       style="stroke:none">
      <g
         id="g3098"
         style="stroke:none">
        <path
           style="fill:#000000;stroke:none"
           d="m 314.64853,139.2189 c -3.81392,0.23082 -10.17397,3.97809 -7.31712,9.90699 -0.31621,0.51165 -1.01606,0.68147 -1.5625,0.34375 -0.56466,-0.34898 -0.74998,-0.21243 -0.40625,0.34375 0.33265,0.53823 0.60119,0.99503 -0.0312,1.25 0.0715,2.64932 3.56679,8.7419 5.21875,12.65616 5.04573,2.69347 6.2022,-3.58171 6.90625,-4.28125 4.23709,-4.72958 7.25284,-8.87315 8,-14.625 0.27774,-5.88017 -8.1105,-5.94106 -10.80788,-5.59444 z"
           id="path3644-1-7"
           inkscape:connector-curvature="0"
           sodipodi:nodetypes="ccsccccccc" />
        <path
           style="fill:#ffffff;stroke:none"
           d="m 305.67609,151.87747 c 2.40986,0.0859 3.81229,-2.44885 2.96875,-4.5625 -1.33997,-3.35753 0.84269,-5.81016 6.8125,-5.65625 3.35328,0.0864 4.29863,1.08026 3.625,3.65625 -0.67755,2.59098 -2.17693,2.64368 -2.84375,0.0937 -0.47016,-1.79792 -0.64527,-1.72394 -2.25,1.125 -0.96085,1.70581 -1.54187,2.39615 -1.28125,1.53125 0.62442,-2.07221 -0.51386,-2.67037 -2,-1.0625 -0.64915,0.70232 -0.7712,1.28125 -0.28125,1.28125 1.40622,0 0.2125,4.59999 -2,7.6875 -2.12933,3.09386 3.97026,3.2859 1.34375,1.15625 -0.53315,0 -0.92351,-0.12269 -0.59375,-0.65625 0.37891,-0.61308 1.04998,-0.35943 1.84375,0.6875 1.15645,1.52528 1.2857,1.5109 1.3125,0.0625 0.02,-1.08118 0.49345,-1.39823 1.53125,-1 1.27066,0.4876 1.39867,0.18234 0.84375,-2.0625 -0.43348,-1.75337 -0.34225,-2.35169 0.25,-1.75 0.36736,0.3732 1.41301,3.83808 1.92697,2.91328 0.84759,-3.2804 2.53747,-7.97578 4.32303,-7.97578 0.72324,0 1.06115,-0.40281 0.75,-0.90625 -0.31114,-0.50344 -0.17352,-0.90625 0.3125,-0.90625 2.43604,-3.33162 -2.56967,-4.31721 -5.2946,-5.28966 0.4545,-0.25695 3.58025,0.2487 4.8571,0.82087 6.75049,2.77002 -3.91937,17.90127 -6.96875,17.96875 -0.6248,-0.20827 -1.66937,0.16937 -2.34375,0.84375 -0.67438,0.67434 -1.59965,1.00481 -2.0625,0.71875 -0.46286,-0.28605 -0.84375,-0.0957 -0.84375,0.4375 0.9966,1.56814 3.37358,-0.74034 3.69102,1.88036 0,0.55726 -1.65971,0.5757 -2.44102,0.27589 -0.86456,-0.33175 -0.43296,0.5926 -3.05944,-5.20793 -2.62647,-5.8005 -2.88346,-6.13138 -2.12806,-6.10448 z"
           id="path3644-1"
           inkscape:connector-curvature="0"
           sodipodi:nodetypes="cssssssssccsssccccscccccccccscc" />
      </g>
    </g>
  </g>
  <g
     inkscape:groupmode="layer"
     id="layer2"
     inkscape:label="Main"
     style="display:inline"
     transform="translate(0,2.472441e-5)" />
</svg>
